SplineFontDB: 3.2
FontName: Unageo-Light
FullName: Unageo Light
FamilyName: Unageo
Weight: Light
Copyright: 
UComments: "2023-12-24: Created with FontForge (http://fontforge.org)"
Version: 1.6
ItalicAngle: 0
UnderlinePosition: -100
UnderlineWidth: 50
Ascent: 800
Descent: 200
InvalidEm: 0
LayerCount: 2
Layer: 0 0 "Back" 1
Layer: 1 0 "Fore" 0
XUID: [1021 442 -170519175 32250]
FSType: 0
OS2Version: 0
OS2_WeightWidthSlopeOnly: 0
OS2_UseTypoMetrics: 1
CreationTime: 1703449529
ModificationTime: 1703604334
PfmFamily: 33
TTFWeight: 300
TTFWidth: 5
LineGap: 0
VLineGap: 0
OS2TypoAscent: 800
OS2TypoAOffset: 0
OS2TypoDescent: -200
OS2TypoDOffset: 0
OS2TypoLinegap: 90
OS2WinAscent: 910
OS2WinAOffset: 0
OS2WinDescent: 220
OS2WinDOffset: 0
HheadAscent: 950
HheadAOffset: 0
HheadDescent: -250
HheadDOffset: 0
OS2CapHeight: 700
OS2XHeight: 500
OS2Vendor: 'PfEd'
MarkAttachClasses: 1
DEI: 91125

StartChar: A
Encoding: 65 65 0
GlifName: A_
Width: 601
Flags: HW
HStem: 0 21G<10 82 520 592> 205 60<171 431> 619 81<231 371>
LayerCount: 2
Fore
SplineSet
171 265 m 1
 431 265 l 1
 301 619 l 1
 171 265 l 1
149 205 m 1
 75 0 l 1
 10 0 l 1
 271 700 l 1
 331 700 l 1
 592 0 l 1
 527 0 l 1
 453 205 l 1
 149 205 l 1
EndSplineSet
Validated: 1
EndChar

StartChar: B
Encoding: 66 66 1
GlifName: B_
Width: 625
Flags: HW
HStem: 0 62<160 435> 326 62<160 397> 638 62<160 396>
VStem: 100 60<62 326 388 638> 452 62<442 583> 495 62<122 266>
LayerCount: 2
Fore
SplineSet
160 326 m 1xf4
 160 62 l 1
 363 62 l 2
 399 62 430 75 456 101 c 0
 482 127 495 158 495 194 c 0
 495 230 482 261 456 287 c 0
 430 313 399 326 363 326 c 2
 160 326 l 1xf4
160 638 m 1
 160 388 l 1
 327 388 l 2
 362 388 392 400 416 424 c 0
 440 448 452 478 452 513 c 0xf8
 452 548 440 578 416 602 c 0
 392 626 362 638 327 638 c 2
 160 638 l 1
100 700 m 1
 327 700 l 2
 378 700 422 682 459 645 c 0
 496 608 514 564 514 513 c 0xf8
 514 454 491 407 446 369 c 1
 479 353 505 329 526 298 c 0
 547 267 557 232 557 194 c 0xf4
 557 141 538 95 500 57 c 0
 462 19 416 0 363 0 c 2
 100 0 l 1
 100 700 l 1
EndSplineSet
Validated: 1
EndChar

StartChar: C
Encoding: 67 67 2
GlifName: C_
Width: 677
Flags: HW
HStem: -12 60<281 497> 652 60<279 497>
VStem: 50 60<230 470>
LayerCount: 2
Fore
SplineSet
389 712 m 0
 439 712 486 703 528 683 c 0
 570 663 607 636 638 600 c 1
 595 556 l 1
 541 620 473 652 389 652 c 0
 308 652 241 623 189 564 c 0
 137 505 110 434 110 350 c 0
 110 266 137 195 189 136 c 0
 241 77 308 48 389 48 c 0
 473 48 541 80 595 144 c 1
 638 101 l 1
 607 65 570 38 528 18 c 0
 486 -2 439 -12 389 -12 c 0
 290 -12 209 23 146 93 c 0
 83 163 50 248 50 350 c 0
 50 452 83 537 146 607 c 0
 209 677 290 712 389 712 c 0
EndSplineSet
Validated: 1
EndChar

StartChar: D
Encoding: 68 68 3
GlifName: D_
Width: 682
Flags: HW
HStem: 0 60<160 394> 640 60<160 394>
VStem: 100 60<60 640> 573 60<239 461>
LayerCount: 2
Fore
SplineSet
283 640 m 2
 160 640 l 1
 160 60 l 1
 283 60 l 2
 363 60 431 88 488 145 c 0
 545 202 573 270 573 350 c 0
 573 430 545 498 488 555 c 0
 431 612 363 640 283 640 c 2
283 700 m 2
 380 700 462 666 530 598 c 0
 598 530 633 447 633 350 c 0
 633 253 598 171 530 103 c 0
 462 35 380 0 283 0 c 2
 100 0 l 1
 100 700 l 1
 283 700 l 2
EndSplineSet
Validated: 1
EndChar

StartChar: E
Encoding: 69 69 4
GlifName: E_
Width: 592
Flags: HW
HStem: 0 60<160 503> 329 60<160 439> 640 60<160 503>
VStem: 100 60<60 329 389 640>
LayerCount: 2
Fore
SplineSet
100 0 m 1
 100 700 l 1
 503 700 l 1
 503 640 l 1
 160 640 l 1
 160 389 l 1
 439 389 l 1
 439 329 l 1
 160 329 l 1
 160 60 l 1
 503 60 l 1
 503 0 l 1
 100 0 l 1
EndSplineSet
Validated: 1
EndChar

StartChar: G
Encoding: 71 71 5
GlifName: G_
Width: 765
Flags: HW
HStem: -12 60<281 496> 320 60<476 665> 652 60<279 497>
VStem: 50 60<230 470>
CounterMasks: 1 e0
LayerCount: 2
Fore
SplineSet
388 712 m 0
 438 712 486 703 528 683 c 0
 570 663 607 636 638 600 c 1
 594 556 l 1
 540 620 472 652 388 652 c 0
 307 652 240 623 188 564 c 0
 136 505 110 434 110 350 c 0
 110 266 136 195 188 136 c 0
 240 77 307 48 388 48 c 0
 472 48 540 80 594 144 c 0
 635 193 659 252 665 320 c 1
 476 320 l 1
 476 380 l 1
 726 380 l 1
 726 350 l 2
 726 252 696 168 637 100 c 0
 606 65 570 38 527 18 c 0
 484 -2 438 -12 388 -12 c 0
 289 -12 208 23 145 93 c 0
 82 163 50 248 50 350 c 0
 50 452 82 537 145 607 c 0
 208 677 289 712 388 712 c 0
EndSplineSet
Validated: 1
EndChar

StartChar: H
Encoding: 72 72 6
GlifName: H_
Width: 726
Flags: HW
HStem: 0 21G<100 160 567 627> 331 60<160 567> 680 20G<100 160 567 627>
VStem: 100 60<0 331 391 700> 567 60<0 331 391 700>
LayerCount: 2
Fore
SplineSet
100 0 m 1
 100 700 l 1
 160 700 l 1
 160 391 l 1
 567 391 l 1
 567 700 l 1
 627 700 l 1
 627 0 l 1
 567 0 l 1
 567 331 l 1
 160 331 l 1
 160 0 l 1
 100 0 l 1
EndSplineSet
Validated: 1
EndChar

StartChar: I
Encoding: 73 73 7
GlifName: I_
Width: 259
Flags: HW
HStem: 0 21G<100 160> 680 20G<100 160>
VStem: 100 60<0 700>
LayerCount: 2
Fore
SplineSet
100 0 m 1
 100 700 l 1
 160 700 l 1
 160 0 l 1
 100 0 l 1
EndSplineSet
Validated: 1
EndChar

StartChar: J
Encoding: 74 74 8
GlifName: J_
Width: 402
Flags: HW
HStem: -11 60<65 200> 680 20G<253 313>
VStem: 253 60<102 700>
LayerCount: 2
Fore
SplineSet
253 700 m 1
 313 700 l 1
 313 169 l 2
 313 119 295 77 260 42 c 0
 225 7 183 -11 133 -11 c 0
 83 -11 41 7 6 42 c 1
 48 84 l 1
 71 61 100 49 133 49 c 0
 165 49 193 61 217 85 c 0
 241 109 253 137 253 169 c 2
 253 700 l 1
EndSplineSet
Validated: 1
EndChar

StartChar: K
Encoding: 75 75 9
GlifName: K_
Width: 587
Flags: HW
HStem: 0 21G<100 160 489 583> 680 20G<100 160 472 573>
VStem: 100 60<0 271 359 700>
LayerCount: 2
Fore
SplineSet
100 0 m 1
 100 700 l 1
 160 700 l 1
 160 359 l 1
 491 700 l 1
 573 700 l 1
 267 383 l 1
 583 0 l 1
 505 0 l 1
 226 339 l 1
 160 271 l 1
 160 0 l 1
 100 0 l 1
EndSplineSet
Validated: 1
EndChar

StartChar: L
Encoding: 76 76 10
GlifName: L_
Width: 512
Flags: HW
HStem: 0 60<160 503> 680 20G<100 160>
VStem: 100 60<60 700>
LayerCount: 2
Fore
SplineSet
100 0 m 1
 100 700 l 1
 160 700 l 1
 160 60 l 1
 503 60 l 1
 503 0 l 1
 100 0 l 1
EndSplineSet
Validated: 1
EndChar

StartChar: M
Encoding: 77 77 11
GlifName: M_
Width: 786
Flags: HW
HStem: 0 21G<12 77 710 775> 93 82<318 469> 680 20G<132 209 578 655>
VStem: 12 61<0 61> 714 61<0 61>
LayerCount: 2
Fore
SplineSet
136 700 m 1
 202 700 l 1
 394 175 l 1
 585 700 l 1
 651 700 l 1
 775 0 l 1
 714 0 l 1
 609 593 l 1
 428 93 l 1
 359 93 l 1
 178 593 l 1
 73 0 l 1
 12 0 l 1
 136 700 l 1
EndSplineSet
Validated: 1
EndChar

StartChar: N
Encoding: 78 78 12
GlifName: N_
Width: 733
Flags: HW
HStem: 0 21G<100 160 560 634> 680 20G<100 174 574 634>
VStem: 100 60<0 594> 574 60<106 700>
LayerCount: 2
Fore
SplineSet
100 700 m 1
 160 700 l 1
 574 106 l 1
 574 700 l 1
 634 700 l 1
 634 0 l 1
 574 0 l 1
 160 594 l 1
 160 0 l 1
 100 0 l 1
 100 700 l 1
EndSplineSet
Validated: 1
EndChar

StartChar: O
Encoding: 79 79 13
GlifName: O_
Width: 775
Flags: HW
HStem: -12 60<281 497> 652 60<279 496>
VStem: 50 60<230 470> 666 60<230 470>
LayerCount: 2
Fore
SplineSet
388 652 m 0
 307 652 240 623 188 564 c 0
 136 505 110 434 110 350 c 0
 110 266 136 195 188 136 c 0
 240 77 307 48 388 48 c 0
 469 48 535 77 587 136 c 0
 639 195 666 266 666 350 c 0
 666 434 639 505 587 564 c 0
 535 623 469 652 388 652 c 0
388 712 m 0
 487 712 568 677 631 607 c 0
 694 537 726 452 726 350 c 0
 726 248 694 163 631 93 c 0
 568 23 487 -12 388 -12 c 0
 289 -12 208 23 145 93 c 0
 82 163 50 248 50 350 c 0
 50 452 82 537 145 607 c 0
 208 677 289 712 388 712 c 0
EndSplineSet
Validated: 1
EndChar

StartChar: P
Encoding: 80 80 14
GlifName: P_
Width: 567
Flags: HW
HStem: 0 21G<100 160> 266 60<160 399> 640 60<160 399>
VStem: 100 60<0 266 326 640> 478 60<404 562>
LayerCount: 2
Fore
SplineSet
160 640 m 1
 160 326 l 1
 321 326 l 2
 363 326 401 342 432 373 c 0
 463 404 478 441 478 483 c 0
 478 525 463 562 432 593 c 0
 401 624 363 640 321 640 c 2
 160 640 l 1
100 700 m 1
 321 700 l 2
 381 700 433 679 475 637 c 0
 517 595 538 543 538 483 c 0
 538 423 517 372 475 330 c 0
 433 288 381 266 321 266 c 2
 160 266 l 1
 160 0 l 1
 100 0 l 1
 100 700 l 1
EndSplineSet
Validated: 1
EndChar

StartChar: Q
Encoding: 81 81 15
GlifName: Q_
Width: 775
Flags: HW
HStem: -12 60<281 497> -12 21G<664 704> 652 60<279 496>
VStem: 50 60<230 470> 666 60<229 470>
LayerCount: 2
Fore
SplineSet
388 652 m 0xb8
 307 652 240 623 188 564 c 0
 136 505 110 434 110 350 c 0
 110 266 136 195 188 136 c 0
 240 77 307 48 388 48 c 0
 456 48 514 68 562 110 c 1
 485 186 l 1
 528 229 l 1
 603 154 l 1
 645 209 666 274 666 350 c 0
 666 434 639 505 587 564 c 0
 535 623 469 652 388 652 c 0xb8
388 712 m 0
 487 712 568 677 631 607 c 0
 694 537 726 452 726 350 c 0
 726 257 699 176 646 110 c 1
 726 30 l 1
 684 -12 l 1x78
 604 67 l 1
 545 14 473 -12 388 -12 c 0
 289 -12 208 23 145 93 c 0
 82 163 50 248 50 350 c 0
 50 452 82 537 145 607 c 0
 208 677 289 712 388 712 c 0
EndSplineSet
Validated: 1
EndChar

StartChar: R
Encoding: 82 82 16
GlifName: R_
Width: 587
Flags: HW
HStem: 0 21G<100 160 462 538> 300 60<160 332> 640 60<160 412>
VStem: 100 60<0 300 360 640> 478 60<426 574>
LayerCount: 2
Fore
SplineSet
160 640 m 1
 160 360 l 1
 338 360 l 2
 376 360 409 373 437 401 c 0
 465 429 478 462 478 500 c 0
 478 538 465 571 437 599 c 0
 409 627 376 640 338 640 c 2
 160 640 l 1
100 700 m 1
 338 700 l 2
 393 700 440 681 479 642 c 0
 518 603 538 555 538 500 c 0
 538 456 525 415 498 380 c 0
 471 345 436 321 394 309 c 1
 538 0 l 1
 472 0 l 1
 332 300 l 1
 160 300 l 1
 160 0 l 1
 100 0 l 1
 100 700 l 1
EndSplineSet
Validated: 1
EndChar

StartChar: S
Encoding: 83 83 17
GlifName: S_
Width: 538
Flags: HW
HStem: -12 60<178 348> 652 60<178 349>
VStem: 62 60<467 599> 424 60<122 271>
LayerCount: 2
Fore
SplineSet
263 712 m 0
 310 712 350 701 383 680 c 0
 416 659 440 630 453 593 c 1
 396 572 l 1
 387 597 372 617 349 631 c 0
 326 645 298 652 263 652 c 0
 221 652 187 641 161 618 c 0
 135 595 122 566 122 531 c 0
 122 503 131 478 150 459 c 0
 173 435 211 419 263 410 c 0
 327 399 380 375 422 338 c 0
 464 301 484 255 484 199 c 0
 484 140 462 90 420 49 c 0
 378 8 325 -12 263 -12 c 0
 214 -12 171 1 134 26 c 0
 97 51 70 85 55 127 c 1
 112 147 l 1
 123 117 141 93 168 75 c 0
 195 57 227 48 263 48 c 0
 309 48 347 63 378 92 c 0
 409 121 424 157 424 199 c 0
 424 239 408 272 378 298 c 0
 348 324 310 342 263 350 c 0
 203 361 155 381 118 410 c 0
 81 439 62 480 62 531 c 0
 62 582 81 625 119 660 c 0
 157 695 204 712 263 712 c 0
EndSplineSet
Validated: 1
EndChar

StartChar: T
Encoding: 84 84 18
GlifName: T_
Width: 539
Flags: HW
HStem: 0 21G<240 300> 640 60<10 240 300 530>
VStem: 240 60<0 640>
LayerCount: 2
Fore
SplineSet
10 700 m 1
 530 700 l 1
 530 640 l 1
 300 640 l 1
 300 0 l 1
 240 0 l 1
 240 640 l 1
 10 640 l 1
 10 700 l 1
EndSplineSet
Validated: 1
EndChar

StartChar: U
Encoding: 85 85 19
GlifName: U_
Width: 708
Flags: HW
HStem: -12 60<265 444> 680 20G<90 150 559 619>
VStem: 90 60<170 700> 559 60<170 700>
LayerCount: 2
Fore
SplineSet
90 700 m 1
 150 700 l 1
 150 283 l 2
 150 213 169 156 209 113 c 0
 249 70 296 48 354 48 c 0
 412 48 460 70 500 113 c 0
 540 156 559 213 559 283 c 2
 559 700 l 1
 619 700 l 1
 619 283 l 2
 619 195 593 123 543 69 c 0
 493 15 430 -12 354 -12 c 0
 278 -12 216 15 166 69 c 0
 116 123 90 195 90 283 c 2
 90 700 l 1
EndSplineSet
Validated: 1
EndChar

StartChar: V
Encoding: 86 86 20
GlifName: V_
Width: 616
Flags: HW
HStem: 0 21G<269 347> 680 20G<10 82 532 604>
LayerCount: 2
Fore
SplineSet
10 700 m 1
 74 700 l 1
 308 84 l 1
 540 700 l 1
 604 700 l 1
 339 0 l 1
 276 0 l 1
 10 700 l 1
EndSplineSet
Validated: 1
EndChar

StartChar: W
Encoding: 87 87 21
GlifName: W_
Width: 911
Flags: HW
HStem: 0 21G<211 287 625 701> 680 20G<10 80 417 494 832 902>
VStem: 10 64<636 700> 837 64<636 700>
LayerCount: 2
Fore
SplineSet
837 700 m 1
 902 700 l 1
 695 0 l 1
 632 0 l 1
 456 591 l 1
 281 0 l 1
 218 0 l 1
 10 700 l 1
 74 700 l 1
 249 107 l 1
 424 700 l 1
 488 700 l 1
 663 107 l 1
 837 700 l 1
EndSplineSet
Validated: 1
EndChar

StartChar: X
Encoding: 88 88 22
GlifName: X_
Width: 542
Flags: HW
HStem: 0 21G<11 95 449 533> 294 111<216 327> 680 20G<11 95 449 533>
VStem: 236 71<314 386>
LayerCount: 2
Fore
SplineSet
461 700 m 1
 533 700 l 1
 308 350 l 1
 533 0 l 1
 461 0 l 1
 272 294 l 1
 82 0 l 1
 11 0 l 1
 236 350 l 1
 11 700 l 1
 82 700 l 1
 272 405 l 1
 461 700 l 1
EndSplineSet
Validated: 1
EndChar

StartChar: Y
Encoding: 89 89 23
GlifName: Y_
Width: 525
Flags: HW
HStem: 0 21G<233 293> 680 20G<10 93 433 516>
VStem: 233 60<0 321>
LayerCount: 2
Fore
SplineSet
10 700 m 1
 81 700 l 1
 263 390 l 1
 445 700 l 1
 516 700 l 1
 293 321 l 5
 293 0 l 1
 233 0 l 1
 233 321 l 1
 10 700 l 1
EndSplineSet
Validated: 1
EndChar

StartChar: Z
Encoding: 90 90 24
GlifName: Z_
Width: 602
Flags: HW
HStem: 0 60<125 550> 640 60<53 478>
LayerCount: 2
Fore
SplineSet
50 0 m 1
 50 60 l 1
 478 640 l 1
 53 640 l 1
 53 700 l 1
 553 700 l 1
 553 640 l 1
 125 60 l 1
 550 60 l 1
 550 0 l 1
 50 0 l 1
EndSplineSet
Validated: 1
EndChar

StartChar: F
Encoding: 70 70 25
GlifName: F_
Width: 538
Flags: HW
HStem: 0 21G<100 160> 318 60<160 444> 640 60<160 503>
VStem: 100 60<0 318 378 640>
LayerCount: 2
Fore
SplineSet
100 0 m 1
 100 700 l 1
 503 700 l 1
 503 640 l 1
 160 640 l 1
 160 378 l 1
 444 378 l 1
 444 318 l 1
 160 318 l 1
 160 0 l 1
 100 0 l 1
EndSplineSet
Validated: 1
EndChar

StartChar: a
Encoding: 97 97 26
GlifName: a
Width: 602
Flags: HW
HStem: -12 61<201 377> 0 21G<468 528> 452 61<201 377> 480 20G<468 528>
VStem: 45 60<152 348> 468 60<0 85 147 353 415 500>
LayerCount: 2
Fore
SplineSet
468 500 m 1x1c
 528 500 l 1
 528 0 l 1
 468 0 l 1x5c
 468 85 l 1
 463 77 458 69 452 62 c 0
 413 13 360 -12 290 -12 c 0
 219 -12 160 13 114 64 c 0
 68 115 45 177 45 250 c 0
 45 323 68 385 114 436 c 0
 160 487 219 512 290 512 c 0xac
 360 512 413 487 452 438 c 0
 458 431 463 423 468 415 c 1
 468 500 l 1x1c
290 452 m 0xac
 235 452 190 433 156 394 c 0
 122 355 105 307 105 250 c 0
 105 193 122 145 156 106 c 0
 190 67 235 48 290 48 c 0
 344 48 387 67 419 106 c 0
 451 145 468 192 468 250 c 0
 468 308 451 355 419 394 c 0
 387 433 344 452 290 452 c 0xac
EndSplineSet
Validated: 1
EndChar

StartChar: b
Encoding: 98 98 27
GlifName: b
Width: 602
Flags: HW
HStem: -12 61<226 402> 0 21G<75 135> 452 61<226 402> 680 20G<75 135>
VStem: 75 60<0 85 147 353 415 700> 498 60<151 349>
LayerCount: 2
Fore
SplineSet
313 452 m 0xbc
 259 452 216 433 184 394 c 0
 152 355 135 308 135 250 c 0
 135 192 152 145 184 106 c 0
 216 67 259 48 313 48 c 0
 368 48 413 67 447 106 c 0
 481 145 498 193 498 250 c 0
 498 307 481 355 447 394 c 0
 413 433 368 452 313 452 c 0xbc
313 512 m 0
 384 512 443 487 489 436 c 0
 535 385 558 324 558 250 c 0
 558 176 535 115 489 64 c 0
 443 13 384 -12 313 -12 c 0xbc
 243 -12 190 13 151 62 c 0
 145 69 140 77 135 85 c 1
 135 0 l 1
 75 0 l 1x7c
 75 700 l 1
 135 700 l 1
 135 415 l 1
 140 423 145 431 151 438 c 0
 190 487 243 512 313 512 c 0
EndSplineSet
Validated: 1
EndChar

StartChar: c
Encoding: 99 99 28
GlifName: c
Width: 498
Flags: HW
HStem: -12 61<201 377> 452 61<201 377>
VStem: 45 60<152 348>
LayerCount: 2
Fore
SplineSet
290 512 m 0
 360 512 418 487 464 437 c 1
 423 393 l 1
 388 432 344 452 290 452 c 0
 235 452 190 433 156 394 c 0
 122 355 105 307 105 250 c 0
 105 193 122 145 156 106 c 0
 190 67 235 48 290 48 c 0
 344 48 388 68 423 107 c 1
 464 63 l 1
 418 13 360 -12 290 -12 c 0
 219 -12 160 13 114 64 c 0
 68 115 45 177 45 250 c 0
 45 323 68 385 114 436 c 0
 160 487 219 512 290 512 c 0
EndSplineSet
Validated: 1
EndChar

StartChar: d
Encoding: 100 100 29
GlifName: d
Width: 602
Flags: HW
HStem: -12 61<201 377> 452 61<201 377>
VStem: 45 60<151 349> 468 60<147 353>
LayerCount: 2
Fore
SplineSet
290 452 m 0
 344 452 387 433 419 394 c 0
 451 355 468 308 468 250 c 0
 468 192 451 145 419 106 c 0
 387 67 344 48 290 48 c 0
 235 48 190 67 156 106 c 0
 122 145 105 193 105 250 c 0
 105 307 122 355 156 394 c 0
 190 433 235 452 290 452 c 0
290 512 m 0
 219 512 160 487 114 436 c 0
 68 385 45 324 45 250 c 0
 45 176 68 115 114 64 c 0
 160 13 219 -12 290 -12 c 0
 360 -12 413 13 452 62 c 0
 458 69 463 77 468 85 c 1
 468 0 l 1
 528 0 l 1
 528 700 l 1
 468 700 l 1
 468 415 l 1
 463 423 458 431 452 438 c 0
 413 487 360 512 290 512 c 0
EndSplineSet
Validated: 9
EndChar

StartChar: e
Encoding: 101 101 30
GlifName: e
Width: 548
Flags: HW
HStem: -12 61<201 400> 220 61<107 453> 452 61<201 373>
VStem: 45 62<148 220 280 352>
CounterMasks: 1 e0
LayerCount: 2
Fore
SplineSet
514 220 m 1
 107 220 l 1
 113 170 133 129 166 97 c 0
 199 65 241 48 290 48 c 0
 360 48 414 68 453 107 c 1
 494 63 l 1
 444 13 376 -12 290 -12 c 0
 219 -12 160 13 114 64 c 0
 68 115 45 177 45 250 c 0
 45 323 68 385 114 436 c 0
 160 487 219 512 290 512 c 0
 360 512 414 488 454 438 c 0
 494 388 514 325 514 250 c 2
 514 220 l 1
290 452 m 0
 241 452 199 435 166 403 c 0
 133 371 113 330 107 280 c 1
 453 280 l 1
 448 331 432 372 404 404 c 0
 376 436 338 452 290 452 c 0
EndSplineSet
Validated: 1
EndChar

StartChar: f
Encoding: 102 102 31
GlifName: f
Width: 338
Flags: HW
HStem: 0 21G<125 185> 441 59<30 125 185 334> 652 60<222 334>
VStem: 125 60<0 441 500 615>
LayerCount: 2
Fore
SplineSet
282 712 m 2
 334 712 l 1
 334 652 l 1
 282 652 l 2
 255 652 232 643 213 624 c 0
 194 605 185 582 185 555 c 2
 185 500 l 1
 334 500 l 1
 334 441 l 1
 185 441 l 1
 185 0 l 1
 125 0 l 1
 125 441 l 1
 30 441 l 1
 30 500 l 1
 125 500 l 1
 125 555 l 2
 125 598 140 635 171 666 c 0
 202 697 239 712 282 712 c 2
EndSplineSet
Validated: 1
EndChar

StartChar: g
Encoding: 103 103 32
GlifName: g
Width: 602
Flags: HW
HStem: -212 55<172 378> -12 61<201 377> 452 61<201 377> 480 20G<468 528>
VStem: 45 60<152 348> 468 60<-57 85 147 353 415 500>
LayerCount: 2
Fore
SplineSet
290 512 m 0xec
 360 512 413 487 452 438 c 0
 458 431 463 423 468 415 c 1
 468 500 l 1
 528 500 l 1xdc
 528 46 l 2
 528 -29 506 -92 461 -140 c 0
 416 -188 358 -212 287 -212 c 0
 222 -212 161 -195 104 -162 c 1
 129 -114 l 1
 173 -143 226 -157 287 -157 c 0
 346 -157 390 -138 421 -98 c 0
 452 -58 468 -11 468 46 c 0
 468 62 468 69 468 85 c 1
 463 77 458 69 452 62 c 0
 413 13 360 -12 290 -12 c 0
 219 -12 160 13 114 64 c 0
 68 115 45 177 45 250 c 0
 45 323 68 385 114 436 c 0
 160 487 219 512 290 512 c 0xec
290 452 m 0xec
 235 452 190 433 156 394 c 0
 122 355 105 307 105 250 c 0
 105 193 122 145 156 106 c 0
 190 67 235 48 290 48 c 0
 344 48 387 67 419 106 c 0
 451 145 468 192 468 250 c 0
 468 308 451 355 419 394 c 0
 387 433 344 452 290 452 c 0xec
EndSplineSet
Validated: 1
EndChar

StartChar: h
Encoding: 104 104 33
GlifName: h
Width: 553
Flags: HW
HStem: 0 21G<75 135 434 494> 452 60<210 359> 680 20G<75 135>
VStem: 75 60<0 372 432 700> 434 60<0 370>
LayerCount: 2
Fore
SplineSet
494 0 m 1
 434 0 l 1
 434 268 l 2
 434 325 420 369 392 402 c 0
 364 435 328 452 285 452 c 0
 242 452 206 435 178 402 c 0
 150 369 135 325 135 268 c 2
 135 0 l 5
 75 0 l 5
 75 700 l 1
 135 700 l 1
 135 432 l 1
 138 437 142 442 145 446 c 0
 180 490 227 512 285 512 c 0
 345 512 394 489 434 445 c 0
 474 401 494 341 494 268 c 2
 494 0 l 1
EndSplineSet
Validated: 1
EndChar

StartChar: i
Encoding: 105 105 34
GlifName: i
Width: 219
Flags: HW
HStem: 0 21G<79 139> 480 20G<79 139> 630 80<82 138>
VStem: 70 80<642 698> 79 60<0 500>
LayerCount: 2
Fore
SplineSet
79 0 m 1xe8
 79 500 l 1
 139 500 l 1
 139 0 l 1
 79 0 l 1xe8
150 670 m 0xf0
 150 659 147 650 139 642 c 0
 131 634 121 630 110 630 c 0
 99 630 90 634 82 642 c 0
 74 650 70 659 70 670 c 0
 70 681 74 691 82 699 c 0
 90 707 99 710 110 710 c 0
 121 710 131 707 139 699 c 0
 147 691 150 681 150 670 c 0xf0
EndSplineSet
Validated: 1
EndChar

StartChar: j
Encoding: 106 106 35
GlifName: j
Width: 237
Flags: HW
HStem: -215 60<-50 27> 480 20G<98 158> 632 80<100 156>
VStem: 88 80<644 700> 98 60<-84 500>
LayerCount: 2
Fore
SplineSet
98 500 m 5xe8
 158 500 l 5
 158 -7 l 6
 158 -64 138 -113 97 -154 c 4
 56 -195 7 -215 -50 -215 c 5
 -50 -155 l 5
 -9 -155 26 -140 55 -111 c 4
 84 -82 98 -48 98 -7 c 6
 98 500 l 5xe8
168 672 m 4xf0
 168 661 165 652 157 644 c 4
 149 636 139 632 128 632 c 4
 117 632 108 636 100 644 c 4
 92 652 88 661 88 672 c 4
 88 683 92 693 100 701 c 4
 108 709 117 712 128 712 c 4
 139 712 149 709 157 701 c 4
 165 693 168 683 168 672 c 4xf0
EndSplineSet
Validated: 1
EndChar

StartChar: k
Encoding: 107 107 36
GlifName: k
Width: 464
Flags: HW
HStem: 0 21G<75 135 378 465> 480 20G<346 447> 680 20G<75 135>
VStem: 75 60<0 175 261 700>
LayerCount: 2
Fore
SplineSet
75 0 m 1
 75 700 l 1
 135 700 l 1
 135 261 l 1
 365 500 l 1
 447 500 l 1
 258 303 l 1
 465 0 l 1
 392 0 l 1
 216 259 l 1
 135 175 l 1
 135 0 l 1
 75 0 l 1
EndSplineSet
Validated: 1
EndChar

StartChar: l
Encoding: 108 108 37
GlifName: l
Width: 209
Flags: HW
HStem: 0 21G<75 135> 680 20G<75 135>
VStem: 75 60<0 700>
LayerCount: 2
Fore
SplineSet
75 700 m 5
 135 700 l 1
 135 0 l 1
 75 0 l 1
 75 700 l 5
EndSplineSet
Validated: 1
EndChar

StartChar: m
Encoding: 109 109 38
GlifName: m
Width: 872
Flags: HW
HStem: 0 21G<75 135 414 474 753 813> 452 60<203 346 542 685> 480 20G<75 135>
VStem: 75 60<0 376 437 500> 414 60<0 376> 753 60<0 376>
CounterMasks: 1 1c
LayerCount: 2
Fore
SplineSet
813 0 m 1xdc
 753 0 l 1
 753 268 l 2
 753 325 740 370 714 403 c 0
 688 436 654 452 613 452 c 0
 572 452 539 436 513 403 c 0
 487 370 474 325 474 268 c 2
 474 0 l 1
 414 0 l 1
 414 268 l 2
 414 325 401 370 375 403 c 0
 349 436 315 452 274 452 c 0xdc
 233 452 200 436 174 403 c 0
 148 370 135 325 135 268 c 2
 135 0 l 1
 75 0 l 1
 75 500 l 1
 135 500 l 1xbc
 135 437 l 1
 137 440 140 443 142 446 c 0
 174 489 218 512 274 512 c 0
 332 512 379 489 417 445 c 0
 431 429 442 411 451 391 c 1
 458 412 468 430 480 446 c 0
 512 489 557 512 613 512 c 0
 671 512 718 489 756 445 c 0
 794 401 813 342 813 268 c 2
 813 0 l 1xdc
EndSplineSet
Validated: 1
EndChar

StartChar: n
Encoding: 110 110 39
GlifName: n
Width: 553
Flags: HW
HStem: 0 21G<75 135 434 494> 452 60<210 359> 480 20G<75 135>
VStem: 75 60<0 372 432 500> 434 60<0 370>
LayerCount: 2
Fore
SplineSet
494 0 m 1xd8
 434 0 l 1
 434 268 l 2
 434 325 420 369 392 402 c 0
 364 435 328 452 285 452 c 0xd8
 242 452 206 435 178 402 c 0
 150 369 135 325 135 268 c 2
 135 0 l 5
 75 0 l 5
 75 500 l 1
 135 500 l 1xb8
 135 432 l 1
 138 437 142 442 145 446 c 0
 180 490 227 512 285 512 c 0
 345 512 394 489 434 445 c 0
 474 401 494 341 494 268 c 2
 494 0 l 1xd8
EndSplineSet
Validated: 1
EndChar

StartChar: o
Encoding: 111 111 40
GlifName: o
Width: 578
Flags: HW
HStem: -12 61<201 378> 452 61<201 378>
VStem: 45 60<152 348> 474 60<152 348>
LayerCount: 2
Fore
SplineSet
290 452 m 0
 235 452 190 433 156 394 c 0
 122 355 105 307 105 250 c 0
 105 193 122 145 156 106 c 0
 190 67 235 48 290 48 c 0
 345 48 389 67 423 106 c 0
 457 145 474 193 474 250 c 0
 474 307 457 355 423 394 c 0
 389 433 345 452 290 452 c 0
290 512 m 0
 361 512 419 487 465 436 c 0
 511 385 534 323 534 250 c 0
 534 177 511 115 465 64 c 0
 419 13 361 -12 290 -12 c 0
 219 -12 160 13 114 64 c 0
 68 115 45 177 45 250 c 0
 45 323 68 385 114 436 c 0
 160 487 219 512 290 512 c 0
EndSplineSet
Validated: 1
EndChar

StartChar: p
Encoding: 112 112 41
GlifName: p
Width: 607
Flags: HW
HStem: -12 61<231 407> 452 61<231 407>
VStem: 80 60<147 353> 503 60<151 349>
LayerCount: 2
Fore
SplineSet
140 500 m 1
 80 500 l 1
 80 -200 l 1
 140 -200 l 1
 140 85 l 1
 145 77 150 69 156 62 c 0
 195 13 248 -12 318 -12 c 0
 389 -12 448 13 494 64 c 0
 540 115 563 176 563 250 c 0
 563 324 540 385 494 436 c 0
 448 487 389 512 318 512 c 0
 248 512 195 487 156 438 c 0
 150 431 145 423 140 415 c 1
 140 500 l 1
318 48 m 0
 264 48 220 67 188 106 c 0
 156 145 140 192 140 250 c 0
 140 308 156 355 188 394 c 0
 220 433 264 452 318 452 c 0
 373 452 418 433 452 394 c 0
 486 355 503 307 503 250 c 0
 503 193 486 145 452 106 c 0
 418 67 373 48 318 48 c 0
EndSplineSet
Validated: 9
EndChar

StartChar: q
Encoding: 113 113 42
GlifName: q
Width: 592
Flags: HW
HStem: -12 61<201 377> 452 61<201 377> 480 20G<468 528>
VStem: 45 60<151 349> 468 60<-200 85 147 353 415 500>
LayerCount: 2
Fore
SplineSet
468 500 m 1xb8
 528 500 l 1xb8
 528 -200 l 1
 468 -200 l 1
 468 85 l 1
 463 77 458 69 452 62 c 0
 413 13 360 -12 290 -12 c 0
 219 -12 160 13 114 64 c 0
 68 115 45 176 45 250 c 0
 45 324 68 385 114 436 c 0
 160 487 219 512 290 512 c 0xd8
 360 512 413 487 452 438 c 0
 458 431 463 423 468 415 c 1
 468 500 l 1xb8
290 48 m 0
 344 48 387 67 419 106 c 0
 451 145 468 192 468 250 c 0
 468 308 451 355 419 394 c 0
 387 433 344 452 290 452 c 0xd8
 235 452 190 433 156 394 c 0
 122 355 105 307 105 250 c 0
 105 193 122 145 156 106 c 0
 190 67 235 48 290 48 c 0
EndSplineSet
Validated: 1
EndChar

StartChar: r
Encoding: 114 114 43
GlifName: r
Width: 321
Flags: HW
HStem: 0 21G<75 135> 452 60<227 312> 480 20G<75 135>
VStem: 75 60<0 360 424 500>
LayerCount: 2
Fore
SplineSet
75 500 m 1xb0
 135 500 l 1xb0
 135 424 l 1
 140 430 145 437 151 443 c 0
 169 462 189 477 210 488 c 0
 240 504 274 512 312 512 c 1
 312 452 l 1xd0
 263 452 222 435 187 400 c 0
 152 365 135 324 135 275 c 2
 135 0 l 1
 75 0 l 1
 75 500 l 1xb0
EndSplineSet
Validated: 1
EndChar

StartChar: s
Encoding: 115 115 44
GlifName: s
Width: 429
Flags: HW
HStem: -12 60<134 284> 452 60<150 284>
VStem: 65 60<333 427> 325 60<87 194>
LayerCount: 2
Fore
SplineSet
361 422 m 1
 304 402 l 1
 299 417 288 429 272 438 c 0
 256 447 237 452 215 452 c 0
 188 452 165 445 149 430 c 0
 133 415 125 397 125 376 c 0
 125 352 141 332 173 316 c 0
 188 309 206 303 227 297 c 0
 281 282 321 262 347 236 c 0
 372 211 385 180 385 144 c 0
 385 101 368 64 334 34 c 0
 300 4 259 -12 209 -12 c 0
 170 -12 137 -3 109 16 c 0
 81 35 60 60 45 91 c 1
 101 111 l 1
 121 69 156 48 209 48 c 0
 242 48 270 57 292 76 c 0
 314 95 325 117 325 144 c 0
 325 172 309 195 276 214 c 0
 259 224 237 232 211 239 c 0
 169 250 134 268 106 290 c 0
 78 312 65 341 65 376 c 0
 65 414 79 447 107 473 c 0
 135 499 171 512 215 512 c 0
 250 512 281 504 307 488 c 0
 333 472 351 449 361 422 c 1
EndSplineSet
Validated: 1
EndChar

StartChar: t
Encoding: 116 116 45
GlifName: t
Width: 358
Flags: HW
HStem: 0 60<234 328> 441 59<20 109 169 329>
VStem: 109 60<125 441 500 656>
LayerCount: 2
Fore
SplineSet
109 656 m 1
 169 656 l 1
 169 500 l 1
 329 500 l 1
 329 441 l 1
 169 441 l 1
 169 199 l 2
 169 160 182 128 209 101 c 0
 236 74 269 60 308 60 c 2
 328 60 l 1
 328 0 l 1
 308 0 l 2
 253 0 206 20 167 59 c 0
 128 98 109 144 109 199 c 2
 109 441 l 1
 20 441 l 1
 20 500 l 1
 109 500 l 1
 109 656 l 1
EndSplineSet
Validated: 1
EndChar

StartChar: u
Encoding: 117 117 46
GlifName: u
Width: 538
Flags: HW
HStem: -12 60<194 345> 480 20G<60 120 419 479>
VStem: 60 60<130 500> 419 60<130 500>
LayerCount: 2
Fore
SplineSet
60 500 m 1
 120 500 l 1
 120 232 l 2
 120 175 135 131 163 98 c 0
 191 65 227 48 270 48 c 0
 313 48 348 65 376 98 c 0
 404 131 419 175 419 232 c 2
 419 500 l 1
 479 500 l 1
 479 232 l 2
 479 159 459 99 419 55 c 0
 379 11 330 -12 270 -12 c 0
 210 -12 160 11 120 55 c 0
 80 99 60 159 60 232 c 2
 60 500 l 1
EndSplineSet
Validated: 1
EndChar

StartChar: v
Encoding: 118 118 47
GlifName: v
Width: 487
Flags: HW
HStem: 0 80<172 316> 480 20G<10 83 405 478>
LayerCount: 2
Fore
SplineSet
10 500 m 1
 75 500 l 1
 244 80 l 1
 413 500 l 1
 478 500 l 1
 276 0 l 1
 212 0 l 1
 10 500 l 1
EndSplineSet
Validated: 1
EndChar

StartChar: w
Encoding: 119 119 48
GlifName: w
Width: 760
Flags: HW
HStem: 0 21G<164 239 502 578> 480 20G<10 80 342 418 681 751>
VStem: 10 63<437 500>
LayerCount: 2
Fore
SplineSet
688 500 m 1
 751 500 l 1
 571 0 l 1
 509 0 l 1
 378 407 l 1
 232 0 l 1
 170 0 l 1
 10 500 l 1
 73 500 l 1
 203 92 l 1
 349 500 l 1
 412 500 l 1
 542 92 l 1
 688 500 l 1
EndSplineSet
Validated: 1
EndChar

StartChar: x
Encoding: 120 120 49
GlifName: x
Width: 434
Flags: HW
HStem: 0 21G<9 98 338 425> 480 20G<9 96 339 425>
LayerCount: 2
Fore
SplineSet
218 196 m 1
 84 0 l 1
 9 0 l 1
 181 250 l 1
 9 500 l 1
 82 500 l 1
 217 303 l 1
 353 500 l 1
 425 500 l 1
 254 250 l 1
 425 0 l 1
 352 0 l 1
 218 196 l 1
EndSplineSet
Validated: 1
EndChar

StartChar: y
Encoding: 121 121 50
GlifName: y
Width: 505
Flags: HW
HStem: -212 59<20 130> 480 20G<10 83 422 496>
LayerCount: 2
Fore
SplineSet
10 500 m 1
 75 500 l 1
 252 78 l 1
 431 500 l 1
 496 500 l 1
 251 -80 l 2
 234 -120 208 -152 171 -176 c 0
 134 -200 94 -212 50 -212 c 2
 20 -212 l 1
 20 -153 l 1
 50 -153 l 2
 82 -153 112 -144 138 -127 c 0
 164 -110 183 -87 196 -57 c 2
 220 0 l 1
 10 500 l 1
EndSplineSet
Validated: 1
EndChar

StartChar: z
Encoding: 122 122 51
GlifName: z
Width: 477
Flags: HW
HStem: 0 60<126 428> 440 60<50 352>
LayerCount: 2
Fore
SplineSet
50 0 m 1
 50 60 l 1
 352 440 l 1
 50 440 l 1
 50 500 l 1
 428 500 l 1
 428 440 l 1
 126 60 l 1
 428 60 l 1
 428 0 l 1
 50 0 l 1
EndSplineSet
Validated: 1
EndChar

StartChar: bracketleft
Encoding: 91 91 52
GlifName: bracketleft
Width: 315
Flags: HW
LayerCount: 2
Fore
SplineSet
165 800 m 6
 147 800 132 794 119 781 c 4
 106 768 100 753 100 735 c 6
 100 -35 l 6
 100 -53 106 -68 119 -81 c 4
 132 -94 147 -100 165 -100 c 6
 236 -100 l 5
 236 -40 l 5
 165 -40 l 6
 162 -40 160 -38 160 -35 c 6
 160 735 l 6
 160 738 162 740 165 740 c 6
 236 740 l 5
 236 800 l 5
 165 800 l 6
EndSplineSet
Validated: 9
EndChar

StartChar: backslash
Encoding: 92 92 53
GlifName: backslash
Width: 358
Flags: HW
LayerCount: 2
Fore
SplineSet
72 747 m 5
 15 727 l 5
 285 -84 l 5
 341 -64 l 5
 72 747 l 5
EndSplineSet
Validated: 9
EndChar

StartChar: bracketright
Encoding: 93 93 54
GlifName: bracketright
Width: 315
Flags: HW
HStem: -100 60<90 166> 740 60<90 166>
VStem: 166 60<-40 740>
LayerCount: 2
Fore
SplineSet
161 800 m 6
 179 800 194 794 207 781 c 4
 220 768 226 753 226 735 c 6
 226 -35 l 6
 226 -53 220 -68 207 -81 c 4
 194 -94 179 -100 161 -100 c 6
 90 -100 l 5
 90 -40 l 5
 161 -40 l 6
 164 -40 166 -38 166 -35 c 6
 166 735 l 6
 166 738 164 740 161 740 c 6
 90 740 l 5
 90 800 l 5
 161 800 l 6
EndSplineSet
Validated: 1
EndChar

StartChar: asciicircum
Encoding: 94 94 55
GlifName: asciicircum
Width: 541
Flags: HW
HStem: 373 327
LayerCount: 2
Fore
SplineSet
396 373 m 1
 236 700 l 1
 304 700 l 1
 462 373 l 1
 396 373 l 1
81 373 m 1
 236 700 l 1
 304 700 l 1
 145 373 l 1
 81 373 l 1
EndSplineSet
Validated: 5
EndChar

StartChar: underscore
Encoding: 95 95 56
GlifName: underscore
Width: 479
Flags: HW
HStem: -60 60<30 450>
LayerCount: 2
Fore
SplineSet
30 -60 m 1
 30 0 l 1
 450 0 l 1
 450 -60 l 1
 30 -60 l 1
EndSplineSet
Validated: 1
EndChar

StartChar: grave
Encoding: 96 96 57
GlifName: grave
Width: 204
Flags: HW
HStem: 574 127
VStem: 6 200
LayerCount: 2
Fore
SplineSet
130 574 m 1
 6 701 l 1
 95 701 l 1
 206 574 l 1
 130 574 l 1
EndSplineSet
Validated: 1
EndChar

StartChar: zero
Encoding: 48 48 58
GlifName: zero
Width: 635
Flags: HW
HStem: -12 60<233 403> 652 60<233 403>
VStem: 50 60<209 491> 526 60<209 491>
LayerCount: 2
Fore
SplineSet
318 652 m 0
 283 652 252 643 225 625 c 0
 198 607 175 584 159 555 c 0
 143 526 131 493 123 458 c 0
 115 423 110 388 110 350 c 0
 110 312 115 277 123 242 c 0
 131 207 143 174 159 145 c 0
 175 116 198 93 225 75 c 0
 252 57 283 48 318 48 c 0
 353 48 384 57 411 75 c 0
 438 93 461 116 477 145 c 0
 493 174 506 207 514 242 c 0
 522 277 526 312 526 350 c 0
 526 388 522 423 514 458 c 0
 506 493 493 526 477 555 c 0
 461 584 438 607 411 625 c 0
 384 643 353 652 318 652 c 0
318 712 m 0
 375 712 424 694 466 658 c 0
 508 622 539 577 558 524 c 0
 577 471 586 412 586 350 c 0
 586 288 577 229 558 176 c 0
 539 123 508 78 466 42 c 0
 424 6 375 -12 318 -12 c 0
 261 -12 211 6 169 42 c 0
 127 78 98 123 79 176 c 0
 60 229 50 288 50 350 c 0
 50 412 60 471 79 524 c 0
 98 577 127 622 169 658 c 0
 211 694 261 712 318 712 c 0
EndSplineSet
Validated: 1
EndChar

StartChar: one
Encoding: 49 49 59
GlifName: one
Width: 405
Flags: HW
HStem: 0 21G<226 286> 680 20G<202 286>
VStem: 226 60<0 622>
LayerCount: 2
Fore
SplineSet
226 700 m 1
 286 700 l 1
 286 0 l 1
 226 0 l 1
 226 622 l 1
 104 519 l 1
 65 565 l 1
 226 700 l 1
EndSplineSet
Validated: 1
EndChar

StartChar: two
Encoding: 50 50 60
GlifName: two
Width: 520
Flags: HW
HStem: 0 60<110 456> 652 60<162 321>
VStem: 39 58<557 589> 390 60<433 583>
LayerCount: 2
Fore
SplineSet
241 712 m 0
 299 712 348 692 389 651 c 0
 430 610 450 560 450 502 c 0
 450 454 426 404 379 351 c 2
 110 60 l 1
 456 60 l 1
 456 0 l 1
 30 0 l 1
 30 60 l 1
 334 388 l 2
 371 428 390 466 390 502 c 0
 390 545 376 581 348 609 c 0
 320 637 284 652 241 652 c 0
 206 652 175 643 149 623 c 0
 123 603 106 576 97 542 c 1
 39 559 l 1
 52 604 77 641 114 669 c 0
 151 697 194 712 241 712 c 0
EndSplineSet
Validated: 1
EndChar

StartChar: three
Encoding: 51 51 61
GlifName: three
Width: 541
Flags: HW
HStem: -12 60<178 354> 350 60<190 340> 652 60<181 344>
VStem: 400 60<465 599> 432 60<121 274>
LayerCount: 2
Fore
SplineSet
262 712 m 0xf0
 316 712 363 695 402 661 c 0
 441 627 460 584 460 532 c 0xf0
 460 507 453 482 440 460 c 0
 424 433 399 407 364 383 c 1
 401 363 432 337 456 305 c 0
 480 273 492 238 492 198 c 0
 492 138 469 88 425 48 c 0
 381 8 326 -12 264 -12 c 0
 223 -12 185 -2 149 17 c 0
 113 36 86 62 67 95 c 1
 118 126 l 1
 131 102 151 83 178 69 c 0
 205 55 233 48 264 48 c 0
 310 48 350 62 383 90 c 0
 416 118 432 154 432 198 c 0xe8
 432 242 415 278 381 307 c 0
 347 336 308 350 264 350 c 2
 190 350 l 1
 190 410 l 1
 264 410 l 2
 300 410 331 421 359 444 c 0
 387 467 400 497 400 532 c 0
 400 568 387 597 360 619 c 0
 333 641 300 652 262 652 c 0
 235 652 210 646 186 633 c 0
 162 620 145 603 135 582 c 1
 83 612 l 1
 98 642 122 667 155 685 c 0
 188 703 224 712 262 712 c 0xf0
EndSplineSet
Validated: 1
EndChar

StartChar: four
Encoding: 52 52 62
GlifName: four
Width: 575
Flags: HW
HStem: 0 21G<352 412> 182 60<116 352 412 546> 681 20G<255 308>
VStem: 352 60<0 182 242 440>
LayerCount: 2
Fore
SplineSet
265 701 m 1
 319 676 l 1
 116 242 l 1
 352 242 l 1
 352 440 l 1
 412 440 l 1
 412 242 l 1
 546 242 l 1
 546 182 l 1
 412 182 l 1
 412 0 l 1
 352 0 l 1
 352 182 l 1
 50 182 l 1
 50 242 l 1
 265 701 l 1
EndSplineSet
Validated: 1
EndChar

StartChar: five
Encoding: 53 53 63
GlifName: five
Width: 533
Flags: HW
HStem: -12 60<176 343> 382 60<168 341> 640 60<168 446>
VStem: 108 60<442 640> 424 60<129 297>
LayerCount: 2
Fore
SplineSet
108 700 m 1
 446 700 l 1
 446 640 l 1
 168 640 l 1
 168 442 l 1
 264 442 l 2
 325 441 376 418 419 373 c 0
 462 328 484 275 484 213 c 0
 484 151 462 98 418 54 c 0
 374 10 321 -12 259 -12 c 0
 219 -12 182 -2 148 18 c 0
 114 38 86 63 64 95 c 1
 110 133 l 1
 147 76 197 48 259 48 c 0
 306 48 344 64 376 96 c 0
 408 128 424 166 424 213 c 0
 424 259 409 298 378 331 c 0
 347 364 309 381 264 382 c 2
 108 382 l 1
 108 700 l 1
EndSplineSet
Validated: 1
EndChar

StartChar: six
Encoding: 54 54 64
GlifName: six
Width: 536
Flags: HW
HStem: -12 60<194 361> 387 60<208 361> 692 20G<287 367>
VStem: 48 60<134 302> 447 60<134 301>
LayerCount: 2
Fore
SplineSet
277 387 m 0
 230 387 190 371 157 338 c 0
 124 305 108 264 108 217 c 0
 108 170 124 130 157 97 c 0
 190 64 230 48 277 48 c 0
 324 48 365 64 398 97 c 0
 431 130 447 170 447 217 c 0
 447 264 431 305 398 338 c 0
 365 371 324 387 277 387 c 0
298 712 m 1
 367 712 l 1
 207 435 l 1
 230 443 254 447 277 447 c 0
 340 447 395 425 440 380 c 0
 485 335 507 280 507 217 c 0
 507 154 485 100 440 55 c 0
 395 10 340 -12 277 -12 c 0
 214 -12 160 10 115 55 c 0
 70 100 48 154 48 217 c 0
 48 258 58 296 78 331 c 2
 298 712 l 1
EndSplineSet
Validated: 1
EndChar

StartChar: seven
Encoding: 55 55 65
GlifName: seven
Width: 529
Flags: HW
HStem: 0 21G<79 159> 640 60<45 432>
LayerCount: 2
Fore
SplineSet
45 640 m 1
 45 700 l 1
 500 700 l 1
 500 640 l 1
 148 0 l 1
 79 0 l 1
 432 640 l 1
 45 640 l 1
EndSplineSet
Validated: 1
EndChar

StartChar: eight
Encoding: 56 56 66
GlifName: eight
Width: 567
Flags: HW
HStem: -12 60<199 369> 349 60<208 359> 652 60<207 361>
VStem: 60 60<123 274> 89 60<465 598> 418 60<465 598> 448 60<123 274>
LayerCount: 2
Fore
SplineSet
284 349 m 0xf2
 241 349 202 334 169 306 c 0
 136 278 120 241 120 198 c 0
 120 155 136 118 169 90 c 0
 202 62 241 48 284 48 c 0
 327 48 366 62 399 90 c 0
 432 118 448 155 448 198 c 0
 448 241 432 278 399 306 c 0
 366 334 327 349 284 349 c 0xf2
284 652 m 0
 248 652 217 640 190 618 c 0
 163 596 149 567 149 532 c 0
 149 497 163 467 190 444 c 0
 217 421 249 409 284 409 c 0
 319 409 351 421 378 444 c 0
 405 467 418 497 418 532 c 0xec
 418 567 405 596 378 618 c 0
 351 640 320 652 284 652 c 0
284 712 m 0
 336 712 381 695 420 660 c 0
 459 625 479 583 479 532 c 0xec
 479 481 459 438 420 403 c 0
 411 395 402 387 392 381 c 1
 410 372 425 361 441 347 c 0
 486 307 508 258 508 198 c 0
 508 138 486 88 441 48 c 0
 396 8 344 -12 284 -12 c 0
 224 -12 172 8 127 48 c 0
 82 88 60 138 60 198 c 0xf2
 60 258 82 307 127 347 c 0
 143 361 159 372 177 381 c 1
 167 387 157 395 148 403 c 0
 109 438 89 481 89 532 c 0
 89 583 109 625 148 660 c 0
 187 695 232 712 284 712 c 0
EndSplineSet
Validated: 1
EndChar

StartChar: nine
Encoding: 57 57 67
GlifName: nine
Width: 536
Flags: HW
HStem: 0 21G<175 256> 253 60<176 329> 652 60<176 343>
VStem: 30 60<399 566> 429 60<398 566>
LayerCount: 2
Fore
SplineSet
259 313 m 0
 306 313 347 329 380 362 c 0
 413 395 429 435 429 482 c 0
 429 529 413 570 380 603 c 0
 347 636 306 652 259 652 c 0
 212 652 172 636 139 603 c 0
 106 570 90 529 90 482 c 0
 90 435 106 395 139 362 c 0
 172 329 212 313 259 313 c 0
244 0 m 1
 175 0 l 1
 330 265 l 1
 306 257 282 253 259 253 c 0
 196 253 142 275 97 320 c 0
 52 364 30 419 30 482 c 0
 30 545 52 601 97 645 c 0
 142 690 196 712 259 712 c 0
 322 712 377 690 422 645 c 0
 467 601 489 545 489 482 c 0
 489 440 479 403 459 369 c 2
 244 0 l 1
EndSplineSet
Validated: 1
EndChar

StartChar: exclam
Encoding: 33 33 68
GlifName: exclam
Width: 291
Flags: HW
HStem: -14 92<114 178> 680 20G<116 176>
VStem: 100 92<0 64> 116 60<193 700>
LayerCount: 2
Fore
SplineSet
116 700 m 5xd0
 176 700 l 5
 176 193 l 5
 116 193 l 5
 116 700 l 5xd0
146 78 m 4
 159 78 170 73 179 64 c 4
 188 55 192 45 192 32 c 4
 192 19 188 9 179 -0 c 4
 170 -9 159 -14 146 -14 c 4
 133 -14 122 -9 113 -0 c 4
 104 9 100 19 100 32 c 4xe0
 100 45 104 55 113 64 c 4
 122 73 133 78 146 78 c 4
EndSplineSet
Validated: 1
EndChar

StartChar: quotedbl
Encoding: 34 34 69
GlifName: quotedbl
Width: 313
Flags: HW
HStem: 510 206<65 115 189 239>
VStem: 55 70<572 716> 65 50<510 654> 179 70<572 716> 189 50<510 654>
LayerCount: 2
Fore
SplineSet
179 716 m 1x90
 249 716 l 1x90
 239 510 l 1
 189 510 l 1x88
 179 716 l 1x90
55 716 m 1xc0
 125 716 l 1xc0
 115 510 l 1
 65 510 l 1xa0
 55 716 l 1xc0
EndSplineSet
Validated: 1
EndChar

StartChar: numbersign
Encoding: 35 35 70
GlifName: numbersign
Width: 627
Flags: HW
HStem: 0 21G<96 160 326 390> 208 60<21 132 204 363 434 564> 448 60<62 175 246 405 477 606> 680 20G<216 280 446 510>
VStem: 96 61<0 61> 219 61<639 700> 326 61<0 61> 449 61<639 700>
LayerCount: 2
Fore
SplineSet
449 700 m 1
 510 700 l 1
 477 508 l 1
 617 508 l 1
 606 448 l 1
 466 448 l 1
 434 269 l 1
 574 269 l 1
 564 208 l 1
 423 208 l 1
 387 0 l 1
 326 0 l 1
 363 208 l 1
 193 208 l 1
 157 0 l 1
 96 0 l 1
 132 208 l 1
 10 208 l 1
 21 269 l 1
 143 269 l 1
 175 448 l 1
 52 448 l 1
 62 508 l 1
 186 508 l 1
 219 700 l 1
 280 700 l 1
 246 508 l 1
 416 508 l 1
 449 700 l 1
405 448 m 1
 236 448 l 1
 204 269 l 1
 373 269 l 1
 405 448 l 1
EndSplineSet
Validated: 1
EndChar

StartChar: dollar
Encoding: 36 36 71
GlifName: dollar
Width: 538
Flags: HW
HStem: -91 139<233 292> 652 139<234 292>
VStem: 62 60<468 599> 233 60<-91 -7 707 791> 424 60<122 271>
LayerCount: 2
Fore
SplineSet
233 791 m 1
 293 791 l 1
 293 710 l 1
 327 706 357 697 383 680 c 0
 416 659 440 630 453 593 c 1
 396 572 l 1
 387 597 372 617 349 631 c 0
 326 645 298 652 263 652 c 0
 221 652 187 641 161 618 c 0
 135 595 122 566 122 531 c 0
 122 501 132 477 153 457 c 0
 176 435 213 419 263 410 c 0
 327 399 380 375 422 338 c 0
 464 301 484 255 484 199 c 0
 484 140 462 90 420 49 c 0
 385 15 343 -4 293 -10 c 1
 293 -91 l 1
 233 -91 l 1
 233 -10 l 1
 196 -6 163 6 134 26 c 0
 97 51 70 85 55 127 c 1
 112 147 l 1
 123 117 141 93 168 75 c 0
 195 57 227 48 263 48 c 0
 309 48 347 63 378 92 c 0
 409 121 424 157 424 199 c 0
 424 239 408 272 378 298 c 0
 348 324 310 342 263 350 c 0
 203 361 155 381 118 410 c 0
 81 439 62 480 62 531 c 0
 62 582 81 625 119 660 c 0
 150 689 188 705 233 710 c 1
 233 791 l 1
EndSplineSet
Validated: 1
EndChar

StartChar: percent
Encoding: 37 37 72
GlifName: percent
Width: 856
Flags: HW
HStem: -12 60<587 711> 0 21G<191 234> 244 60<587 711> 396 60<146 270> 652 60<146 270> 680 20G<623 666>
VStem: 50 60<492 616> 306 60<492 616> 491 60<84 208> 747 60<84 208>
LayerCount: 2
Fore
SplineSet
649 304 m 4xb3c0
 692 304 730 288 761 257 c 4
 792 226 807 189 807 146 c 4
 807 103 792 66 761 35 c 4
 730 4 692 -12 649 -12 c 4
 606 -12 569 4 538 35 c 4
 507 66 491 103 491 146 c 4
 491 189 507 226 538 257 c 4
 569 288 606 304 649 304 c 4xb3c0
649 244 m 4
 622 244 599 234 580 215 c 4
 561 196 551 173 551 146 c 4
 551 119 561 96 580 77 c 4
 599 58 622 48 649 48 c 4
 676 48 699 58 718 77 c 4
 737 96 747 119 747 146 c 4
 747 173 737 196 718 215 c 4
 699 234 676 244 649 244 c 4
637 700 m 5x77c0
 686 666 l 5
 220 0 l 5
 171 34 l 5
 637 700 l 5x77c0
208 712 m 4x3bc0
 251 712 288 697 319 666 c 4
 350 635 366 597 366 554 c 4
 366 511 350 473 319 442 c 4
 288 411 251 396 208 396 c 4
 165 396 128 411 97 442 c 4
 66 473 50 511 50 554 c 4
 50 597 66 635 97 666 c 4
 128 697 165 712 208 712 c 4x3bc0
208 652 m 4
 181 652 158 643 139 624 c 4
 120 605 110 581 110 554 c 4
 110 527 120 503 139 484 c 4
 158 465 181 456 208 456 c 4
 235 456 258 465 277 484 c 4
 296 503 306 527 306 554 c 4
 306 581 296 605 277 624 c 4
 258 643 235 652 208 652 c 4
EndSplineSet
Validated: 1
EndChar

StartChar: ampersand
Encoding: 38 38 73
GlifName: ampersand
Width: 641
Flags: HW
HStem: -12 60<179 375> 0 21G<532 627> 652 60<222 347>
VStem: 60 60<102 238> 125 60<502 615> 383 60<500 618> 536 60<249 309>
LayerCount: 2
Fore
SplineSet
261 -12 m 0xbe
 205 -12 158 5 119 39 c 0
 80 73 60 115 60 167 c 0
 60 203 70 236 91 269 c 0
 113 304 146 337 191 368 c 0
 225 391 251 410 272 424 c 0
 299 443 315 455 318 457 c 0
 362 492 383 526 383 559 c 0
 383 588 372 610 352 627 c 0
 332 644 309 652 282 652 c 0
 256 652 234 642 214 624 c 0
 194 606 185 585 185 561 c 0
 185 539 194 516 213 494 c 6
 627 0 l 1
 549 0 l 1x7e
 166 457 l 2
 139 490 125 524 125 561 c 0
 125 604 142 640 173 669 c 0
 204 698 240 712 282 712 c 0
 328 712 366 697 397 668 c 0
 428 639 443 603 443 559 c 0
 443 534 436 509 423 486 c 0
 411 464 392 443 369 422 c 0
 355 410 337 397 314 380 c 0
 290 362 261 342 226 319 c 0
 188 294 161 268 143 241 c 0
 127 217 120 192 120 167 c 0
 120 130 136 101 164 80 c 0
 192 59 224 48 261 48 c 0
 301 48 335 53 366 65 c 0
 396 77 422 95 444 118 c 0
 491 167 522 231 536 309 c 1
 596 309 l 1
 578 207 543 130 490 76 c 0
 462 47 427 25 385 10 c 0
 343 -5 302 -12 261 -12 c 0xbe
EndSplineSet
Validated: 5
EndChar

StartChar: quotesingle
Encoding: 39 39 74
GlifName: quotesingle
Width: 189
Flags: HW
HStem: 510 206<70 120>
VStem: 60 70<572 716> 70 50<510 654>
LayerCount: 2
Fore
SplineSet
60 716 m 1xc0
 130 716 l 1xc0
 120 510 l 1
 70 510 l 1xa0
 60 716 l 1xc0
EndSplineSet
Validated: 1
EndChar

StartChar: parenleft
Encoding: 40 40 75
GlifName: parenleft
Width: 319
Flags: HW
VStem: 60 60<188 512>
LayerCount: 2
Fore
SplineSet
227 799 m 1
 270 757 l 1
 222 701 185 638 159 567 c 0
 133 496 120 424 120 350 c 0
 120 276 133 204 159 134 c 0
 185 64 222 0 269 -56 c 1
 227 -99 l 1
 173 -37 132 33 103 110 c 0
 74 187 60 267 60 350 c 0
 60 433 74 512 103 589 c 0
 132 666 173 737 227 799 c 1
EndSplineSet
Validated: 1
EndChar

StartChar: parenright
Encoding: 41 41 76
GlifName: parenright
Width: 319
Flags: HW
VStem: 200 60<188 512>
LayerCount: 2
Fore
SplineSet
93 799 m 1
 147 737 188 666 217 589 c 0
 246 512 260 433 260 350 c 0
 260 267 246 187 217 110 c 0
 188 33 147 -37 93 -99 c 1
 93 -99 93 -99 51 -56 c 1
 98 0 135 64 161 134 c 0
 187 204 200 276 200 350 c 0
 200 424 187 496 161 567 c 0
 135 638 98 701 50 757 c 5
 50 757 50 757 93 799 c 1
EndSplineSet
Validated: 1
EndChar

StartChar: asterisk
Encoding: 42 42 77
GlifName: asterisk
Width: 475
Flags: HW
HStem: 395 322
VStem: 208 60<548 716>
LayerCount: 2
Fore
SplineSet
69 571 m 5
 87 628 l 5
 247 577 l 5
 229 520 l 5
 69 571 l 5
164 395 m 5
 115 430 l 5
 214 565 l 5
 262 530 l 5
 164 395 l 5
361 430 m 5
 312 395 l 5
 214 530 l 5
 262 565 l 5
 361 430 l 5
389 628 m 5
 407 571 l 5
 247 520 l 5
 229 577 l 5
 389 628 l 5
208 716 m 5
 268 716 l 5
 268 548 l 5
 208 548 l 5
 208 716 l 5
EndSplineSet
Validated: 5
EndChar

StartChar: plus
Encoding: 43 43 78
GlifName: plus
Width: 619
Flags: HW
HStem: 269 60<85 280 340 535>
VStem: 280 60<73 269 329 523>
LayerCount: 2
Fore
SplineSet
280 523 m 1
 340 523 l 1
 340 329 l 1
 535 329 l 1
 535 269 l 1
 340 269 l 1
 340 73 l 1
 280 73 l 1
 280 269 l 1
 85 269 l 1
 85 329 l 1
 280 329 l 1
 280 523 l 1
EndSplineSet
Validated: 1
EndChar

StartChar: comma
Encoding: 44 44 79
GlifName: comma
Width: 203
Flags: HW
HStem: -116 202<100 109>
VStem: 100 61<-44 86>
LayerCount: 2
Fore
SplineSet
100 86 m 5
 161 86 l 5
 161 9 143 -59 106 -116 c 5
 45 -116 l 5
 82 -55 100 12 100 86 c 5
EndSplineSet
Validated: 1
EndChar

StartChar: hyphen
Encoding: 45 45 80
GlifName: hyphen
Width: 419
Flags: HW
HStem: 268 60<60 360>
VStem: 60 300<268 328>
LayerCount: 2
Fore
SplineSet
60 268 m 1
 60 328 l 1
 360 328 l 1
 360 268 l 1
 60 268 l 1
EndSplineSet
Validated: 1
EndChar

StartChar: period
Encoding: 46 46 81
GlifName: period
Width: 191
Flags: HW
HStem: -14 92<64 128>
VStem: 50 92<0 64>
LayerCount: 2
Fore
SplineSet
142 32 m 0
 142 19 137 9 128 -0 c 0
 119 -9 109 -14 96 -14 c 0
 83 -14 72 -9 63 -0 c 0
 54 9 50 19 50 32 c 0
 50 45 54 55 63 64 c 0
 72 73 83 78 96 78 c 0
 109 78 119 73 128 64 c 0
 137 55 142 45 142 32 c 0
EndSplineSet
Validated: 1
EndChar

StartChar: slash
Encoding: 47 47 82
GlifName: slash
Width: 355
Flags: HW
VStem: 15 326
LayerCount: 2
Fore
SplineSet
285 747 m 5
 341 727 l 5
 72 -84 l 5
 15 -64 l 5
 285 747 l 5
EndSplineSet
Validated: 1
EndChar

StartChar: colon
Encoding: 58 58 83
GlifName: colon
Width: 233
Flags: HW
HStem: -2 92<86 150> 410 92<84 148>
VStem: 72 92<12 76 424 488>
LayerCount: 2
Fore
SplineSet
116 410 m 256
 103 410 92 414 83 423 c 0
 74 432 70 443 70 456 c 256
 70 469 74 479 83 488 c 0
 92 497 103 502 116 502 c 256
 129 502 139 497 148 488 c 0
 157 479 162 469 162 456 c 256
 162 443 157 432 148 423 c 0
 139 414 129 410 116 410 c 256
118 -2 m 256
 105 -2 94 3 85 12 c 0
 76 21 72 31 72 44 c 256
 72 57 76 68 85 77 c 0
 94 86 105 90 118 90 c 256
 131 90 141 86 150 77 c 0
 159 68 164 57 164 44 c 256
 164 31 159 21 150 12 c 0
 141 3 131 -2 118 -2 c 256
EndSplineSet
Validated: 1
EndChar

StartChar: semicolon
Encoding: 59 59 84
GlifName: semicolon
Width: 237
Flags: HW
HStem: 410 92<90 154>
VStem: 76 92<424 488> 100 61<-44 86>
LayerCount: 2
Fore
SplineSet
100 86 m 5xa0
 161 86 l 5
 161 9 143 -59 106 -116 c 5
 45 -116 l 5
 82 -55 100 12 100 86 c 5xa0
122 410 m 0
 109 410 98 414 89 423 c 0
 80 432 76 443 76 456 c 0
 76 469 80 479 89 488 c 0
 98 497 109 502 122 502 c 0
 135 502 145 497 154 488 c 0
 163 479 168 469 168 456 c 0xc0
 168 443 163 432 154 423 c 0
 145 414 135 410 122 410 c 0
EndSplineSet
Validated: 1
EndChar

StartChar: less
Encoding: 60 60 85
GlifName: less
Width: 619
Flags: HW
VStem: 139 69<230 366>
LayerCount: 2
Fore
SplineSet
470 489 m 1
 470 423 l 1
 208 298 l 1
 470 173 l 1
 470 106 l 1
 139 265 l 1
 139 331 l 1
 470 489 l 1
EndSplineSet
Validated: 1
EndChar

StartChar: equal
Encoding: 61 61 86
GlifName: equal
Width: 619
Flags: HW
HStem: 167 60<110 510> 368 60<110 510>
LayerCount: 2
Fore
SplineSet
110 368 m 1
 110 428 l 1
 510 428 l 1
 510 368 l 1
 110 368 l 1
110 167 m 1
 110 228 l 1
 510 228 l 1
 510 167 l 1
 110 167 l 1
EndSplineSet
Validated: 1
EndChar

StartChar: greater
Encoding: 62 62 87
GlifName: greater
Width: 619
Flags: HW
VStem: 412 69<230 366>
LayerCount: 2
Fore
SplineSet
150 489 m 1
 150 423 l 1
 412 298 l 1
 150 173 l 1
 150 106 l 5
 481 265 l 5
 481 331 l 1
 150 489 l 1
EndSplineSet
Validated: 9
EndChar

StartChar: question
Encoding: 63 63 88
GlifName: question
Width: 498
Flags: HW
HStem: -14 92<187 251> 652 60<164 315>
VStem: 173 92<0 64> 187 60<183 260> 389 60<427 578>
LayerCount: 2
Fore
SplineSet
265 32 m 4xe8
 265 19 260 9 251 -0 c 4
 242 -9 232 -14 219 -14 c 4
 206 -14 196 -9 187 -0 c 4
 178 9 173 19 173 32 c 4
 173 45 178 55 187 64 c 4
 196 73 206 78 219 78 c 4
 232 78 242 73 251 64 c 4
 260 55 265 45 265 32 c 4xe8
239 712 m 4
 297 712 347 691 388 650 c 4
 429 609 449 560 449 502 c 4
 449 462 438 426 416 392 c 4
 394 358 365 332 328 314 c 4
 304 302 284 285 269 261 c 4
 254 237 247 211 247 183 c 5
 187 183 l 5xd8
 187 223 198 259 219 293 c 4
 240 327 268 352 304 369 c 4
 330 381 350 400 366 424 c 4
 382 448 389 474 389 502 c 4
 389 543 375 577 345 607 c 4
 315 637 280 652 239 652 c 4
 205 652 174 641 147 620 c 4
 120 599 102 572 94 539 c 5
 35 549 l 5
 46 596 70 636 108 666 c 4
 146 696 190 712 239 712 c 4
EndSplineSet
Validated: 1
EndChar

StartChar: at
Encoding: 64 64 89
GlifName: at
Width: 987
Flags: HW
HStem: -213 62<385 641> -83 63<764 828> 13 63<430 598> 426 63<430 598> 653 62<383 644>
VStem: 50 62<121 382> 276 63<167 335> 689 63<-8 90 167 334> 917 62<122 380>
LayerCount: 2
Fore
SplineSet
514 715 m 0
 576 715 634 703 691 680 c 0
 748 657 799 622 842 579 c 0
 885 536 920 486 943 429 c 0
 966 372 978 313 978 251 c 0
 978 193 969 138 949 87 c 4
 931 40 905 -4 870 -46 c 0
 849 -71 823 -83 792 -83 c 0
 764 -83 739 -73 719 -53 c 0
 699 -33 689 -9 689 19 c 2
 689 90 l 1
 642 39 583 13 514 13 c 0
 448 13 392 37 346 83 c 0
 300 129 276 185 276 251 c 0
 276 317 300 373 346 419 c 0
 392 465 448 489 514 489 c 0
 580 489 637 465 683 419 c 0
 729 373 752 317 752 251 c 2
 752 19 l 2
 752 8 756 -1 764 -9 c 0
 772 -17 781 -21 792 -21 c 0
 804 -21 814 -15 822 -6 c 0
 885 69 917 154 917 251 c 0
 917 304 907 356 886 405 c 0
 865 454 837 498 799 536 c 0
 761 574 717 602 668 623 c 0
 619 644 567 653 514 653 c 0
 441 653 374 636 312 600 c 0
 250 564 202 515 166 453 c 0
 130 391 111 324 111 251 c 0
 111 198 121 146 142 97 c 0
 163 48 191 4 229 -34 c 0
 267 -72 311 -100 360 -121 c 0
 409 -142 461 -151 514 -151 c 0
 562 -151 610 -143 656 -125 c 1
 678 -182 l 1
 624 -203 570 -213 514 -213 c 0
 452 -213 393 -201 336 -178 c 0
 279 -155 229 -120 186 -77 c 0
 143 -34 108 16 85 73 c 0
 62 130 50 189 50 251 c 0
 50 313 62 372 85 429 c 0
 108 486 143 536 186 579 c 0
 229 622 279 657 336 680 c 0
 393 703 452 715 514 715 c 0
514 426 m 0
 466 426 425 409 391 375 c 0
 357 341 339 299 339 251 c 0
 339 203 357 161 391 127 c 0
 425 93 466 76 514 76 c 0
 562 76 604 93 638 127 c 0
 672 161 689 203 689 251 c 0
 689 299 672 341 638 375 c 0
 604 409 562 426 514 426 c 0
EndSplineSet
Validated: 1
EndChar

StartChar: braceleft
Encoding: 123 123 90
GlifName: braceleft
Width: 381
Flags: HW
HStem: -100 60<271 322> 320 60<60 125> 740 60<271 322>
VStem: 160 60<29 282 418 672>
CounterMasks: 1 e0
LayerCount: 2
Fore
SplineSet
322 -100 m 1
 270 -100 230 -77 203 -32 c 0
 175 16 160 89 160 188 c 0
 160 232 151 266 134 288 c 0
 117 309 93 320 60 320 c 1
 60 380 l 1
 97 380 123 393 140 420 c 0
 154 442 160 472 160 512 c 0
 160 612 175 686 204 734 c 0
 231 778 270 800 322 800 c 1
 322 740 l 1
 291 739 267 723 250 692 c 0
 229 654 220 595 220 513 c 0
 220 459 209 416 188 386 c 0
 178 371 166 359 150 350 c 1
 159 345 168 338 175 330 c 0
 205 299 220 252 220 187 c 0
 220 98 232 35 256 -2 c 0
 272 -26 295 -39 322 -40 c 1
 322 -100 l 1
EndSplineSet
Validated: 1
EndChar

StartChar: bar
Encoding: 124 124 91
GlifName: bar
Width: 257
Flags: HW
VStem: 99 60<-220 790>
LayerCount: 2
Fore
SplineSet
99 790 m 1
 159 790 l 1
 159 -220 l 1
 99 -220 l 1
 99 790 l 1
EndSplineSet
Validated: 1
EndChar

StartChar: braceright
Encoding: 125 125 92
GlifName: braceright
Width: 381
Flags: HW
HStem: -100 60<60 112> 320 60<257 322> 740 60<60 111>
VStem: 162 60<29 282 418 672>
CounterMasks: 1 e0
LayerCount: 2
Fore
SplineSet
60 -100 m 1
 112 -100 152 -77 179 -32 c 0
 207 16 222 89 222 188 c 0
 222 232 231 266 248 288 c 0
 265 309 289 320 322 320 c 5
 322 380 l 5
 285 380 259 393 242 420 c 0
 228 442 222 472 222 512 c 0
 222 612 207 686 178 734 c 0
 151 778 112 800 60 800 c 1
 60 740 l 1
 91 739 114 723 131 692 c 0
 152 654 162 595 162 513 c 0
 162 459 172 416 193 386 c 0
 203 371 216 359 232 350 c 1
 223 345 214 338 207 330 c 0
 177 299 162 252 162 187 c 0
 162 98 149 35 125 -2 c 0
 109 -26 87 -39 60 -40 c 1
 60 -100 l 1
EndSplineSet
Validated: 9
EndChar

StartChar: asciitilde
Encoding: 126 126 93
GlifName: asciitilde
Width: 528
Flags: HW
HStem: 237 60<306 393> 336 60<136 223>
VStem: 60 60<265 320> 409 60<312 368>
LayerCount: 2
Fore
SplineSet
177 396 m 0
 214 396 250 377 284 340 c 0
 293 331 301 323 308 317 c 0
 323 303 338 297 351 297 c 0
 369 297 382 302 390 311 c 0
 400 322 407 341 409 368 c 1
 469 368 l 1
 464 320 448 284 425 263 c 0
 406 246 382 237 351 237 c 0
 315 237 280 255 247 291 c 0
 231 309 217 321 204 328 c 0
 194 333 185 336 177 336 c 0
 159 336 147 331 138 321 c 0
 128 310 122 291 120 265 c 1
 60 265 l 1
 64 313 78 348 101 369 c 0
 120 387 145 396 177 396 c 0
EndSplineSet
Validated: 1
EndChar

StartChar: exclamdown
Encoding: 161 161 94
GlifName: exclamdown
Width: 291
Flags: HW
HStem: 420 92<114 178>
VStem: 100 92<434 498>
LayerCount: 2
Fore
SplineSet
146 420 m 0
 159 420 170 425 179 434 c 0
 188 443 192 453 192 466 c 0
 192 479 188 490 179 499 c 0
 170 508 159 512 146 512 c 0
 133 512 122 508 113 499 c 0
 104 490 100 479 100 466 c 0
 100 453 104 443 113 434 c 0
 122 425 133 420 146 420 c 0
116 -202 m 1
 176 -202 l 1
 176 305 l 1
 116 305 l 1
 116 -202 l 1
EndSplineSet
Validated: 9
EndChar

StartChar: cent
Encoding: 162 162 95
GlifName: cent
Width: 493
Flags: HW
HStem: 0 21G<245 304> 88 61<304 377> 551 61<304 377> 680 20G<245 304>
VStem: 45 60<252 448> 245 60<0 90 153 546 610 700>
LayerCount: 2
Fore
SplineSet
304 612 m 1
 367 609 421 583 464 537 c 1
 423 493 l 1
 392 528 351 548 304 551 c 1
 304 149 l 1
 351 152 392 172 423 207 c 1
 464 163 l 1
 421 117 367 91 304 88 c 1
 304 0 l 1
 245 0 l 1
 245 92 l 1
 194 101 150 124 114 164 c 0
 68 215 45 276 45 350 c 0
 45 424 68 485 114 536 c 0
 150 576 194 599 245 608 c 1
 245 700 l 1
 304 700 l 1
 304 612 l 1
245 546 m 1
 210 538 180 521 156 494 c 0
 122 455 105 407 105 350 c 0
 105 293 122 246 156 207 c 0
 180 180 210 161 245 153 c 1
 245 546 l 1
EndSplineSet
Validated: 1
EndChar

StartChar: sterling
Encoding: 163 163 96
GlifName: sterling
Width: 569
Flags: HW
HStem: 0 63<50 104 168 519> 287 63<50 130 194 392> 648 64<253 396>
VStem: 130 64<89 287 350 588> 456 64<517 588>
LayerCount: 2
Fore
SplineSet
519 63 m 1
 519 0 l 1
 50 0 l 1
 50 63 l 1
 72 63 90 70 106 86 c 0
 122 102 130 121 130 143 c 2
 130 287 l 1
 50 287 l 1
 50 350 l 1
 130 350 l 1
 130 517 l 2
 130 571 149 617 187 655 c 0
 225 693 271 712 325 712 c 0
 379 712 425 693 463 655 c 0
 501 617 520 571 520 517 c 1
 456 517 l 1
 456 553 443 583 417 609 c 0
 391 635 361 648 325 648 c 0
 289 648 258 635 232 609 c 0
 206 583 194 553 194 517 c 2
 194 350 l 1
 392 350 l 1
 392 287 l 1
 194 287 l 1
 194 143 l 2
 194 115 185 88 168 63 c 1
 519 63 l 1
EndSplineSet
Validated: 1
EndChar

StartChar: currency
Encoding: 164 164 97
GlifName: currency
Width: 538
Flags: HW
HStem: 192 60<208 331> 448 60<208 331>
VStem: 111 60<289 411> 368 60<289 411>
LayerCount: 2
Fore
SplineSet
339 419 m 0
 320 438 297 448 270 448 c 0
 243 448 219 438 200 419 c 0
 181 400 171 377 171 350 c 0
 171 323 181 300 200 281 c 0
 219 262 243 252 270 252 c 0
 297 252 320 262 339 281 c 0
 358 300 368 323 368 350 c 0
 368 377 358 400 339 419 c 0
417 540 m 1
 459 497 l 1
 400 438 l 1
 418 412 428 383 428 350 c 0
 428 317 418 287 400 261 c 1
 459 203 l 1
 417 161 l 1
 358 219 l 1
 332 201 303 192 270 192 c 0
 237 192 207 201 181 219 c 1
 123 161 l 1
 80 203 l 1
 138 261 l 1
 120 287 111 317 111 350 c 0
 111 383 120 412 138 438 c 1
 80 497 l 1
 123 540 l 1
 181 481 l 1
 207 499 237 508 270 508 c 0
 303 508 332 499 358 481 c 1
 417 540 l 1
EndSplineSet
Validated: 1
EndChar

StartChar: yen
Encoding: 165 165 98
GlifName: yen
Width: 515
Flags: HW
HStem: 0 365<46 470> 145 60<88 228 288 428> 282 60<88 203 313 428> 692 20G<10 88 428 506>
VStem: 228 60<0 145 205 282>
LayerCount: 2
Fore
SplineSet
88 282 m 1x78
 88 342 l 1
 203 342 l 1x78
 10 712 l 1
 78 712 l 1
 258 365 l 1x98
 438 712 l 1
 506 712 l 1
 313 342 l 1
 428 342 l 1
 428 282 l 1
 288 282 l 1
 288 205 l 1
 428 205 l 1
 428 145 l 1
 288 145 l 1x78
 288 0 l 1
 228 0 l 1x98
 228 145 l 1
 88 145 l 1
 88 205 l 1
 228 205 l 1
 228 282 l 1
 88 282 l 1x78
EndSplineSet
Validated: 1
EndChar

StartChar: brokenbar
Encoding: 166 166 99
GlifName: brokenbar
Width: 259
Flags: HW
VStem: 100 60<-220 220 350 790>
LayerCount: 2
Fore
SplineSet
100 -220 m 1
 100 220 l 1
 160 220 l 1
 160 -220 l 1
 100 -220 l 1
100 350 m 1
 100 790 l 1
 160 790 l 1
 160 350 l 1
 100 350 l 1
EndSplineSet
Validated: 1
EndChar

StartChar: section
Encoding: 167 167 100
GlifName: section
Width: 525
Flags: HW
HStem: -90 57<197 329> 158 57<196 330> 407 57<196 330> 655 57<197 329>
VStem: 100 57<6 62 253 369 502 617> 369 57<5 120 252 370 560 616>
LayerCount: 2
Fore
SplineSet
263 712 m 0
 307 712 346 697 378 667 c 0
 410 637 425 602 425 560 c 1
 369 560 l 1
 369 586 358 608 337 627 c 0
 316 646 292 655 263 655 c 0
 234 655 209 646 188 627 c 0
 167 608 158 586 158 560 c 0
 158 534 167 511 188 492 c 0
 209 473 234 464 263 464 c 0
 307 464 346 449 378 419 c 0
 410 389 426 353 426 311 c 0
 426 269 410 233 378 203 c 0
 372 197 364 192 357 187 c 1
 364 182 372 176 378 170 c 0
 410 140 425 104 425 62 c 0
 425 20 410 -15 378 -45 c 0
 346 -75 307 -90 263 -90 c 0
 219 -90 180 -75 148 -45 c 0
 116 -15 101 20 101 62 c 1
 158 62 l 1
 158 36 167 14 188 -5 c 0
 209 -24 234 -33 263 -33 c 0
 292 -33 316 -24 337 -5 c 0
 358 14 369 36 369 62 c 0
 369 88 358 111 337 130 c 0
 316 149 292 158 263 158 c 0
 219 158 180 173 148 203 c 0
 116 233 100 269 100 311 c 0
 100 353 116 389 148 419 c 0
 154 425 161 431 168 436 c 1
 161 441 154 446 148 452 c 0
 116 482 101 518 101 560 c 0
 101 602 116 637 148 667 c 0
 180 697 219 712 263 712 c 0
263 407 m 0
 234 407 209 398 188 379 c 0
 167 360 157 338 157 311 c 0
 157 284 167 262 188 243 c 0
 209 224 234 215 263 215 c 0
 292 215 317 224 338 243 c 0
 359 262 369 284 369 311 c 0
 369 338 359 360 338 379 c 0
 317 398 292 407 263 407 c 0
EndSplineSet
Validated: 1
EndChar

StartChar: dieresis
Encoding: 168 168 101
GlifName: dieresis
Width: 421
Flags: HW
HStem: 630 80<62 118 304 360>
VStem: 50 80<642 698> 292 80<642 698>
LayerCount: 2
Fore
SplineSet
90 710 m 4
 101 710 111 707 119 699 c 4
 127 691 130 681 130 670 c 4
 130 659 127 650 119 642 c 4
 111 634 101 630 90 630 c 4
 79 630 70 634 62 642 c 4
 54 650 50 659 50 670 c 4
 50 681 54 691 62 699 c 4
 70 707 79 710 90 710 c 4
332 710 m 4
 343 710 352 707 360 699 c 4
 368 691 372 681 372 670 c 4
 372 659 368 650 360 642 c 4
 352 634 343 630 332 630 c 4
 321 630 312 634 304 642 c 4
 296 650 292 659 292 670 c 4
 292 681 296 691 304 699 c 4
 312 707 321 710 332 710 c 4
EndSplineSet
Validated: 1
EndChar

StartChar: copyright
Encoding: 169 169 102
GlifName: copyright
Width: 822
Flags: HW
HStem: -11 60<298 525> 152 60<346 485> 488 60<346 485> 652 60<298 525>
VStem: 50 60<237 464> 231 60<269 431> 713 60<237 464>
LayerCount: 2
Fore
SplineSet
412 712 m 0
 477 712 537 696 593 664 c 0
 649 632 693 588 725 532 c 0
 757 476 773 416 773 351 c 0
 773 286 757 225 725 169 c 0
 693 113 649 70 593 38 c 0
 537 6 477 -11 412 -11 c 0
 347 -11 286 6 230 38 c 0
 174 70 130 113 98 169 c 0
 66 225 50 286 50 351 c 0
 50 416 66 476 98 532 c 0
 130 588 174 632 230 664 c 0
 286 696 347 712 412 712 c 0
412 652 m 0
 329 652 257 622 198 563 c 0
 139 504 110 434 110 351 c 0
 110 268 139 196 198 137 c 0
 257 78 329 49 412 49 c 0
 495 49 566 78 625 137 c 0
 684 196 713 268 713 351 c 0
 713 434 684 504 625 563 c 0
 566 622 495 652 412 652 c 0
416 548 m 0
 469 548 513 529 548 491 c 1
 505 448 l 1
 482 475 453 488 416 488 c 0
 379 488 349 474 326 448 c 0
 303 422 291 389 291 350 c 0
 291 311 303 278 326 252 c 0
 349 226 379 212 416 212 c 0
 453 212 482 225 505 252 c 1
 548 208 l 1
 513 170 469 152 416 152 c 0
 362 152 318 171 283 209 c 0
 248 247 231 294 231 350 c 0
 231 406 248 453 283 491 c 0
 318 529 362 548 416 548 c 0
EndSplineSet
Validated: 1
EndChar

StartChar: ordfeminine
Encoding: 170 170 103
GlifName: ordfeminine
Width: 371
Flags: HW
HStem: 393 56<123 241> 651 56<122 242> 680 20G<278 330>
VStem: 32 56<484 616> 278 52<400 439 488 612 659 700>
LayerCount: 2
Fore
SplineSet
278 700 m 1xb8
 330 700 l 1xb8
 330 400 l 1
 278 400 l 1
 278 439 l 1
 255 408 222 393 179 393 c 0
 137 393 101 408 73 438 c 0
 45 469 32 506 32 550 c 0
 32 594 45 632 73 662 c 0
 101 692 136 707 179 707 c 0xd8
 221 707 255 691 278 659 c 5
 278 700 l 1xb8
182 651 m 0xd8
 154 651 132 642 114 622 c 0
 96 602 88 579 88 550 c 0
 88 521 96 498 114 478 c 0
 132 458 154 448 182 448 c 0
 209 448 232 458 249 478 c 0
 266 498 274 521 274 550 c 0
 274 579 266 602 249 622 c 0
 232 642 209 651 182 651 c 0xd8
EndSplineSet
Validated: 1
EndChar

StartChar: guillemotleft
Encoding: 171 171 104
GlifName: guillemotleft
Width: 549
Flags: HW
VStem: 55 85<255 340> 232 85<255 340>
LayerCount: 2
Fore
SplineSet
272 515 m 5
 315 473 l 5
 140 298 l 5
 315 124 l 5
 272 81 l 5
 55 298 l 5
 272 515 l 5
449 515 m 5
 492 473 l 5
 317 298 l 5
 492 124 l 5
 449 81 l 5
 232 298 l 5
 449 515 l 5
EndSplineSet
Validated: 1
EndChar

StartChar: logicalnot
Encoding: 172 172 105
GlifName: logicalnot
Width: 619
Flags: HW
HStem: 296 60<130 430>
VStem: 430 60<201 296>
LayerCount: 2
Fore
SplineSet
130 296 m 1
 130 356 l 1
 490 356 l 5
 490 201 l 5
 430 201 l 1
 430 296 l 1
 130 296 l 1
EndSplineSet
Validated: 1
EndChar

StartChar: uni00AD
Encoding: 173 173 106
GlifName: uni00A_D_
Width: 419
Flags: HW
HStem: 268 60<60 360>
VStem: 60 300<268 328>
LayerCount: 2
Fore
SplineSet
60 268 m 1
 60 328 l 1
 360 328 l 1
 360 268 l 1
 60 268 l 1
EndSplineSet
Validated: 1
EndChar

StartChar: registered
Encoding: 174 174 107
GlifName: registered
Width: 625
Flags: HW
HStem: 176 60<219 407> 411 60<285 308> 531 60<285 351> 652 60<219 407>
VStem: 45 60<351 538> 225 60<297 411 471 531> 361 60<476 525> 521 60<351 538>
LayerCount: 2
Fore
SplineSet
313 712 m 0
 387 712 450 685 502 633 c 0
 554 581 581 518 581 444 c 0
 581 370 554 306 502 254 c 0
 450 202 387 176 313 176 c 0
 239 176 176 202 124 254 c 0
 72 306 45 370 45 444 c 0
 45 518 72 581 124 633 c 0
 176 685 239 712 313 712 c 0
313 652 m 0
 256 652 207 632 166 591 c 0
 125 550 105 501 105 444 c 0
 105 387 125 338 166 297 c 0
 207 256 256 236 313 236 c 0
 370 236 419 256 460 297 c 0
 501 338 521 387 521 444 c 0
 521 501 501 550 460 591 c 0
 419 632 370 652 313 652 c 0
225 590 m 1
 333 590 l 2
 356 590 377 581 395 563 c 0
 413 545 421 524 421 501 c 0
 421 480 415 462 405 447 c 0
 395 432 383 421 370 415 c 1
 421 297 l 1
 357 297 l 1
 308 411 l 1
 285 411 l 1
 285 297 l 1
 225 297 l 1
 225 590 l 1
285 531 m 1
 285 471 l 1
 329 471 l 2
 338 471 346 474 352 479 c 0
 358 484 361 492 361 501 c 0
 361 510 358 517 352 522 c 0
 346 527 338 531 329 531 c 2
 285 531 l 1
EndSplineSet
Validated: 1
EndChar

StartChar: macron
Encoding: 175 175 108
GlifName: macron
Width: 299
Flags: HW
HStem: 580 60<0 300>
VStem: 0 300<580 640>
LayerCount: 2
Fore
SplineSet
0 580 m 1
 0 640 l 1
 300 640 l 1
 300 580 l 1
 0 580 l 1
EndSplineSet
Validated: 1
EndChar

StartChar: degree
Encoding: 176 176 109
GlifName: degree
Width: 364
Flags: HW
HStem: 453 60<132 233> 658 60<132 233>
VStem: 50 60<534 636> 255 60<534 636>
LayerCount: 2
Fore
SplineSet
183 717 m 0
 220 717 250 705 276 679 c 0
 302 653 315 622 315 585 c 0
 315 548 302 517 276 491 c 0
 250 465 220 453 183 453 c 0
 146 453 115 465 89 491 c 0
 63 517 50 548 50 585 c 0
 50 622 63 653 89 679 c 0
 115 705 146 717 183 717 c 0
183 658 m 0
 163 658 145 650 131 636 c 0
 117 622 110 605 110 585 c 0
 110 565 117 548 131 534 c 0
 145 520 163 513 183 513 c 0
 203 513 220 520 234 534 c 0
 248 548 255 565 255 585 c 0
 255 605 248 622 234 636 c 0
 220 650 203 658 183 658 c 0
EndSplineSet
Validated: 1
EndChar

StartChar: plusminus
Encoding: 177 177 110
GlifName: plusminus
Width: 619
Flags: HW
HStem: 0 60<85 535> 312 60<115 280 340 505>
VStem: 280 60<139 312 373 547>
LayerCount: 2
Fore
SplineSet
85 0 m 1
 85 60 l 1
 535 60 l 1
 535 0 l 1
 85 0 l 1
115 312 m 1
 115 373 l 1
 280 373 l 1
 280 547 l 1
 340 547 l 1
 340 373 l 1
 505 373 l 1
 505 312 l 1
 340 312 l 1
 340 139 l 1
 280 139 l 1
 280 312 l 1
 115 312 l 1
EndSplineSet
Validated: 1
EndChar

StartChar: uni00B2
Encoding: 178 178 111
GlifName: uni00B_2
Width: 358
Flags: HW
HStem: 379 60<118 300> 747 60<115 217>
VStem: 239 60<630 727>
LayerCount: 2
Fore
SplineSet
165 807 m 0
 202 807 234 794 260 769 c 0
 286 744 298 712 298 676 c 0
 298 644 283 612 254 581 c 2
 118 439 l 1
 300 439 l 1
 300 379 l 1
 34 379 l 1
 34 439 l 1
 210 622 l 2
 230 643 239 660 239 676 c 0
 239 698 230 715 216 728 c 0
 202 741 186 747 167 747 c 0
 149 747 134 741 121 731 c 0
 108 721 100 708 96 692 c 1
 38 705 l 1
 43 734 58 758 82 778 c 0
 106 798 134 807 165 807 c 0
EndSplineSet
Validated: 1
EndChar

StartChar: uni00B3
Encoding: 179 179 112
GlifName: uni00B_3
Width: 353
Flags: HW
HStem: 373 60<122 234> 570 60<144 226> 711 21G<58 117> 747 60<124 226>
VStem: 246 59<647 732> 257 59<454 550>
LayerCount: 2
Fore
SplineSet
178 807 m 0xf8
 213 807 243 795 268 773 c 0
 293 751 305 723 305 690 c 0xf8
 305 675 300 660 292 645 c 0
 284 630 271 617 254 603 c 1
 272 591 286 577 297 561 c 0
 310 542 317 522 317 501 c 0
 317 465 303 435 276 410 c 0
 249 385 217 373 179 373 c 0
 151 373 125 380 102 395 c 0
 79 410 61 429 52 452 c 1
 109 472 l 1
 115 460 125 450 138 443 c 0
 151 436 165 433 180 433 c 0
 201 433 220 439 235 452 c 0
 250 465 257 481 257 501 c 0xf4
 257 521 250 539 234 552 c 0
 219 564 202 570 180 570 c 2
 144 570 l 1
 144 630 l 1
 180 630 l 2
 197 630 212 636 226 647 c 0
 239 658 246 673 246 690 c 0
 246 708 239 721 226 731 c 0
 213 741 198 747 179 747 c 0
 163 747 150 744 138 737 c 0
 127 731 119 722 115 711 c 1
 58 730 l 1
 66 752 82 772 104 786 c 0
 126 800 152 807 178 807 c 0xf8
EndSplineSet
Validated: 1
EndChar

StartChar: acute
Encoding: 180 180 113
GlifName: acute
Width: 204
Flags: HW
HStem: 574 126
VStem: 1 198
LayerCount: 2
Fore
SplineSet
1 574 m 1
 110 700 l 1
 199 700 l 1
 77 574 l 1
 1 574 l 1
EndSplineSet
Validated: 1
EndChar

StartChar: mu
Encoding: 181 181 114
GlifName: mu
Width: 553
Flags: HW
HStem: -12 60<194 344> 0 21G<419 479> 480 20G<60 120 419 479>
VStem: 60 60<-200 63 128 500> 419 60<0 63 128 500>
LayerCount: 2
Fore
SplineSet
479 500 m 1xb8
 479 0 l 1
 419 0 l 1x78
 419 63 l 1
 382 13 332 -12 270 -12 c 0
 208 -12 157 13 120 63 c 1
 120 -200 l 1
 60 -200 l 1
 60 500 l 5
 120 500 l 5
 120 232 l 2
 120 175 135 131 163 98 c 0
 191 65 227 48 270 48 c 0
 313 48 348 65 376 98 c 0
 404 131 419 175 419 232 c 2
 419 500 l 1
 479 500 l 1xb8
EndSplineSet
Validated: 1
EndChar

StartChar: paragraph
Encoding: 182 182 115
GlifName: paragraph
Width: 530
Flags: HW
HStem: 640 60<317 371>
VStem: 30 287<388 578> 257 60<-84 266> 371 60<-84 640>
LayerCount: 2
Fore
SplineSet
247 700 m 2xd0
 257 700 l 1
 431 700 l 1
 431 -84 l 1
 371 -84 l 1
 371 640 l 1
 317 640 l 1
 317 -84 l 1
 257 -84 l 1
 257 266 l 1xb0
 247 266 l 2
 187 266 135 288 93 330 c 0
 51 372 30 423 30 483 c 0
 30 543 51 595 93 637 c 0
 135 679 187 700 247 700 c 2xd0
EndSplineSet
Validated: 1
EndChar

StartChar: periodcentered
Encoding: 183 183 116
GlifName: periodcentered
Width: 251
Flags: HW
HStem: 275 92<94 158>
VStem: 80 92<289 353>
LayerCount: 2
Fore
SplineSet
172 321 m 0
 172 308 168 298 159 289 c 0
 150 280 139 275 126 275 c 0
 113 275 102 280 93 289 c 0
 84 298 80 308 80 321 c 0
 80 334 84 345 93 354 c 0
 102 363 113 367 126 367 c 0
 139 367 150 363 159 354 c 0
 168 345 172 334 172 321 c 0
EndSplineSet
Validated: 1
EndChar

StartChar: cedilla
Encoding: 184 184 117
GlifName: cedilla
Width: 205
Flags: HW
HStem: -210 57<28 145>
VStem: 172 57<-125 -15>
LayerCount: 2
Fore
SplineSet
184 33 m 1
 214 5 229 -29 229 -70 c 0
 229 -109 215 -142 188 -169 c 0
 161 -196 128 -210 89 -210 c 0
 57 -210 29 -201 4 -181 c 1
 28 -152 41 -137 41 -137 c 5
 55 -147 71 -153 89 -153 c 0
 111 -153 131 -144 147 -128 c 0
 163 -112 172 -92 172 -70 c 0
 172 -54 168 -39 160 -26 c 0
 152 -13 141 -3 127 4 c 1
 184 33 l 1
EndSplineSet
Validated: 1
EndChar

StartChar: uni00B9
Encoding: 185 185 118
GlifName: uni00B_9
Width: 281
Flags: HW
VStem: 132 60<380 722>
LayerCount: 2
Fore
SplineSet
132 800 m 1
 192 800 l 1
 192 380 l 1
 132 380 l 1
 132 722 l 1
 64 665 l 1
 26 711 l 1
 132 800 l 1
EndSplineSet
Validated: 1
EndChar

StartChar: ordmasculine
Encoding: 186 186 119
GlifName: ordmasculine
Width: 364
Flags: HW
HStem: 393 60<124 241> 647 60<124 241>
VStem: 31 60<485 614> 274 60<485 614>
LayerCount: 2
Fore
SplineSet
183 707 m 0
 227 707 263 692 291 662 c 0
 319 632 334 594 334 550 c 0
 334 506 319 468 291 438 c 0
 263 408 227 393 183 393 c 0
 139 393 102 408 74 438 c 0
 46 468 31 506 31 550 c 0
 31 594 46 632 74 662 c 0
 102 692 139 707 183 707 c 0
183 647 m 0
 156 647 134 638 117 619 c 0
 100 600 91 577 91 550 c 0
 91 523 100 499 117 480 c 0
 134 461 156 453 183 453 c 0
 210 453 232 461 249 480 c 0
 266 499 274 523 274 550 c 0
 274 577 266 600 249 619 c 0
 232 638 210 647 183 647 c 0
EndSplineSet
Validated: 1
EndChar

StartChar: guillemotright
Encoding: 187 187 120
GlifName: guillemotright
Width: 549
Flags: HW
VStem: 230 85<255 340> 407 85<255 340>
LayerCount: 2
Fore
SplineSet
98 515 m 5
 55 473 l 5
 230 298 l 5
 55 124 l 5
 98 81 l 5
 315 298 l 5
 98 515 l 5
274 515 m 5
 232 473 l 5
 407 298 l 5
 232 124 l 5
 274 81 l 5
 492 298 l 5
 274 515 l 5
EndSplineSet
Validated: 9
EndChar

StartChar: onequarter
Encoding: 188 188 121
GlifName: onequarter
Width: 823
Flags: HW
HStem: 0 21G<158 201 673 733> 91 60<554 673 733 802> 680 20G<108 192 590 632>
VStem: 132 60<280 622> 673 60<0 91 151 270>
LayerCount: 2
Fore
SplineSet
614 420 m 1
 668 394 l 1
 554 151 l 1
 673 151 l 1
 673 270 l 1
 733 270 l 1
 733 151 l 1
 802 151 l 1
 802 91 l 1
 733 91 l 1
 733 0 l 1
 673 0 l 1
 673 91 l 1
 488 91 l 1
 488 151 l 1
 614 420 l 1
604 700 m 5
 653 666 l 5
 187 0 l 5
 138 34 l 5
 604 700 l 5
132 700 m 1
 192 700 l 1
 192 280 l 1
 132 280 l 1
 132 622 l 1
 64 565 l 1
 26 611 l 1
 132 700 l 1
EndSplineSet
Validated: 1
EndChar

StartChar: onehalf
Encoding: 189 189 122
GlifName: onehalf
Width: 856
Flags: HW
HStem: -0 60<616 798> 367 60<613 715> 680 20G<108 192 590 632>
VStem: 132 60<280 622> 736 60<250 347>
LayerCount: 2
Fore
SplineSet
663 427 m 0
 700 427 732 414 758 389 c 0
 784 364 796 332 796 296 c 0
 796 264 781 232 752 201 c 2
 616 60 l 1
 798 60 l 1
 798 -0 l 1
 532 -0 l 1
 532 60 l 1
 708 242 l 2
 728 263 736 280 736 296 c 0
 736 318 728 335 714 348 c 0
 700 361 684 367 665 367 c 0
 647 367 632 362 619 352 c 0
 606 342 598 328 594 312 c 1
 536 325 l 1
 541 354 556 377 580 397 c 0
 604 417 632 427 663 427 c 0
604 700 m 5
 653 666 l 5
 187 0 l 5
 138 34 l 5
 604 700 l 5
132 700 m 1
 192 700 l 1
 192 280 l 1
 132 280 l 1
 132 622 l 1
 64 565 l 1
 26 611 l 1
 132 700 l 1
EndSplineSet
Validated: 1
EndChar

StartChar: threequarters
Encoding: 190 190 123
GlifName: threequarters
Width: 895
Flags: HW
HStem: 0 21G<230 273 745 805> 91 60<626 745 805 874> 273 60<122 234> 470 60<144 226> 647 60<124 226> 680 20G<662 705>
VStem: 246 59<547 632> 257 59<354 450> 745 60<0 91 151 270>
LayerCount: 2
Fore
SplineSet
686 420 m 1xf080
 740 394 l 1
 626 151 l 1
 745 151 l 1
 745 270 l 1
 805 270 l 1
 805 151 l 1
 874 151 l 1
 874 91 l 1
 805 91 l 1
 805 0 l 1
 745 0 l 1
 745 91 l 1
 560 91 l 1
 560 151 l 1
 686 420 l 1xf080
676 700 m 5xf480
 725 666 l 5
 259 0 l 5
 210 34 l 5
 676 700 l 5xf480
178 707 m 0xfa80
 213 707 243 695 268 673 c 0
 293 651 305 623 305 590 c 0xfa80
 305 575 300 560 292 545 c 0
 284 530 271 516 254 502 c 1
 272 490 286 476 297 460 c 0
 310 441 317 422 317 401 c 0
 317 365 303 335 276 310 c 0
 249 285 217 273 179 273 c 0
 151 273 125 280 102 295 c 0
 79 310 61 329 52 352 c 1
 109 372 l 1
 115 360 125 350 138 343 c 0
 151 336 165 333 180 333 c 0
 201 333 220 339 235 352 c 0
 250 365 257 382 257 402 c 0xf980
 257 422 250 439 234 452 c 0
 219 464 202 470 180 470 c 2
 144 470 l 1
 144 530 l 1
 180 530 l 2
 197 530 212 536 226 547 c 0
 239 558 246 573 246 590 c 0
 246 608 239 621 226 631 c 0
 213 641 198 647 179 647 c 0
 163 647 150 644 138 637 c 0
 127 631 119 622 115 611 c 1
 58 630 l 1
 66 652 82 672 104 686 c 0
 126 700 152 707 178 707 c 0xfa80
EndSplineSet
Validated: 1
EndChar

StartChar: questiondown
Encoding: 191 191 124
GlifName: questiondown
Width: 458
Flags: HW
HStem: -213 60<154 306> 421 92<218 282>
VStem: 20 60<-79 72> 204 92<435 499> 222 60<239 316>
LayerCount: 2
Fore
SplineSet
204 467 m 0xf0
 204 480 208 491 217 500 c 0
 226 509 237 513 250 513 c 0
 263 513 273 509 282 500 c 0
 291 491 296 480 296 467 c 0
 296 454 291 444 282 435 c 0
 273 426 263 421 250 421 c 0
 237 421 226 426 217 435 c 0
 208 444 204 454 204 467 c 0xf0
230 -213 m 0
 172 -213 123 -192 82 -151 c 0
 41 -110 20 -61 20 -3 c 0
 20 37 31 73 53 107 c 0
 75 141 104 166 141 184 c 0
 165 196 185 214 200 238 c 0
 215 262 222 288 222 316 c 1
 282 316 l 1xe8
 282 276 271 240 250 206 c 0
 229 172 202 147 166 130 c 0
 140 118 120 99 104 75 c 0
 88 51 80 25 80 -3 c 0
 80 -44 95 -78 125 -108 c 0
 155 -138 189 -153 230 -153 c 0
 264 -153 294 -142 321 -121 c 0
 348 -100 367 -73 375 -40 c 1
 434 -50 l 1
 423 -97 398 -137 360 -167 c 0
 322 -197 279 -213 230 -213 c 0
EndSplineSet
Validated: 1
EndChar

StartChar: Agrave
Encoding: 192 192 125
GlifName: A_grave
Width: 601
Flags: HW
HStem: 0 21G<10 82 520 592> 205 60<171 431> 619 81<231 371>
LayerCount: 2
Fore
SplineSet
264 744 m 1
 140 871 l 1
 229 871 l 1
 340 744 l 1
 264 744 l 1
171 265 m 1
 431 265 l 1
 301 619 l 1
 171 265 l 1
149 205 m 1
 75 0 l 1
 10 0 l 1
 271 700 l 1
 331 700 l 1
 592 0 l 1
 527 0 l 1
 453 205 l 1
 149 205 l 1
EndSplineSet
Validated: 1
EndChar

StartChar: Aacute
Encoding: 193 193 126
GlifName: A_acute
Width: 601
Flags: HW
HStem: 0 21G<10 82 520 592> 205 60<171 431> 619 81<231 371>
LayerCount: 2
Fore
SplineSet
171 265 m 1
 431 265 l 1
 301 619 l 1
 171 265 l 1
149 205 m 1
 75 0 l 1
 10 0 l 1
 271 700 l 1
 331 700 l 1
 592 0 l 1
 527 0 l 1
 453 205 l 1
 149 205 l 1
263 744 m 1
 372 870 l 1
 461 870 l 1
 339 744 l 1
 263 744 l 1
EndSplineSet
Validated: 1
EndChar

StartChar: Acircumflex
Encoding: 194 194 127
GlifName: A_circumflex
Width: 601
Flags: HW
HStem: 0 21G<10 82 520 592> 205 60<171 431> 619 81<231 371>
LayerCount: 2
Fore
SplineSet
135 744 m 1
 255 870 l 1
 337 870 l 1
 457 744 l 1
 375 744 l 1
 296 824 l 5
 217 744 l 1
 135 744 l 1
171 265 m 1
 431 265 l 1
 301 619 l 1
 171 265 l 1
149 205 m 1
 75 0 l 1
 10 0 l 1
 271 700 l 1
 331 700 l 1
 592 0 l 1
 527 0 l 1
 453 205 l 1
 149 205 l 1
EndSplineSet
Validated: 1
EndChar

StartChar: Atilde
Encoding: 195 195 128
GlifName: A_tilde
Width: 601
Flags: HW
HStem: 0 21G<10 82 520 592> 205 60<171 431> 619 81<231 371> 742 56<321 389> 814 56<205 271>
VStem: 140 59<777 810> 394 59<802 836>
LayerCount: 2
Fore
SplineSet
356 742 m 0
 327 742 303 754 283 778 c 0
 275 787 268 796 261 803 c 0
 254 810 247 814 239 814 c 0
 218 814 205 802 199 777 c 1
 140 777 l 1
 143 803 154 824 173 842 c 0
 192 860 214 870 239 870 c 0
 264 870 287 858 308 834 c 0
 316 825 324 816 331 809 c 0
 338 802 347 798 356 798 c 0
 377 798 390 811 394 836 c 1
 453 836 l 1
 449 809 438 787 420 769 c 0
 402 751 381 742 356 742 c 0
171 265 m 1
 431 265 l 1
 301 619 l 1
 171 265 l 1
149 205 m 1
 75 0 l 1
 10 0 l 1
 271 700 l 1
 331 700 l 1
 592 0 l 1
 527 0 l 1
 453 205 l 1
 149 205 l 1
EndSplineSet
Validated: 1
EndChar

StartChar: Adieresis
Encoding: 196 196 129
GlifName: A_dieresis
Width: 601
Flags: HW
HStem: 0 21G<10 82 520 592> 205 60<171 431> 619 81<231 371> 800 80<143 199 385 441>
VStem: 131 80<812 868> 373 80<812 868>
LayerCount: 2
Fore
SplineSet
171 880 m 4
 182 880 192 877 200 869 c 4
 208 861 211 851 211 840 c 4
 211 829 208 820 200 812 c 4
 192 804 182 800 171 800 c 4
 160 800 151 804 143 812 c 4
 135 820 131 829 131 840 c 4
 131 851 135 861 143 869 c 4
 151 877 160 880 171 880 c 4
413 880 m 4
 424 880 433 877 441 869 c 4
 449 861 453 851 453 840 c 4
 453 829 449 820 441 812 c 4
 433 804 424 800 413 800 c 4
 402 800 392 804 384 812 c 4
 376 820 373 829 373 840 c 4
 373 851 376 861 384 869 c 4
 392 877 402 880 413 880 c 4
171 265 m 1
 431 265 l 1
 301 619 l 1
 171 265 l 1
149 205 m 1
 75 0 l 1
 10 0 l 1
 271 700 l 1
 331 700 l 1
 592 0 l 1
 527 0 l 1
 453 205 l 1
 149 205 l 1
EndSplineSet
Validated: 1
EndChar

StartChar: Aring
Encoding: 197 197 130
GlifName: A_ring
Width: 601
Flags: HW
HStem: 0 21G<10 82 520 592> 205 60<171 431> 619 81<231 371> 733 45<269 332> 859 45<269 332>
VStem: 215 45<787 851> 340 45<787 851>
LayerCount: 2
Fore
SplineSet
300 904 m 0
 323 904 344 896 361 879 c 0
 378 862 386 842 386 819 c 0
 386 796 378 776 361 759 c 0
 344 742 323 733 300 733 c 0
 277 733 257 742 240 759 c 0
 223 776 215 796 215 819 c 0
 215 842 223 862 240 879 c 0
 257 896 277 904 300 904 c 0
300 859 m 0
 289 859 280 855 272 847 c 0
 264 839 261 830 261 819 c 0
 261 808 264 799 272 791 c 0
 280 783 289 779 300 779 c 0
 311 779 321 783 329 791 c 0
 337 799 340 808 340 819 c 0
 340 830 337 839 329 847 c 0
 321 855 311 859 300 859 c 0
171 265 m 1
 431 265 l 1
 301 619 l 1
 171 265 l 1
149 205 m 1
 75 0 l 1
 10 0 l 1
 271 700 l 1
 331 700 l 1
 592 0 l 1
 527 0 l 1
 453 205 l 1
 149 205 l 1
EndSplineSet
Validated: 1
EndChar

StartChar: AE
Encoding: 198 198 131
GlifName: A_E_
Width: 994
Flags: HW
HStem: 0 60<560 903> 205 60<268 500> 331 60<560 839> 640 60<560 903>
VStem: 500 60<60 205 265 331 391 596>
LayerCount: 2
Fore
SplineSet
500 700 m 1
 903 700 l 1
 903 640 l 1
 560 640 l 1
 560 391 l 1
 839 391 l 1
 839 331 l 1
 560 331 l 1
 560 60 l 1
 903 60 l 1
 903 0 l 1
 500 0 l 1
 500 205 l 1
 226 205 l 1
 82 0 l 1
 8 0 l 1
 500 700 l 1
500 596 m 1
 268 265 l 1
 500 265 l 1
 500 596 l 1
EndSplineSet
Validated: 1
EndChar

StartChar: Ccedilla
Encoding: 199 199 132
GlifName: C_cedilla
Width: 677
Flags: HW
HStem: -210 57<288 404> -12 60<281 397> 652 60<279 497>
VStem: 50 60<230 470> 432 57<-125 -15>
LayerCount: 2
Fore
SplineSet
444 33 m 1
 474 5 489 -29 489 -70 c 0
 489 -109 475 -142 448 -169 c 0
 421 -196 388 -210 349 -210 c 0
 317 -210 289 -201 264 -181 c 1
 288 -152 301 -137 301 -137 c 5
 315 -147 331 -153 349 -153 c 0
 371 -153 391 -144 407 -128 c 0
 423 -112 432 -92 432 -70 c 0
 432 -54 427 -39 419 -26 c 0
 411 -13 401 -3 387 4 c 1
 444 33 l 1
389 712 m 0
 439 712 486 703 528 683 c 0
 570 663 607 636 638 600 c 1
 595 556 l 1
 541 620 473 652 389 652 c 0
 308 652 241 623 189 564 c 0
 137 505 110 434 110 350 c 0
 110 266 137 195 189 136 c 0
 241 77 308 48 389 48 c 0
 473 48 541 80 595 144 c 1
 638 101 l 1
 607 65 570 38 528 18 c 0
 486 -2 439 -12 389 -12 c 0
 290 -12 209 23 146 93 c 0
 83 163 50 248 50 350 c 0
 50 452 83 537 146 607 c 0
 209 677 290 712 389 712 c 0
EndSplineSet
Validated: 5
EndChar

StartChar: Egrave
Encoding: 200 200 133
GlifName: E_grave
Width: 592
Flags: HW
HStem: 0 60<160 503> 329 60<160 439> 640 60<160 503>
VStem: 100 60<60 329 389 640>
LayerCount: 2
Fore
SplineSet
272 744 m 1
 148 871 l 1
 237 871 l 1
 348 744 l 1
 272 744 l 1
100 0 m 1
 100 700 l 1
 503 700 l 1
 503 640 l 1
 160 640 l 1
 160 389 l 1
 439 389 l 1
 439 329 l 1
 160 329 l 1
 160 60 l 1
 503 60 l 1
 503 0 l 1
 100 0 l 1
EndSplineSet
Validated: 1
EndChar

StartChar: Eacute
Encoding: 201 201 134
GlifName: E_acute
Width: 592
Flags: HW
HStem: 0 60<160 503> 329 60<160 439> 640 60<160 503>
VStem: 100 60<60 329 389 640>
LayerCount: 2
Fore
SplineSet
100 0 m 1
 100 700 l 1
 503 700 l 1
 503 640 l 1
 160 640 l 1
 160 389 l 1
 439 389 l 1
 439 329 l 1
 160 329 l 1
 160 60 l 1
 503 60 l 1
 503 0 l 1
 100 0 l 1
257 744 m 1
 366 870 l 1
 455 870 l 1
 333 744 l 1
 257 744 l 1
EndSplineSet
Validated: 1
EndChar

StartChar: Ecircumflex
Encoding: 202 202 135
GlifName: E_circumflex
Width: 592
Flags: HW
HStem: 0 60<160 503> 329 60<160 439> 640 60<160 503>
VStem: 100 60<60 329 389 640>
LayerCount: 2
Fore
SplineSet
146 744 m 1
 266 870 l 1
 348 870 l 1
 468 744 l 1
 386 744 l 1
 307 824 l 5
 228 744 l 1
 146 744 l 1
100 0 m 1
 100 700 l 1
 503 700 l 1
 503 640 l 1
 160 640 l 1
 160 389 l 1
 439 389 l 1
 439 329 l 1
 160 329 l 1
 160 60 l 1
 503 60 l 1
 503 0 l 1
 100 0 l 1
EndSplineSet
Validated: 1
EndChar

StartChar: Edieresis
Encoding: 203 203 136
GlifName: E_dieresis
Width: 592
Flags: HW
HStem: 0 60<160 503> 329 60<160 439> 640 60<160 503> 800 80<159 215 401 457>
VStem: 100 60<60 329 389 640> 147 80<812 868> 389 80<812 868>
LayerCount: 2
Fore
SplineSet
187 880 m 4xf6
 198 880 207 877 215 869 c 4
 223 861 227 851 227 840 c 4
 227 829 223 820 215 812 c 4
 207 804 198 800 187 800 c 4
 176 800 167 804 159 812 c 4
 151 820 147 829 147 840 c 4
 147 851 151 861 159 869 c 4
 167 877 176 880 187 880 c 4xf6
429 880 m 4
 440 880 450 877 458 869 c 4
 466 861 469 851 469 840 c 4
 469 829 466 820 458 812 c 4
 450 804 440 800 429 800 c 4
 418 800 408 804 400 812 c 4
 392 820 389 829 389 840 c 4
 389 851 392 861 400 869 c 4
 408 877 418 880 429 880 c 4
100 0 m 1xfa
 100 700 l 1
 503 700 l 1
 503 640 l 1
 160 640 l 1
 160 389 l 1
 439 389 l 1
 439 329 l 1
 160 329 l 1
 160 60 l 1
 503 60 l 1
 503 0 l 1
 100 0 l 1xfa
EndSplineSet
Validated: 1
EndChar

StartChar: Igrave
Encoding: 204 204 137
GlifName: I_grave
Width: 259
Flags: HW
HStem: 0 21G<100 160> 680 20G<100 160>
VStem: 100 60<0 700>
LayerCount: 2
Fore
SplineSet
97 744 m 1
 -27 871 l 1
 62 871 l 1
 173 744 l 1
 97 744 l 1
100 0 m 1
 100 700 l 1
 160 700 l 1
 160 0 l 1
 100 0 l 1
EndSplineSet
Validated: 1
EndChar

StartChar: Iacute
Encoding: 205 205 138
GlifName: I_acute
Width: 259
Flags: HW
HStem: 0 21G<100 160> 680 20G<100 160>
VStem: 100 60<0 700>
LayerCount: 2
Fore
SplineSet
100 0 m 1
 100 700 l 1
 160 700 l 1
 160 0 l 1
 100 0 l 1
91 740 m 1
 200 866 l 1
 289 866 l 1
 167 740 l 1
 91 740 l 1
EndSplineSet
Validated: 1
EndChar

StartChar: Icircumflex
Encoding: 206 206 139
GlifName: I_circumflex
Width: 259
Flags: HW
HStem: 0 21G<100 160> 680 20G<100 160>
VStem: 100 60<0 700>
LayerCount: 2
Fore
SplineSet
-32 744 m 1
 88 870 l 1
 170 870 l 1
 290 744 l 1
 208 744 l 1
 129 824 l 5
 50 744 l 1
 -32 744 l 1
100 0 m 1
 100 700 l 1
 160 700 l 1
 160 0 l 1
 100 0 l 1
EndSplineSet
Validated: 1
EndChar

StartChar: Idieresis
Encoding: 207 207 140
GlifName: I_dieresis
Width: 259
Flags: HW
HStem: 0 21G<100 160> 680 20G<100 160> 800 80<30 86 170 226>
VStem: 18 80<812 868> 100 60<0 700> 158 80<812 868>
LayerCount: 2
Fore
SplineSet
100 0 m 1xf8
 100 700 l 1
 160 700 l 1
 160 0 l 1
 100 0 l 1xf8
58 880 m 0
 69 880 78 877 86 869 c 0
 94 861 98 851 98 840 c 0
 98 829 94 820 86 812 c 0
 78 804 69 800 58 800 c 0
 47 800 37 804 29 812 c 0
 21 820 18 829 18 840 c 0
 18 851 21 861 29 869 c 0
 37 877 47 880 58 880 c 0
198 880 m 0
 209 880 219 877 227 869 c 0
 235 861 238 851 238 840 c 0
 238 829 235 820 227 812 c 0
 219 804 209 800 198 800 c 0
 187 800 177 804 169 812 c 0
 161 820 158 829 158 840 c 0xf4
 158 851 161 861 169 869 c 0
 177 877 187 880 198 880 c 0
EndSplineSet
Validated: 1
EndChar

StartChar: Eth
Encoding: 208 208 141
GlifName: E_th
Width: 682
Flags: HW
HStem: 0 60<160 394> 319 60<50 298> 640 60<160 394>
VStem: 100 60<60 640> 573 60<239 461>
LayerCount: 2
Fore
SplineSet
283 640 m 2
 160 640 l 1
 160 60 l 1
 283 60 l 2
 363 60 431 88 488 145 c 0
 545 202 573 270 573 350 c 0
 573 430 545 498 488 555 c 0
 431 612 363 640 283 640 c 2
283 700 m 2
 380 700 462 666 530 598 c 0
 598 530 633 447 633 350 c 0
 633 253 598 171 530 103 c 0
 462 35 380 0 283 0 c 2
 100 0 l 1
 100 700 l 1
 283 700 l 2
50 319 m 1
 50 379 l 1
 298 379 l 1
 298 319 l 1
 50 319 l 1
EndSplineSet
Validated: 5
EndChar

StartChar: Ntilde
Encoding: 209 209 142
GlifName: N_tilde
Width: 733
Flags: HW
HStem: 0 21G<100 160 560 634> 680 20G<100 174 574 634> 742 56<387 455> 814 56<271 336>
VStem: 100 60<0 594> 206 59<777 810> 460 59<802 836> 574 60<106 700>
LayerCount: 2
Fore
SplineSet
422 742 m 0
 393 742 369 754 349 778 c 0
 341 787 334 796 327 803 c 0
 320 810 313 814 305 814 c 0
 284 814 271 802 265 777 c 1
 206 777 l 1
 209 803 220 824 239 842 c 0
 258 860 280 870 305 870 c 0
 330 870 353 858 374 834 c 0
 382 825 390 816 397 809 c 0
 404 802 413 798 422 798 c 0
 443 798 456 811 460 836 c 1
 519 836 l 1
 515 809 504 787 486 769 c 0
 468 751 447 742 422 742 c 0
100 700 m 1
 160 700 l 1
 574 106 l 1
 574 700 l 1
 634 700 l 1
 634 0 l 1
 574 0 l 1
 160 594 l 1
 160 0 l 1
 100 0 l 1
 100 700 l 1
EndSplineSet
Validated: 1
EndChar

StartChar: Ograve
Encoding: 210 210 143
GlifName: O_grave
Width: 775
Flags: HW
HStem: -12 60<281 497> 652 60<279 496>
VStem: 50 60<230 470> 666 60<230 470>
LayerCount: 2
Fore
SplineSet
357 744 m 1
 233 871 l 1
 322 871 l 1
 433 744 l 1
 357 744 l 1
388 652 m 0
 307 652 240 623 188 564 c 0
 136 505 110 434 110 350 c 0
 110 266 136 195 188 136 c 0
 240 77 307 48 388 48 c 0
 469 48 535 77 587 136 c 0
 639 195 666 266 666 350 c 0
 666 434 639 505 587 564 c 0
 535 623 469 652 388 652 c 0
388 712 m 0
 487 712 568 677 631 607 c 0
 694 537 726 452 726 350 c 0
 726 248 694 163 631 93 c 0
 568 23 487 -12 388 -12 c 0
 289 -12 208 23 145 93 c 0
 82 163 50 248 50 350 c 0
 50 452 82 537 145 607 c 0
 208 677 289 712 388 712 c 0
EndSplineSet
Validated: 1
EndChar

StartChar: Oacute
Encoding: 211 211 144
GlifName: O_acute
Width: 775
Flags: HW
HStem: -12 60<281 497> 652 60<279 496>
VStem: 50 60<230 470> 666 60<230 470>
LayerCount: 2
Fore
SplineSet
388 652 m 0
 307 652 240 623 188 564 c 0
 136 505 110 434 110 350 c 0
 110 266 136 195 188 136 c 0
 240 77 307 48 388 48 c 0
 469 48 535 77 587 136 c 0
 639 195 666 266 666 350 c 0
 666 434 639 505 587 564 c 0
 535 623 469 652 388 652 c 0
388 712 m 0
 487 712 568 677 631 607 c 0
 694 537 726 452 726 350 c 0
 726 248 694 163 631 93 c 0
 568 23 487 -12 388 -12 c 0
 289 -12 208 23 145 93 c 0
 82 163 50 248 50 350 c 0
 50 452 82 537 145 607 c 0
 208 677 289 712 388 712 c 0
352 740 m 1
 461 866 l 1
 550 866 l 1
 428 740 l 1
 352 740 l 1
EndSplineSet
Validated: 1
EndChar

StartChar: Ocircumflex
Encoding: 212 212 145
GlifName: O_circumflex
Width: 775
Flags: HW
HStem: -12 60<281 497> 652 60<279 496>
VStem: 50 60<230 470> 666 60<230 470>
LayerCount: 2
Fore
SplineSet
228 744 m 1
 348 870 l 1
 430 870 l 1
 550 744 l 1
 468 744 l 1
 389 824 l 5
 310 744 l 1
 228 744 l 1
388 652 m 0
 307 652 240 623 188 564 c 0
 136 505 110 434 110 350 c 0
 110 266 136 195 188 136 c 0
 240 77 307 48 388 48 c 0
 469 48 535 77 587 136 c 0
 639 195 666 266 666 350 c 0
 666 434 639 505 587 564 c 0
 535 623 469 652 388 652 c 0
388 712 m 0
 487 712 568 677 631 607 c 0
 694 537 726 452 726 350 c 0
 726 248 694 163 631 93 c 0
 568 23 487 -12 388 -12 c 0
 289 -12 208 23 145 93 c 0
 82 163 50 248 50 350 c 0
 50 452 82 537 145 607 c 0
 208 677 289 712 388 712 c 0
EndSplineSet
Validated: 1
EndChar

StartChar: Otilde
Encoding: 213 213 146
GlifName: O_tilde
Width: 775
Flags: HW
HStem: -12 60<281 497> 652 60<279 496> 742 56<417 485> 814 56<300 366>
VStem: 50 60<230 470> 236 59<777 810> 490 59<802 836> 666 60<230 470>
LayerCount: 2
Fore
SplineSet
452 742 m 0
 423 742 398 754 378 778 c 0
 370 787 364 796 357 803 c 0
 350 810 343 814 335 814 c 0
 314 814 301 802 295 777 c 1
 236 777 l 1
 239 803 250 824 269 842 c 0
 288 860 310 870 335 870 c 0
 360 870 383 858 404 834 c 0
 412 825 420 816 427 809 c 0
 434 802 443 798 452 798 c 0
 473 798 486 811 490 836 c 1
 549 836 l 1
 545 809 535 787 517 769 c 0
 499 751 477 742 452 742 c 0
388 652 m 0
 307 652 240 623 188 564 c 0
 136 505 110 434 110 350 c 0
 110 266 136 195 188 136 c 0
 240 77 307 48 388 48 c 0
 469 48 535 77 587 136 c 0
 639 195 666 266 666 350 c 0
 666 434 639 505 587 564 c 0
 535 623 469 652 388 652 c 0
388 712 m 0
 487 712 568 677 631 607 c 0
 694 537 726 452 726 350 c 0
 726 248 694 163 631 93 c 0
 568 23 487 -12 388 -12 c 0
 289 -12 208 23 145 93 c 0
 82 163 50 248 50 350 c 0
 50 452 82 537 145 607 c 0
 208 677 289 712 388 712 c 0
EndSplineSet
Validated: 1
EndChar

StartChar: Odieresis
Encoding: 214 214 147
GlifName: O_dieresis
Width: 775
Flags: HW
HStem: -12 60<281 497> 652 60<279 496> 800 80<241 297 483 539>
VStem: 50 60<230 470> 229 80<812 868> 471 80<812 868> 666 60<230 470>
LayerCount: 2
Fore
SplineSet
269 880 m 4
 280 880 289 877 297 869 c 4
 305 861 309 851 309 840 c 4
 309 829 305 820 297 812 c 4
 289 804 280 800 269 800 c 4
 258 800 249 804 241 812 c 4
 233 820 229 829 229 840 c 4
 229 851 233 861 241 869 c 4
 249 877 258 880 269 880 c 4
511 880 m 4
 522 880 532 877 540 869 c 4
 548 861 551 851 551 840 c 4
 551 829 548 820 540 812 c 4
 532 804 522 800 511 800 c 4
 500 800 490 804 482 812 c 4
 474 820 471 829 471 840 c 4
 471 851 474 861 482 869 c 4
 490 877 500 880 511 880 c 4
388 652 m 0
 307 652 240 623 188 564 c 0
 136 505 110 434 110 350 c 0
 110 266 136 195 188 136 c 0
 240 77 307 48 388 48 c 0
 469 48 535 77 587 136 c 0
 639 195 666 266 666 350 c 0
 666 434 639 505 587 564 c 0
 535 623 469 652 388 652 c 0
388 712 m 0
 487 712 568 677 631 607 c 0
 694 537 726 452 726 350 c 0
 726 248 694 163 631 93 c 0
 568 23 487 -12 388 -12 c 0
 289 -12 208 23 145 93 c 0
 82 163 50 248 50 350 c 0
 50 452 82 537 145 607 c 0
 208 677 289 712 388 712 c 0
EndSplineSet
Validated: 1
EndChar

StartChar: multiply
Encoding: 215 215 148
GlifName: multiply
Width: 619
Flags: HW
LayerCount: 2
Fore
SplineSet
163 106 m 1
 121 148 l 1
 269 296 l 1
 121 444 l 1
 163 487 l 1
 311 339 l 1
 459 487 l 1
 502 444 l 1
 354 296 l 1
 502 148 l 1
 459 106 l 1
 311 254 l 1
 163 106 l 1
EndSplineSet
Validated: 1
EndChar

StartChar: Oslash
Encoding: 216 216 149
GlifName: O_slash
Width: 775
Flags: HW
HStem: -12 60<284 500> 652 60<282 499>
VStem: 53 60<230 470> 669 60<230 470>
LayerCount: 2
Fore
SplineSet
391 652 m 0
 310 652 243 623 191 564 c 0
 139 505 113 434 113 350 c 0
 113 266 139 195 191 136 c 0
 243 77 310 48 391 48 c 0
 472 48 538 77 590 136 c 0
 642 195 669 266 669 350 c 0
 669 434 642 505 590 564 c 0
 538 623 472 652 391 652 c 0
391 712 m 0
 490 712 571 677 634 607 c 0
 697 537 729 452 729 350 c 0
 729 248 697 163 634 93 c 0
 571 23 490 -12 391 -12 c 0
 292 -12 211 23 148 93 c 0
 85 163 53 248 53 350 c 0
 53 452 85 537 148 607 c 0
 211 677 292 712 391 712 c 0
127 -11 m 5
 82 28 l 1
 654 711 l 1
 701 672 l 1
 127 -11 l 5
EndSplineSet
Validated: 5
EndChar

StartChar: Ugrave
Encoding: 217 217 150
GlifName: U_grave
Width: 708
Flags: HW
HStem: -12 60<265 444> 680 20G<90 150 559 619>
VStem: 90 60<170 700> 559 60<170 700>
LayerCount: 2
Fore
SplineSet
318 744 m 1
 194 871 l 1
 283 871 l 1
 394 744 l 1
 318 744 l 1
90 700 m 1
 150 700 l 1
 150 283 l 2
 150 213 169 156 209 113 c 0
 249 70 296 48 354 48 c 0
 412 48 460 70 500 113 c 0
 540 156 559 213 559 283 c 2
 559 700 l 1
 619 700 l 1
 619 283 l 2
 619 195 593 123 543 69 c 0
 493 15 430 -12 354 -12 c 0
 278 -12 216 15 166 69 c 0
 116 123 90 195 90 283 c 2
 90 700 l 1
EndSplineSet
Validated: 1
EndChar

StartChar: Uacute
Encoding: 218 218 151
GlifName: U_acute
Width: 708
Flags: HW
HStem: -12 60<265 444> 680 20G<90 150 559 619>
VStem: 90 60<170 700> 559 60<170 700>
LayerCount: 2
Fore
SplineSet
311 744 m 1
 420 870 l 1
 509 870 l 1
 387 744 l 1
 311 744 l 1
90 700 m 1
 150 700 l 1
 150 283 l 2
 150 213 169 156 209 113 c 0
 249 70 296 48 354 48 c 0
 412 48 460 70 500 113 c 0
 540 156 559 213 559 283 c 2
 559 700 l 1
 619 700 l 1
 619 283 l 2
 619 195 593 123 543 69 c 0
 493 15 430 -12 354 -12 c 0
 278 -12 216 15 166 69 c 0
 116 123 90 195 90 283 c 2
 90 700 l 1
EndSplineSet
Validated: 1
EndChar

StartChar: Ucircumflex
Encoding: 219 219 152
GlifName: U_circumflex
Width: 708
Flags: HW
HStem: -12 60<265 444> 680 20G<90 150 559 619>
VStem: 90 60<170 700> 559 60<170 700>
LayerCount: 2
Fore
SplineSet
194 744 m 1
 314 870 l 1
 396 870 l 1
 516 744 l 1
 434 744 l 1
 355 824 l 5
 276 744 l 1
 194 744 l 1
90 700 m 1
 150 700 l 1
 150 283 l 2
 150 213 169 156 209 113 c 0
 249 70 296 48 354 48 c 0
 412 48 460 70 500 113 c 0
 540 156 559 213 559 283 c 2
 559 700 l 1
 619 700 l 1
 619 283 l 2
 619 195 593 123 543 69 c 0
 493 15 430 -12 354 -12 c 0
 278 -12 216 15 166 69 c 0
 116 123 90 195 90 283 c 2
 90 700 l 1
EndSplineSet
Validated: 1
EndChar

StartChar: Udieresis
Encoding: 220 220 153
GlifName: U_dieresis
Width: 708
Flags: HW
HStem: -12 60<265 444> 680 20G<90 150 559 619> 800 80<197 253 439 495>
VStem: 90 60<170 700> 185 80<812 868> 427 80<812 868> 559 60<170 700>
LayerCount: 2
Fore
SplineSet
225 880 m 4
 236 880 245 877 253 869 c 4
 261 861 265 851 265 840 c 4
 265 829 261 820 253 812 c 4
 245 804 236 800 225 800 c 4
 214 800 204 804 196 812 c 4
 188 820 185 829 185 840 c 4
 185 851 188 861 196 869 c 4
 204 877 214 880 225 880 c 4
467 880 m 4
 478 880 488 877 496 869 c 4
 504 861 507 851 507 840 c 4
 507 829 504 820 496 812 c 4
 488 804 478 800 467 800 c 4
 456 800 446 804 438 812 c 4
 430 820 427 829 427 840 c 4
 427 851 430 861 438 869 c 4
 446 877 456 880 467 880 c 4
90 700 m 1
 150 700 l 1
 150 283 l 2
 150 213 169 156 209 113 c 0
 249 70 296 48 354 48 c 0
 412 48 460 70 500 113 c 0
 540 156 559 213 559 283 c 2
 559 700 l 1
 619 700 l 1
 619 283 l 2
 619 195 593 123 543 69 c 0
 493 15 430 -12 354 -12 c 0
 278 -12 216 15 166 69 c 0
 116 123 90 195 90 283 c 2
 90 700 l 1
EndSplineSet
Validated: 1
EndChar

StartChar: Yacute
Encoding: 221 221 154
GlifName: Y_acute
Width: 525
Flags: HW
HStem: 0 21G<233 293> 680 20G<10 93 433 516>
VStem: 233 60<0 321>
LayerCount: 2
Fore
SplineSet
209 744 m 1
 318 870 l 1
 408 870 l 1
 286 744 l 1
 209 744 l 1
10 700 m 1
 81 700 l 1
 263 390 l 1
 445 700 l 1
 516 700 l 1
 293 321 l 5
 293 0 l 1
 233 0 l 1
 233 321 l 1
 10 700 l 1
EndSplineSet
Validated: 1
EndChar

StartChar: Thorn
Encoding: 222 222 155
GlifName: T_horn
Width: 569
Flags: HW
HStem: 1 21G<100 160> 144 60<160 401> 518 60<160 401> 681 20G<100 160>
VStem: 100 60<1 144 204 518 578 701> 480 60<282 440>
LayerCount: 2
Fore
SplineSet
100 701 m 1
 160 701 l 1
 160 578 l 1
 323 578 l 2
 383 578 435 557 477 515 c 0
 519 473 540 421 540 361 c 0
 540 301 519 250 477 208 c 0
 435 166 383 144 323 144 c 2
 160 144 l 1
 160 1 l 1
 100 1 l 1
 100 701 l 1
160 518 m 1
 160 204 l 1
 323 204 l 2
 366 204 403 219 434 250 c 0
 465 281 480 318 480 361 c 0
 480 404 465 441 434 472 c 0
 403 503 366 518 323 518 c 2
 160 518 l 1
EndSplineSet
Validated: 1
EndChar

StartChar: germandbls
Encoding: 223 223 156
GlifName: germandbls
Width: 550
Flags: HW
HStem: 0 60<239 371> 327 60<244 361> 652 60<200 356>
VStem: 75 60<0 589> 421 60<446 589> 441 60<125 262>
LayerCount: 2
Fore
SplineSet
278 712 m 0xf8
 334 712 381 693 421 655 c 0
 461 617 481 572 481 519 c 0xf8
 481 486 473 456 458 428 c 0
 443 400 423 378 397 360 c 1
 429 343 454 319 473 290 c 0
 492 261 501 228 501 193 c 0
 501 140 480 95 438 57 c 0
 396 19 347 0 288 0 c 2
 239 0 l 1
 239 60 l 1
 288 60 l 2
 330 60 366 73 396 99 c 0
 426 125 441 156 441 193 c 0xf4
 441 230 426 262 396 288 c 0
 366 314 330 327 288 327 c 2
 244 327 l 1
 244 387 l 1
 288 387 l 2
 325 387 356 399 382 425 c 0
 408 451 421 482 421 519 c 0
 421 556 407 587 379 613 c 0
 351 639 318 652 278 652 c 0
 238 652 205 639 177 613 c 0
 149 587 135 556 135 519 c 2
 135 0 l 1
 75 0 l 1
 75 519 l 2
 75 572 94 617 134 655 c 0
 174 693 222 712 278 712 c 0xf8
EndSplineSet
Validated: 1
EndChar

StartChar: agrave
Encoding: 224 224 157
GlifName: agrave
Width: 602
Flags: HW
HStem: -12 61<201 377> 0 21G<468 528> 452 61<201 377> 480 20G<468 528> 681 20G<156 263>
VStem: 45 60<152 348> 468 60<0 85 147 353 415 500>
LayerCount: 2
Fore
SplineSet
280 574 m 1x0e
 156 701 l 1
 245 701 l 1
 356 574 l 1
 280 574 l 1x0e
468 500 m 1x1e
 528 500 l 1
 528 0 l 1
 468 0 l 1x5e
 468 85 l 1
 463 77 458 69 452 62 c 0
 413 13 360 -12 290 -12 c 0
 219 -12 160 13 114 64 c 0
 68 115 45 177 45 250 c 0
 45 323 68 385 114 436 c 0
 160 487 219 512 290 512 c 0xae
 360 512 413 487 452 438 c 0
 458 431 463 423 468 415 c 1
 468 500 l 1x1e
290 452 m 0xae
 235 452 190 433 156 394 c 0
 122 355 105 307 105 250 c 0
 105 193 122 145 156 106 c 0
 190 67 235 48 290 48 c 0
 344 48 387 67 419 106 c 0
 451 145 468 192 468 250 c 0
 468 308 451 355 419 394 c 0
 387 433 344 452 290 452 c 0xae
EndSplineSet
Validated: 1
EndChar

StartChar: aacute
Encoding: 225 225 158
GlifName: aacute
Width: 602
Flags: HW
HStem: -12 61<201 377> 0 21G<468 528> 452 61<201 377> 480 20G<468 528> 680 20G<363 469>
VStem: 45 60<152 348> 468 60<0 85 147 353 415 500>
LayerCount: 2
Fore
SplineSet
271 574 m 1x0e
 380 700 l 1
 469 700 l 1
 347 574 l 1
 271 574 l 1x0e
468 500 m 1x1e
 528 500 l 1
 528 0 l 1
 468 0 l 1x5e
 468 85 l 1
 463 77 458 69 452 62 c 0
 413 13 360 -12 290 -12 c 0
 219 -12 160 13 114 64 c 0
 68 115 45 177 45 250 c 0
 45 323 68 385 114 436 c 0
 160 487 219 512 290 512 c 0xae
 360 512 413 487 452 438 c 0
 458 431 463 423 468 415 c 1
 468 500 l 1x1e
290 452 m 0xae
 235 452 190 433 156 394 c 0
 122 355 105 307 105 250 c 0
 105 193 122 145 156 106 c 0
 190 67 235 48 290 48 c 0
 344 48 387 67 419 106 c 0
 451 145 468 192 468 250 c 0
 468 308 451 355 419 394 c 0
 387 433 344 452 290 452 c 0xae
EndSplineSet
Validated: 1
EndChar

StartChar: acircumflex
Encoding: 226 226 159
GlifName: acircumflex
Width: 602
Flags: HW
HStem: -12 61<201 377> 0 21G<468 528> 452 61<201 377> 480 20G<468 528> 680 20G<242 362>
VStem: 45 60<152 348> 468 60<0 85 147 353 415 500>
LayerCount: 2
Fore
SplineSet
141 574 m 1x0e
 261 700 l 1
 343 700 l 1
 463 574 l 1
 381 574 l 1
 302 654 l 5
 223 574 l 1
 141 574 l 1x0e
468 500 m 1x1e
 528 500 l 1
 528 0 l 1
 468 0 l 1x5e
 468 85 l 1
 463 77 458 69 452 62 c 0
 413 13 360 -12 290 -12 c 0
 219 -12 160 13 114 64 c 0
 68 115 45 177 45 250 c 0
 45 323 68 385 114 436 c 0
 160 487 219 512 290 512 c 0xae
 360 512 413 487 452 438 c 0
 458 431 463 423 468 415 c 1
 468 500 l 1x1e
290 452 m 0xae
 235 452 190 433 156 394 c 0
 122 355 105 307 105 250 c 0
 105 193 122 145 156 106 c 0
 190 67 235 48 290 48 c 0
 344 48 387 67 419 106 c 0
 451 145 468 192 468 250 c 0
 468 308 451 355 419 394 c 0
 387 433 344 452 290 452 c 0xae
EndSplineSet
Validated: 1
EndChar

StartChar: atilde
Encoding: 227 227 160
GlifName: atilde
Width: 602
Flags: HW
HStem: -12 61<201 377> 0 21G<468 528> 452 61<201 377> 480 20G<468 528> 572 56<322 390> 644 56<206 271>
VStem: 45 60<152 348> 141 59<607 640> 395 59<632 666> 468 60<0 85 147 353 415 500>
LayerCount: 2
Fore
SplineSet
357 572 m 0x0fc0
 328 572 304 584 284 608 c 0
 276 617 269 626 262 633 c 0
 255 640 248 644 240 644 c 0
 219 644 206 632 200 607 c 1
 141 607 l 1
 144 633 155 654 174 672 c 0
 193 690 215 700 240 700 c 0
 265 700 288 688 309 664 c 0
 317 655 325 646 332 639 c 0
 339 632 348 628 357 628 c 0
 378 628 391 641 395 666 c 1
 454 666 l 1
 450 639 439 617 421 599 c 0
 403 581 382 572 357 572 c 0x0fc0
468 500 m 1x1fc0
 528 500 l 1
 528 0 l 1
 468 0 l 1x5fc0
 468 85 l 1
 463 77 458 69 452 62 c 0
 413 13 360 -12 290 -12 c 0
 219 -12 160 13 114 64 c 0
 68 115 45 177 45 250 c 0
 45 323 68 385 114 436 c 0
 160 487 219 512 290 512 c 0xafc0
 360 512 413 487 452 438 c 0
 458 431 463 423 468 415 c 1
 468 500 l 1x1fc0
290 452 m 0xafc0
 235 452 190 433 156 394 c 0
 122 355 105 307 105 250 c 0
 105 193 122 145 156 106 c 0
 190 67 235 48 290 48 c 0
 344 48 387 67 419 106 c 0
 451 145 468 192 468 250 c 0
 468 308 451 355 419 394 c 0
 387 433 344 452 290 452 c 0xafc0
EndSplineSet
Validated: 1
EndChar

StartChar: adieresis
Encoding: 228 228 161
GlifName: adieresis
Width: 602
Flags: HW
HStem: -12 61<201 377> 0 21G<468 528> 452 61<201 377> 480 20G<468 528> 630 80<154 210 396 452>
VStem: 45 60<152 348> 142 80<642 698> 384 80<642 698> 468 60<0 85 147 353 415 500>
LayerCount: 2
Fore
SplineSet
182 710 m 4x0f80
 193 710 202 707 210 699 c 4
 218 691 222 681 222 670 c 4
 222 659 218 650 210 642 c 4
 202 634 193 630 182 630 c 4
 171 630 161 634 153 642 c 4
 145 650 142 659 142 670 c 4
 142 681 145 691 153 699 c 4
 161 707 171 710 182 710 c 4x0f80
424 710 m 4
 435 710 445 707 453 699 c 4
 461 691 464 681 464 670 c 4
 464 659 461 650 453 642 c 4
 445 634 435 630 424 630 c 4
 413 630 404 634 396 642 c 4
 388 650 384 659 384 670 c 4
 384 681 388 691 396 699 c 4
 404 707 413 710 424 710 c 4
468 500 m 1x1f80
 528 500 l 1
 528 0 l 1
 468 0 l 1x5f80
 468 85 l 1
 463 77 458 69 452 62 c 0
 413 13 360 -12 290 -12 c 0
 219 -12 160 13 114 64 c 0
 68 115 45 177 45 250 c 0
 45 323 68 385 114 436 c 0
 160 487 219 512 290 512 c 0xaf80
 360 512 413 487 452 438 c 0
 458 431 463 423 468 415 c 1
 468 500 l 1x1f80
290 452 m 0xaf80
 235 452 190 433 156 394 c 0
 122 355 105 307 105 250 c 0
 105 193 122 145 156 106 c 0
 190 67 235 48 290 48 c 0
 344 48 387 67 419 106 c 0
 451 145 468 192 468 250 c 0
 468 308 451 355 419 394 c 0
 387 433 344 452 290 452 c 0xaf80
EndSplineSet
Validated: 1
EndChar

StartChar: aring
Encoding: 229 229 162
GlifName: aring
Width: 602
Flags: HW
HStem: -12 61<201 377> 0 21G<468 528> 452 61<201 377> 480 20G<468 528> 563 45<271 334> 689 45<271 334>
VStem: 45 60<152 348> 217 45<617 681> 342 45<617 681> 468 60<0 85 147 353 415 500>
LayerCount: 2
Fore
SplineSet
303 734 m 0x0fc0
 326 734 346 726 363 709 c 0
 380 692 388 672 388 649 c 0
 388 626 380 605 363 588 c 0
 346 571 326 563 303 563 c 0
 280 563 259 571 242 588 c 0
 225 605 217 626 217 649 c 0
 217 672 225 692 242 709 c 0
 259 726 280 734 303 734 c 0x0fc0
303 689 m 0
 292 689 282 685 274 677 c 0
 266 669 263 660 263 649 c 0
 263 638 266 629 274 621 c 0
 282 613 292 609 303 609 c 0
 314 609 323 613 331 621 c 0
 339 629 342 638 342 649 c 0
 342 660 339 669 331 677 c 0
 323 685 314 689 303 689 c 0
468 500 m 1x1fc0
 528 500 l 1
 528 0 l 1
 468 0 l 1x5fc0
 468 85 l 1
 463 77 458 69 452 62 c 0
 413 13 360 -12 290 -12 c 0
 219 -12 160 13 114 64 c 0
 68 115 45 177 45 250 c 0
 45 323 68 385 114 436 c 0
 160 487 219 512 290 512 c 0xafc0
 360 512 413 487 452 438 c 0
 458 431 463 423 468 415 c 1
 468 500 l 1x1fc0
290 452 m 0xafc0
 235 452 190 433 156 394 c 0
 122 355 105 307 105 250 c 0
 105 193 122 145 156 106 c 0
 190 67 235 48 290 48 c 0
 344 48 387 67 419 106 c 0
 451 145 468 192 468 250 c 0
 468 308 451 355 419 394 c 0
 387 433 344 452 290 452 c 0xafc0
EndSplineSet
Validated: 1
EndChar

StartChar: ae
Encoding: 230 230 163
GlifName: ae
Width: 1046
Flags: HW
HStem: -12 61<201 377 696 895> 0 21G<468 528> 220 61<602 948> 452 61<201 377 696 868> 480 20G<468 528>
VStem: 45 60<152 348> 468 60<0 85 147 353 415 500> 540 62<148 220 280 352>
LayerCount: 2
Fore
SplineSet
468 500 m 1x2f
 528 500 l 1
 528 0 l 1
 468 0 l 1x6f
 468 85 l 1
 463 77 458 69 452 62 c 0
 413 13 360 -12 290 -12 c 0
 219 -12 160 13 114 64 c 0
 68 115 45 177 45 250 c 0
 45 323 68 385 114 436 c 0
 160 487 219 512 290 512 c 0xb7
 360 512 413 487 452 438 c 0
 458 431 463 423 468 415 c 1
 468 500 l 1x2f
290 452 m 0xb7
 235 452 190 433 156 394 c 0
 122 355 105 307 105 250 c 0
 105 193 122 145 156 106 c 0
 190 67 235 48 290 48 c 0
 344 48 387 67 419 106 c 0
 451 145 468 192 468 250 c 0
 468 308 451 355 419 394 c 0
 387 433 344 452 290 452 c 0xb7
1009 220 m 1
 602 220 l 1
 608 170 628 129 661 97 c 0
 694 65 736 48 785 48 c 0
 855 48 909 68 948 107 c 1
 989 63 l 1
 939 13 871 -12 785 -12 c 0
 714 -12 655 13 609 64 c 0
 563 115 540 177 540 250 c 0
 540 323 563 385 609 436 c 0
 655 487 714 512 785 512 c 0
 855 512 909 488 949 438 c 0
 989 388 1009 325 1009 250 c 2
 1009 220 l 1
785 452 m 0
 736 452 694 435 661 403 c 0
 628 371 608 330 602 280 c 1
 948 280 l 1
 943 331 927 372 899 404 c 0
 871 436 833 452 785 452 c 0
EndSplineSet
Validated: 1
EndChar

StartChar: ccedilla
Encoding: 231 231 164
GlifName: ccedilla
Width: 498
Flags: HW
HStem: -210 57<187 303> -12 61<201 337> 452 61<201 377>
VStem: 45 60<152 348> 331 57<-125 -15>
LayerCount: 2
Fore
SplineSet
343 33 m 1
 373 5 388 -29 388 -70 c 0
 388 -109 374 -142 347 -169 c 0
 320 -196 287 -210 248 -210 c 0
 216 -210 188 -201 163 -181 c 1
 187 -152 200 -137 200 -137 c 5
 214 -147 230 -153 248 -153 c 0
 270 -153 290 -144 306 -128 c 0
 322 -112 331 -92 331 -70 c 0
 331 -54 326 -39 318 -26 c 0
 310 -13 300 -3 286 4 c 1
 343 33 l 1
290 512 m 0
 360 512 418 487 464 437 c 1
 423 393 l 1
 388 432 344 452 290 452 c 0
 235 452 190 433 156 394 c 0
 122 355 105 307 105 250 c 0
 105 193 122 145 156 106 c 0
 190 67 235 48 290 48 c 0
 344 48 388 68 423 107 c 1
 464 63 l 1
 418 13 360 -12 290 -12 c 0
 219 -12 160 13 114 64 c 0
 68 115 45 177 45 250 c 0
 45 323 68 385 114 436 c 0
 160 487 219 512 290 512 c 0
EndSplineSet
Validated: 5
EndChar

StartChar: egrave
Encoding: 232 232 165
GlifName: egrave
Width: 548
Flags: HW
HStem: -12 61<201 400> 220 61<107 453> 452 61<201 373> 681 20G<139 246>
VStem: 45 62<148 220 280 352>
LayerCount: 2
Fore
SplineSet
263 574 m 1
 139 701 l 1
 228 701 l 1
 339 574 l 1
 263 574 l 1
514 220 m 1
 107 220 l 1
 113 170 133 129 166 97 c 0
 199 65 241 48 290 48 c 0
 360 48 414 68 453 107 c 1
 494 63 l 1
 444 13 376 -12 290 -12 c 0
 219 -12 160 13 114 64 c 0
 68 115 45 177 45 250 c 0
 45 323 68 385 114 436 c 0
 160 487 219 512 290 512 c 0
 360 512 414 488 454 438 c 0
 494 388 514 325 514 250 c 2
 514 220 l 1
290 452 m 0
 241 452 199 435 166 403 c 0
 133 371 113 330 107 280 c 1
 453 280 l 1
 448 331 432 372 404 404 c 0
 376 436 338 452 290 452 c 0
EndSplineSet
Validated: 1
EndChar

StartChar: eacute
Encoding: 233 233 166
GlifName: eacute
Width: 548
Flags: HW
HStem: -12 61<201 400> 220 61<107 453> 452 61<201 373> 680 20G<336 442>
VStem: 45 62<148 220 280 352>
LayerCount: 2
Fore
SplineSet
244 574 m 1
 353 700 l 1
 442 700 l 1
 320 574 l 1
 244 574 l 1
514 220 m 1
 107 220 l 1
 113 170 133 129 166 97 c 0
 199 65 241 48 290 48 c 0
 360 48 414 68 453 107 c 1
 494 63 l 1
 444 13 376 -12 290 -12 c 0
 219 -12 160 13 114 64 c 0
 68 115 45 177 45 250 c 0
 45 323 68 385 114 436 c 0
 160 487 219 512 290 512 c 0
 360 512 414 488 454 438 c 0
 494 388 514 325 514 250 c 2
 514 220 l 1
290 452 m 0
 241 452 199 435 166 403 c 0
 133 371 113 330 107 280 c 1
 453 280 l 1
 448 331 432 372 404 404 c 0
 376 436 338 452 290 452 c 0
EndSplineSet
Validated: 1
EndChar

StartChar: ecircumflex
Encoding: 234 234 167
GlifName: ecircumflex
Width: 548
Flags: HW
HStem: -12 61<201 400> 220 61<107 453> 452 61<201 373> 680 20G<225 345>
VStem: 45 62<148 220 280 352>
LayerCount: 2
Fore
SplineSet
124 574 m 1
 244 700 l 1
 326 700 l 1
 446 574 l 1
 364 574 l 1
 285 654 l 5
 206 574 l 1
 124 574 l 1
514 220 m 1
 107 220 l 1
 113 170 133 129 166 97 c 0
 199 65 241 48 290 48 c 0
 360 48 414 68 453 107 c 1
 494 63 l 1
 444 13 376 -12 290 -12 c 0
 219 -12 160 13 114 64 c 0
 68 115 45 177 45 250 c 0
 45 323 68 385 114 436 c 0
 160 487 219 512 290 512 c 0
 360 512 414 488 454 438 c 0
 494 388 514 325 514 250 c 2
 514 220 l 1
290 452 m 0
 241 452 199 435 166 403 c 0
 133 371 113 330 107 280 c 1
 453 280 l 1
 448 331 432 372 404 404 c 0
 376 436 338 452 290 452 c 0
EndSplineSet
Validated: 1
EndChar

StartChar: edieresis
Encoding: 235 235 168
GlifName: edieresis
Width: 548
Flags: HW
HStem: -12 61<201 400> 220 61<107 453> 452 61<201 373> 630 80<137 193 379 435>
VStem: 45 62<148 220 280 352> 125 80<642 698> 367 80<642 698>
LayerCount: 2
Fore
SplineSet
165 710 m 4
 176 710 185 707 193 699 c 4
 201 691 205 681 205 670 c 4
 205 659 201 650 193 642 c 4
 185 634 176 630 165 630 c 4
 154 630 145 634 137 642 c 4
 129 650 125 659 125 670 c 4
 125 681 129 691 137 699 c 4
 145 707 154 710 165 710 c 4
407 710 m 4
 418 710 428 707 436 699 c 4
 444 691 447 681 447 670 c 4
 447 659 444 650 436 642 c 4
 428 634 418 630 407 630 c 4
 396 630 386 634 378 642 c 4
 370 650 367 659 367 670 c 4
 367 681 370 691 378 699 c 4
 386 707 396 710 407 710 c 4
514 220 m 1
 107 220 l 1
 113 170 133 129 166 97 c 0
 199 65 241 48 290 48 c 0
 360 48 414 68 453 107 c 1
 494 63 l 1
 444 13 376 -12 290 -12 c 0
 219 -12 160 13 114 64 c 0
 68 115 45 177 45 250 c 0
 45 323 68 385 114 436 c 0
 160 487 219 512 290 512 c 0
 360 512 414 488 454 438 c 0
 494 388 514 325 514 250 c 2
 514 220 l 1
290 452 m 0
 241 452 199 435 166 403 c 0
 133 371 113 330 107 280 c 1
 453 280 l 1
 448 331 432 372 404 404 c 0
 376 436 338 452 290 452 c 0
EndSplineSet
Validated: 1
EndChar

StartChar: igrave
Encoding: 236 236 169
GlifName: igrave
Width: 219
Flags: HW
HStem: 0 21G<79 139> 480 20G<79 139> 681 20G<-54 52>
VStem: 79 60<0 500>
LayerCount: 2
Fore
SplineSet
70 574 m 1
 -54 701 l 1
 35 701 l 1
 146 574 l 1
 70 574 l 1
79 0 m 1
 79 500 l 1
 139 500 l 1
 139 0 l 1
 79 0 l 1
EndSplineSet
Validated: 1
EndChar

StartChar: iacute
Encoding: 237 237 170
GlifName: iacute
Width: 219
Flags: HW
HStem: 0 21G<79 139> 480 20G<79 139> 680 20G<160 266>
VStem: 79 60<0 500>
LayerCount: 2
Fore
SplineSet
68 574 m 1
 177 700 l 1
 266 700 l 1
 144 574 l 1
 68 574 l 1
79 0 m 1
 79 500 l 1
 139 500 l 1
 139 0 l 1
 79 0 l 1
EndSplineSet
Validated: 1
EndChar

StartChar: icircumflex
Encoding: 238 238 171
GlifName: icircumflex
Width: 219
Flags: HW
HStem: 0 21G<79 139> 480 20G<79 139> 680 20G<49 169>
VStem: 79 60<0 500>
LayerCount: 2
Fore
SplineSet
-52 574 m 1
 68 700 l 1
 150 700 l 1
 270 574 l 1
 188 574 l 1
 109 654 l 5
 30 574 l 1
 -52 574 l 1
79 0 m 1
 79 500 l 1
 139 500 l 1
 139 0 l 1
 79 0 l 1
EndSplineSet
Validated: 1
EndChar

StartChar: idieresis
Encoding: 239 239 172
GlifName: idieresis
Width: 219
Flags: HW
HStem: 0 21G<79 139> 480 20G<79 139> 630 80<12 68 152 208>
VStem: 0 80<642 698> 79 60<0 500> 140 80<642 698>
LayerCount: 2
Fore
SplineSet
79 0 m 1xec
 79 500 l 1
 139 500 l 1
 139 0 l 1
 79 0 l 1xec
40 710 m 4
 51 710 60 707 68 699 c 4
 76 691 80 681 80 670 c 4
 80 659 76 650 68 642 c 4
 60 634 51 630 40 630 c 4
 29 630 20 634 12 642 c 4
 4 650 0 659 0 670 c 4xf4
 0 681 4 691 12 699 c 4
 20 707 29 710 40 710 c 4
180 710 m 4
 191 710 200 707 208 699 c 4
 216 691 220 681 220 670 c 4
 220 659 216 650 208 642 c 4
 200 634 191 630 180 630 c 4
 169 630 159 634 151 642 c 4
 143 650 140 659 140 670 c 4
 140 681 143 691 151 699 c 4
 159 707 169 710 180 710 c 4
EndSplineSet
Validated: 1
EndChar

StartChar: eth
Encoding: 240 240 173
GlifName: eth
Width: 588
Flags: HW
HStem: -12 61<202 380> 452 61<202 380> 654 58<173 268> 683 20G<385 428>
VStem: 46 60<151 349> 476 60<151 339>
LayerCount: 2
Fore
SplineSet
291 512 m 0xcc
 362 512 421 487 467 436 c 0
 513 385 536 324 536 250 c 0
 536 176 513 115 467 64 c 0
 421 13 362 -12 291 -12 c 0
 220 -12 161 13 115 64 c 0
 69 115 46 176 46 250 c 0
 46 324 69 385 115 436 c 0
 161 487 220 512 291 512 c 0xcc
291 452 m 0
 236 452 192 433 158 394 c 0
 124 355 106 307 106 250 c 0
 106 193 124 145 158 106 c 0
 192 67 236 48 291 48 c 0
 346 48 390 67 424 106 c 0
 458 145 476 193 476 250 c 0
 476 307 458 355 424 394 c 0
 390 433 346 452 291 452 c 0
158 654 m 1xec
 173 712 l 1
 190 712 215 709 245 702 c 0
 270 696 293 688 316 678 c 0
 339 668 365 651 393 628 c 0
 421 605 444 577 464 546 c 0
 484 515 501 473 515 422 c 0
 529 371 536 313 536 250 c 1
 476 250 l 1
 476 339 463 412 436 469 c 4
 410 524 379 565 343 590 c 0
 305 617 270 635 240 642 c 0
 207 650 180 654 158 654 c 1xec
245 585 m 1
 414 703 l 1xdc
 448 654 l 1
 279 536 l 1
 245 585 l 1
EndSplineSet
Validated: 5
EndChar

StartChar: ntilde
Encoding: 241 241 174
GlifName: ntilde
Width: 553
Flags: HW
HStem: 0 21G<75 135 434 494> 452 60<210 359> 480 20G<75 135> 572 56<304 372> 644 56<188 253>
VStem: 75 60<0 372 432 500> 123 59<607 640> 377 59<632 666> 434 60<0 370>
LayerCount: 2
Fore
SplineSet
339 572 m 0x9b
 310 572 286 584 266 608 c 0
 258 617 251 626 244 633 c 0
 237 640 230 644 222 644 c 0
 201 644 188 632 182 607 c 1
 123 607 l 1
 126 633 137 654 156 672 c 0
 175 690 197 700 222 700 c 0
 247 700 270 688 291 664 c 0
 299 655 307 646 314 639 c 0
 321 632 330 628 339 628 c 0
 360 628 373 641 377 666 c 1
 436 666 l 1
 432 639 421 617 403 599 c 0
 385 581 364 572 339 572 c 0x9b
494 0 m 1xdc80
 434 0 l 1
 434 268 l 2
 434 325 420 369 392 402 c 0
 364 435 328 452 285 452 c 0xdc80
 242 452 206 435 178 402 c 0
 150 369 135 325 135 268 c 2
 135 0 l 5
 75 0 l 5
 75 500 l 1
 135 500 l 1xbc80
 135 432 l 1
 138 437 142 442 145 446 c 0
 180 490 227 512 285 512 c 0
 345 512 394 489 434 445 c 0
 474 401 494 341 494 268 c 2
 494 0 l 1xdc80
EndSplineSet
Validated: 1
EndChar

StartChar: ograve
Encoding: 242 242 175
GlifName: ograve
Width: 578
Flags: HW
HStem: -12 61<201 378> 452 61<201 378> 681 20G<137 244>
VStem: 45 60<152 348> 474 60<152 348>
LayerCount: 2
Fore
SplineSet
261 574 m 1
 137 701 l 1
 226 701 l 1
 337 574 l 1
 261 574 l 1
290 452 m 0
 235 452 190 433 156 394 c 0
 122 355 105 307 105 250 c 0
 105 193 122 145 156 106 c 0
 190 67 235 48 290 48 c 0
 345 48 389 67 423 106 c 0
 457 145 474 193 474 250 c 0
 474 307 457 355 423 394 c 0
 389 433 345 452 290 452 c 0
290 512 m 0
 361 512 419 487 465 436 c 0
 511 385 534 323 534 250 c 0
 534 177 511 115 465 64 c 0
 419 13 361 -12 290 -12 c 0
 219 -12 160 13 114 64 c 0
 68 115 45 177 45 250 c 0
 45 323 68 385 114 436 c 0
 160 487 219 512 290 512 c 0
EndSplineSet
Validated: 1
EndChar

StartChar: oacute
Encoding: 243 243 176
GlifName: oacute
Width: 578
Flags: HW
HStem: -12 61<201 378> 452 61<201 378> 680 20G<343 449>
VStem: 45 60<152 348> 474 60<152 348>
LayerCount: 2
Fore
SplineSet
251 574 m 1
 360 700 l 1
 449 700 l 1
 327 574 l 1
 251 574 l 1
290 452 m 0
 235 452 190 433 156 394 c 0
 122 355 105 307 105 250 c 0
 105 193 122 145 156 106 c 0
 190 67 235 48 290 48 c 0
 345 48 389 67 423 106 c 0
 457 145 474 193 474 250 c 0
 474 307 457 355 423 394 c 0
 389 433 345 452 290 452 c 0
290 512 m 0
 361 512 419 487 465 436 c 0
 511 385 534 323 534 250 c 0
 534 177 511 115 465 64 c 0
 419 13 361 -12 290 -12 c 0
 219 -12 160 13 114 64 c 0
 68 115 45 177 45 250 c 0
 45 323 68 385 114 436 c 0
 160 487 219 512 290 512 c 0
EndSplineSet
Validated: 1
EndChar

StartChar: ocircumflex
Encoding: 244 244 177
GlifName: ocircumflex
Width: 578
Flags: HW
HStem: -12 61<201 378> 452 61<201 378> 680 20G<241 361>
VStem: 45 60<152 348> 474 60<152 348>
LayerCount: 2
Fore
SplineSet
140 574 m 1
 260 700 l 1
 342 700 l 1
 462 574 l 1
 380 574 l 1
 301 654 l 5
 222 574 l 1
 140 574 l 1
290 452 m 0
 235 452 190 433 156 394 c 0
 122 355 105 307 105 250 c 0
 105 193 122 145 156 106 c 0
 190 67 235 48 290 48 c 0
 345 48 389 67 423 106 c 0
 457 145 474 193 474 250 c 0
 474 307 457 355 423 394 c 0
 389 433 345 452 290 452 c 0
290 512 m 0
 361 512 419 487 465 436 c 0
 511 385 534 323 534 250 c 0
 534 177 511 115 465 64 c 0
 419 13 361 -12 290 -12 c 0
 219 -12 160 13 114 64 c 0
 68 115 45 177 45 250 c 0
 45 323 68 385 114 436 c 0
 160 487 219 512 290 512 c 0
EndSplineSet
Validated: 1
EndChar

StartChar: otilde
Encoding: 245 245 178
GlifName: otilde
Width: 578
Flags: HW
HStem: -12 61<201 378> 452 61<201 378> 572 56<322 390> 644 56<206 271>
VStem: 45 60<152 348> 141 59<607 640> 395 59<632 666> 474 60<152 348>
LayerCount: 2
Fore
SplineSet
357 572 m 0
 328 572 304 584 284 608 c 0
 276 617 269 626 262 633 c 0
 255 640 248 644 240 644 c 0
 219 644 206 632 200 607 c 1
 141 607 l 1
 144 633 155 654 174 672 c 0
 193 690 215 700 240 700 c 0
 265 700 288 688 309 664 c 0
 317 655 325 646 332 639 c 0
 339 632 348 628 357 628 c 0
 378 628 391 641 395 666 c 1
 454 666 l 1
 450 639 439 617 421 599 c 0
 403 581 382 572 357 572 c 0
290 452 m 0
 235 452 190 433 156 394 c 0
 122 355 105 307 105 250 c 0
 105 193 122 145 156 106 c 0
 190 67 235 48 290 48 c 0
 345 48 389 67 423 106 c 0
 457 145 474 193 474 250 c 0
 474 307 457 355 423 394 c 0
 389 433 345 452 290 452 c 0
290 512 m 0
 361 512 419 487 465 436 c 0
 511 385 534 323 534 250 c 0
 534 177 511 115 465 64 c 0
 419 13 361 -12 290 -12 c 0
 219 -12 160 13 114 64 c 0
 68 115 45 177 45 250 c 0
 45 323 68 385 114 436 c 0
 160 487 219 512 290 512 c 0
EndSplineSet
Validated: 1
EndChar

StartChar: odieresis
Encoding: 246 246 179
GlifName: odieresis
Width: 578
Flags: HW
HStem: -12 61<201 378> 452 61<201 378> 630 80<148 204 390 446>
VStem: 45 60<152 348> 136 80<642 698> 378 80<642 698> 474 60<152 348>
LayerCount: 2
Fore
SplineSet
176 710 m 4
 187 710 197 707 205 699 c 4
 213 691 216 681 216 670 c 4
 216 659 213 650 205 642 c 4
 197 634 187 630 176 630 c 4
 165 630 155 634 147 642 c 4
 139 650 136 659 136 670 c 4
 136 681 139 691 147 699 c 4
 155 707 165 710 176 710 c 4
418 710 m 4
 429 710 438 707 446 699 c 4
 454 691 458 681 458 670 c 4
 458 659 454 650 446 642 c 4
 438 634 429 630 418 630 c 4
 407 630 398 634 390 642 c 4
 382 650 378 659 378 670 c 4
 378 681 382 691 390 699 c 4
 398 707 407 710 418 710 c 4
290 452 m 0
 235 452 190 433 156 394 c 0
 122 355 105 307 105 250 c 0
 105 193 122 145 156 106 c 0
 190 67 235 48 290 48 c 0
 345 48 389 67 423 106 c 0
 457 145 474 193 474 250 c 0
 474 307 457 355 423 394 c 0
 389 433 345 452 290 452 c 0
290 512 m 0
 361 512 419 487 465 436 c 0
 511 385 534 323 534 250 c 0
 534 177 511 115 465 64 c 0
 419 13 361 -12 290 -12 c 0
 219 -12 160 13 114 64 c 0
 68 115 45 177 45 250 c 0
 45 323 68 385 114 436 c 0
 160 487 219 512 290 512 c 0
EndSplineSet
Validated: 1
EndChar

StartChar: divide
Encoding: 247 247 180
GlifName: divide
Width: 619
Flags: HW
HStem: 109 80<282 338> 267 61<120 500> 406 80<282 338>
VStem: 270 80<121 177 418 474>
CounterMasks: 1 e0
LayerCount: 2
Fore
SplineSet
310 486 m 0
 321 486 330 483 338 475 c 0
 346 467 350 457 350 446 c 0
 350 435 346 425 338 417 c 0
 330 409 321 406 310 406 c 0
 299 406 290 409 282 417 c 0
 274 425 270 435 270 446 c 0
 270 457 274 467 282 475 c 0
 290 483 299 486 310 486 c 0
120 328 m 1
 500 328 l 1
 500 267 l 1
 120 267 l 1
 120 328 l 1
310 189 m 0
 321 189 330 186 338 178 c 0
 346 170 350 160 350 149 c 0
 350 138 346 129 338 121 c 0
 330 113 321 109 310 109 c 0
 299 109 290 113 282 121 c 0
 274 129 270 138 270 149 c 0
 270 160 274 170 282 178 c 0
 290 186 299 189 310 189 c 0
EndSplineSet
Validated: 1
EndChar

StartChar: oslash
Encoding: 248 248 181
GlifName: oslash
Width: 578
Flags: HW
HStem: -12 61<201 378> -12 21G<85 125> 452 61<201 378>
VStem: 45 60<152 348> 474 60<152 348>
LayerCount: 2
Fore
SplineSet
290 452 m 0xb8
 235 452 190 433 156 394 c 0
 122 355 105 307 105 250 c 0
 105 193 122 145 156 106 c 0
 190 67 235 48 290 48 c 0
 345 48 389 67 423 106 c 0
 457 145 474 193 474 250 c 0
 474 307 457 355 423 394 c 0
 389 433 345 452 290 452 c 0xb8
290 512 m 0
 361 512 419 487 465 436 c 0
 511 385 534 323 534 250 c 0
 534 177 511 115 465 64 c 0
 419 13 361 -12 290 -12 c 0
 219 -12 160 13 114 64 c 0
 68 115 45 177 45 250 c 0
 45 323 68 385 114 436 c 0
 160 487 219 512 290 512 c 0
470 512 m 1
 516 474 l 1
 109 -12 l 1x78
 63 27 l 1
 470 512 l 1
EndSplineSet
Validated: 5
EndChar

StartChar: ugrave
Encoding: 249 249 182
GlifName: ugrave
Width: 538
Flags: HW
HStem: -12 60<194 345> 480 20G<60 120 419 479> 681 20G<121 228>
VStem: 60 60<130 500> 419 60<130 500>
LayerCount: 2
Fore
SplineSet
245 574 m 1
 121 701 l 1
 210 701 l 1
 321 574 l 1
 245 574 l 1
60 500 m 1
 120 500 l 1
 120 232 l 2
 120 175 135 131 163 98 c 0
 191 65 227 48 270 48 c 0
 313 48 348 65 376 98 c 0
 404 131 419 175 419 232 c 2
 419 500 l 1
 479 500 l 1
 479 232 l 2
 479 159 459 99 419 55 c 0
 379 11 330 -12 270 -12 c 0
 210 -12 160 11 120 55 c 0
 80 99 60 159 60 232 c 2
 60 500 l 1
EndSplineSet
Validated: 1
EndChar

StartChar: uacute
Encoding: 250 250 183
GlifName: uacute
Width: 538
Flags: HW
HStem: -12 60<194 345> 480 20G<60 120 419 479> 680 20G<331 437>
VStem: 60 60<130 500> 419 60<130 500>
LayerCount: 2
Fore
SplineSet
239 574 m 1
 348 700 l 1
 437 700 l 1
 315 574 l 1
 239 574 l 1
60 500 m 1
 120 500 l 1
 120 232 l 2
 120 175 135 131 163 98 c 0
 191 65 227 48 270 48 c 0
 313 48 348 65 376 98 c 0
 404 131 419 175 419 232 c 2
 419 500 l 1
 479 500 l 1
 479 232 l 2
 479 159 459 99 419 55 c 0
 379 11 330 -12 270 -12 c 0
 210 -12 160 11 120 55 c 0
 80 99 60 159 60 232 c 2
 60 500 l 1
EndSplineSet
Validated: 1
EndChar

StartChar: ucircumflex
Encoding: 251 251 184
GlifName: ucircumflex
Width: 538
Flags: HW
HStem: -12 60<194 345> 480 20G<60 120 419 479> 680 20G<210 330>
VStem: 60 60<130 500> 419 60<130 500>
LayerCount: 2
Fore
SplineSet
109 574 m 1
 229 700 l 1
 311 700 l 1
 431 574 l 1
 349 574 l 1
 270 654 l 5
 191 574 l 1
 109 574 l 1
60 500 m 1
 120 500 l 1
 120 232 l 2
 120 175 135 131 163 98 c 0
 191 65 227 48 270 48 c 0
 313 48 348 65 376 98 c 0
 404 131 419 175 419 232 c 2
 419 500 l 1
 479 500 l 1
 479 232 l 2
 479 159 459 99 419 55 c 0
 379 11 330 -12 270 -12 c 0
 210 -12 160 11 120 55 c 0
 80 99 60 159 60 232 c 2
 60 500 l 1
EndSplineSet
Validated: 1
EndChar

StartChar: udieresis
Encoding: 252 252 185
GlifName: udieresis
Width: 538
Flags: HW
HStem: -12 60<194 345> 480 20G<60 120 419 479> 630 80<124 180 366 422>
VStem: 60 60<130 500> 112 80<642 698> 354 80<642 698> 419 60<130 500>
LayerCount: 2
Fore
SplineSet
152 710 m 4xe8
 163 710 173 707 181 699 c 4
 189 691 192 681 192 670 c 4
 192 659 189 650 181 642 c 4
 173 634 163 630 152 630 c 4
 141 630 132 634 124 642 c 4
 116 650 112 659 112 670 c 4
 112 681 116 691 124 699 c 4
 132 707 141 710 152 710 c 4xe8
394 710 m 4
 405 710 414 707 422 699 c 4
 430 691 434 681 434 670 c 4
 434 659 430 650 422 642 c 4
 414 634 405 630 394 630 c 4
 383 630 374 634 366 642 c 4
 358 650 354 659 354 670 c 4xe4
 354 681 358 691 366 699 c 4
 374 707 383 710 394 710 c 4
60 500 m 1xf2
 120 500 l 1
 120 232 l 2
 120 175 135 131 163 98 c 0
 191 65 227 48 270 48 c 0
 313 48 348 65 376 98 c 0
 404 131 419 175 419 232 c 2
 419 500 l 1
 479 500 l 1
 479 232 l 2
 479 159 459 99 419 55 c 0
 379 11 330 -12 270 -12 c 0
 210 -12 160 11 120 55 c 0
 80 99 60 159 60 232 c 2
 60 500 l 1xf2
EndSplineSet
Validated: 1
EndChar

StartChar: yacute
Encoding: 253 253 186
GlifName: yacute
Width: 505
Flags: HW
HStem: -212 59<20 130> 480 20G<10 83 422 496> 680 20G<288 394>
LayerCount: 2
Fore
SplineSet
196 574 m 1
 305 700 l 1
 394 700 l 1
 272 574 l 1
 196 574 l 1
10 500 m 1
 75 500 l 1
 252 78 l 1
 431 500 l 1
 496 500 l 1
 251 -80 l 2
 234 -120 208 -152 171 -176 c 0
 134 -200 94 -212 50 -212 c 2
 20 -212 l 1
 20 -153 l 1
 50 -153 l 2
 82 -153 112 -144 138 -127 c 0
 164 -110 183 -87 196 -57 c 2
 220 0 l 1
 10 500 l 1
EndSplineSet
Validated: 1
EndChar

StartChar: thorn
Encoding: 254 254 187
GlifName: thorn
Width: 608
Flags: HW
HStem: -12 61<225 401> 452 61<225 401> 680 20G<74 133>
VStem: 74 60<-200 85 147 353 415 700> 497 60<151 349>
LayerCount: 2
Fore
SplineSet
133 -200 m 1
 74 -200 l 1
 74 700 l 1
 133 700 l 1
 133 415 l 1
 138 423 143 431 149 438 c 0
 188 487 242 512 312 512 c 0
 383 512 442 487 488 436 c 0
 534 385 557 324 557 250 c 0
 557 176 534 115 488 64 c 0
 442 13 383 -12 312 -12 c 0
 242 -12 188 13 149 62 c 0
 143 69 138 77 133 85 c 1
 133 -200 l 1
312 452 m 0
 258 452 214 433 182 394 c 0
 150 355 133 308 133 250 c 0
 133 192 150 145 182 106 c 0
 214 67 258 48 312 48 c 0
 367 48 411 67 445 106 c 0
 479 145 497 193 497 250 c 0
 497 307 479 355 445 394 c 0
 411 433 367 452 312 452 c 0
EndSplineSet
Validated: 1
EndChar

StartChar: ydieresis
Encoding: 255 255 188
GlifName: ydieresis
Width: 505
Flags: HW
HStem: -212 59<20 130> 480 20G<10 83 422 496> 630 80<102 158 344 400>
VStem: 90 80<642 698> 332 80<642 698>
LayerCount: 2
Fore
SplineSet
130 710 m 4
 141 710 151 707 159 699 c 4
 167 691 170 681 170 670 c 4
 170 659 167 650 159 642 c 4
 151 634 141 630 130 630 c 4
 119 630 110 634 102 642 c 4
 94 650 90 659 90 670 c 4
 90 681 94 691 102 699 c 4
 110 707 119 710 130 710 c 4
372 710 m 4
 383 710 392 707 400 699 c 4
 408 691 412 681 412 670 c 4
 412 659 408 650 400 642 c 4
 392 634 383 630 372 630 c 4
 361 630 351 634 343 642 c 4
 335 650 332 659 332 670 c 4
 332 681 335 691 343 699 c 4
 351 707 361 710 372 710 c 4
10 500 m 1
 75 500 l 1
 252 78 l 1
 431 500 l 1
 496 500 l 1
 251 -80 l 2
 234 -120 208 -152 171 -176 c 0
 134 -200 94 -212 50 -212 c 2
 20 -212 l 1
 20 -153 l 1
 50 -153 l 2
 82 -153 112 -144 138 -127 c 0
 164 -110 183 -87 196 -57 c 2
 220 0 l 1
 10 500 l 1
EndSplineSet
Validated: 1
EndChar

StartChar: Amacron
Encoding: 256 256 189
GlifName: A_macron
Width: 601
Flags: HW
HStem: 0 21G<10 82 520 592> 205 60<171 431> 619 81<231 371> 750 60<153 453>
LayerCount: 2
Fore
SplineSet
153 750 m 1
 153 810 l 1
 453 810 l 1
 453 750 l 1
 153 750 l 1
171 265 m 1
 431 265 l 1
 301 619 l 1
 171 265 l 1
149 205 m 1
 75 0 l 1
 10 0 l 1
 271 700 l 1
 331 700 l 1
 592 0 l 1
 527 0 l 1
 453 205 l 1
 149 205 l 1
EndSplineSet
Validated: 1
EndChar

StartChar: amacron
Encoding: 257 257 190
GlifName: amacron
Width: 602
Flags: HW
HStem: -12 61<201 377> 0 21G<468 528> 452 61<201 377> 480 20G<468 528> 580 60<146 446>
VStem: 45 60<152 348> 468 60<0 85 147 353 415 500>
LayerCount: 2
Fore
SplineSet
146 580 m 1x0e
 146 640 l 1
 446 640 l 1
 446 580 l 1
 146 580 l 1x0e
468 500 m 1x1e
 528 500 l 1
 528 0 l 1
 468 0 l 1x5e
 468 85 l 1
 463 77 458 69 452 62 c 0
 413 13 360 -12 290 -12 c 0
 219 -12 160 13 114 64 c 0
 68 115 45 177 45 250 c 0
 45 323 68 385 114 436 c 0
 160 487 219 512 290 512 c 0xae
 360 512 413 487 452 438 c 0
 458 431 463 423 468 415 c 1
 468 500 l 1x1e
290 452 m 0xae
 235 452 190 433 156 394 c 0
 122 355 105 307 105 250 c 0
 105 193 122 145 156 106 c 0
 190 67 235 48 290 48 c 0
 344 48 387 67 419 106 c 0
 451 145 468 192 468 250 c 0
 468 308 451 355 419 394 c 0
 387 433 344 452 290 452 c 0xae
EndSplineSet
Validated: 1
EndChar

StartChar: Abreve
Encoding: 258 258 191
GlifName: A_breve
Width: 601
Flags: HW
HStem: 0 21G<10 82 520 592> 205 60<171 431> 619 81<231 371> 739 60<240 364>
VStem: 155 60<823 870> 389 60<823 870>
LayerCount: 2
Fore
SplineSet
155 870 m 1
 215 870 l 1
 215 849 223 832 240 819 c 0
 257 806 277 799 302 799 c 0
 327 799 347 806 364 819 c 0
 381 832 389 849 389 870 c 1
 449 870 l 1
 449 834 435 803 407 777 c 0
 379 751 344 739 302 739 c 0
 260 739 225 751 197 777 c 0
 169 803 155 834 155 870 c 1
171 265 m 1
 431 265 l 1
 301 619 l 1
 171 265 l 1
149 205 m 1
 75 0 l 1
 10 0 l 1
 271 700 l 1
 331 700 l 1
 592 0 l 1
 527 0 l 1
 453 205 l 1
 149 205 l 1
EndSplineSet
Validated: 1
EndChar

StartChar: abreve
Encoding: 259 259 192
GlifName: abreve
Width: 602
Flags: HW
HStem: -12 61<201 377> 0 21G<468 528> 452 61<201 377> 480 20G<468 528> 569 60<237 361> 680 20G<152 212 386 446>
VStem: 45 60<152 348> 152 60<653 700> 386 60<653 700> 468 60<0 85 147 353 415 500>
LayerCount: 2
Fore
SplineSet
152 700 m 1x0fc0
 212 700 l 1
 212 679 220 662 237 649 c 0
 254 636 274 629 299 629 c 0
 324 629 344 636 361 649 c 0
 378 662 386 679 386 700 c 1
 446 700 l 1
 446 664 431 633 403 607 c 0
 375 581 341 569 299 569 c 0
 257 569 222 581 194 607 c 0
 166 633 152 664 152 700 c 1x0fc0
468 500 m 1x1fc0
 528 500 l 1
 528 0 l 1
 468 0 l 1x5fc0
 468 85 l 1
 463 77 458 69 452 62 c 0
 413 13 360 -12 290 -12 c 0
 219 -12 160 13 114 64 c 0
 68 115 45 177 45 250 c 0
 45 323 68 385 114 436 c 0
 160 487 219 512 290 512 c 0xafc0
 360 512 413 487 452 438 c 0
 458 431 463 423 468 415 c 1
 468 500 l 1x1fc0
290 452 m 0xafc0
 235 452 190 433 156 394 c 0
 122 355 105 307 105 250 c 0
 105 193 122 145 156 106 c 0
 190 67 235 48 290 48 c 0
 344 48 387 67 419 106 c 0
 451 145 468 192 468 250 c 0
 468 308 451 355 419 394 c 0
 387 433 344 452 290 452 c 0xafc0
EndSplineSet
Validated: 1
EndChar

StartChar: Aogonek
Encoding: 260 260 193
GlifName: A_ogonek
Width: 601
Flags: HW
HStem: -212 55<491 575> 0 21G<10 82 520 592> 205 60<171 431> 619 81<231 371>
VStem: 426 55<-146 -72>
LayerCount: 2
Fore
SplineSet
607 -170 m 5
 604 -175 600 -179 596 -183 c 0
 577 -202 553 -212 526 -212 c 0
 498 -212 475 -203 455 -183 c 0
 436 -164 426 -140 426 -114 c 0
 426 -85 438 -59 462 -35 c 0
 478 -19 501 -3 529 12 c 1
 587 12 l 1
 495 -81 l 2
 486 -90 481 -100 481 -112 c 0
 481 -124 486 -135 495 -144 c 0
 504 -153 514 -157 526 -157 c 0
 538 -157 548 -153 557 -144 c 0
 559 -142 561 -140 562 -138 c 9
 607 -170 l 5
171 265 m 1
 431 265 l 1
 301 619 l 1
 171 265 l 1
149 205 m 1
 75 0 l 1
 10 0 l 1
 271 700 l 1
 331 700 l 1
 592 0 l 1
 527 0 l 1
 453 205 l 1
 149 205 l 1
EndSplineSet
Validated: 5
EndChar

StartChar: aogonek
Encoding: 261 261 194
GlifName: aogonek
Width: 602
Flags: HW
HStem: -212 55<431 515> -12 61<201 377> 0 21G<468 528> 452 61<201 377> 480 20G<468 528>
VStem: 45 60<152 348> 366 55<-146 -72> 468 60<0 85 147 353 415 500>
LayerCount: 2
Fore
SplineSet
547 -170 m 5x87
 544 -175 540 -179 536 -183 c 0
 517 -202 493 -212 466 -212 c 0
 438 -212 415 -203 395 -183 c 0
 376 -164 366 -140 366 -114 c 0
 366 -85 378 -59 402 -35 c 0
 418 -19 441 -3 469 12 c 1
 527 12 l 1
 435 -81 l 2
 426 -90 421 -100 421 -112 c 0
 421 -124 426 -135 435 -144 c 0
 444 -153 454 -157 466 -157 c 0
 478 -157 489 -153 498 -144 c 0
 500 -142 501 -140 502 -138 c 9
 547 -170 l 5x87
468 500 m 1x8f
 528 500 l 1
 528 0 l 1
 468 0 l 1xaf
 468 85 l 1
 463 77 458 69 452 62 c 0
 413 13 360 -12 290 -12 c 0
 219 -12 160 13 114 64 c 0
 68 115 45 177 45 250 c 0
 45 323 68 385 114 436 c 0
 160 487 219 512 290 512 c 0xd7
 360 512 413 487 452 438 c 0
 458 431 463 423 468 415 c 1
 468 500 l 1x8f
290 452 m 0xd7
 235 452 190 433 156 394 c 0
 122 355 105 307 105 250 c 0
 105 193 122 145 156 106 c 0
 190 67 235 48 290 48 c 0
 344 48 387 67 419 106 c 0
 451 145 468 192 468 250 c 0
 468 308 451 355 419 394 c 0
 387 433 344 452 290 452 c 0xd7
EndSplineSet
Validated: 5
EndChar

StartChar: Cacute
Encoding: 262 262 195
GlifName: C_acute
Width: 677
Flags: HW
HStem: -12 60<281 497> 652 60<279 497>
VStem: 50 60<230 470>
LayerCount: 2
Fore
SplineSet
337 744 m 1
 446 870 l 1
 535 870 l 1
 413 744 l 1
 337 744 l 1
389 712 m 0
 439 712 486 703 528 683 c 0
 570 663 607 636 638 600 c 1
 595 556 l 1
 541 620 473 652 389 652 c 0
 308 652 241 623 189 564 c 0
 137 505 110 434 110 350 c 0
 110 266 137 195 189 136 c 0
 241 77 308 48 389 48 c 0
 473 48 541 80 595 144 c 1
 638 101 l 1
 607 65 570 38 528 18 c 0
 486 -2 439 -12 389 -12 c 0
 290 -12 209 23 146 93 c 0
 83 163 50 248 50 350 c 0
 50 452 83 537 146 607 c 0
 209 677 290 712 389 712 c 0
EndSplineSet
Validated: 1
EndChar

StartChar: cacute
Encoding: 263 263 196
GlifName: cacute
Width: 498
Flags: HW
HStem: -12 61<201 377> 452 61<201 377> 680 20G<338 445>
VStem: 45 60<152 348>
LayerCount: 2
Fore
SplineSet
247 574 m 1
 356 700 l 1
 445 700 l 1
 323 574 l 1
 247 574 l 1
290 512 m 0
 360 512 418 487 464 437 c 1
 423 393 l 1
 388 432 344 452 290 452 c 0
 235 452 190 433 156 394 c 0
 122 355 105 307 105 250 c 0
 105 193 122 145 156 106 c 0
 190 67 235 48 290 48 c 0
 344 48 388 68 423 107 c 1
 464 63 l 1
 418 13 360 -12 290 -12 c 0
 219 -12 160 13 114 64 c 0
 68 115 45 177 45 250 c 0
 45 323 68 385 114 436 c 0
 160 487 219 512 290 512 c 0
EndSplineSet
Validated: 1
EndChar

StartChar: Ccircumflex
Encoding: 264 264 197
GlifName: C_circumflex
Width: 677
Flags: HW
HStem: -12 60<281 497> 652 60<279 497>
VStem: 50 60<230 470>
LayerCount: 2
Fore
SplineSet
227 744 m 1
 347 870 l 1
 429 870 l 1
 549 744 l 1
 467 744 l 1
 388 824 l 5
 309 744 l 1
 227 744 l 1
389 712 m 0
 439 712 486 703 528 683 c 0
 570 663 607 636 638 600 c 1
 595 556 l 1
 541 620 473 652 389 652 c 0
 308 652 241 623 189 564 c 0
 137 505 110 434 110 350 c 0
 110 266 137 195 189 136 c 0
 241 77 308 48 389 48 c 0
 473 48 541 80 595 144 c 1
 638 101 l 1
 607 65 570 38 528 18 c 0
 486 -2 439 -12 389 -12 c 0
 290 -12 209 23 146 93 c 0
 83 163 50 248 50 350 c 0
 50 452 83 537 146 607 c 0
 209 677 290 712 389 712 c 0
EndSplineSet
Validated: 1
EndChar

StartChar: ccircumflex
Encoding: 265 265 198
GlifName: ccircumflex
Width: 498
Flags: HW
HStem: -12 61<201 377> 452 61<201 377> 680 20G<228 348>
VStem: 45 60<152 348>
LayerCount: 2
Fore
SplineSet
127 574 m 1
 247 700 l 1
 329 700 l 1
 449 574 l 1
 367 574 l 1
 288 654 l 5
 209 574 l 1
 127 574 l 1
290 512 m 0
 360 512 418 487 464 437 c 1
 423 393 l 1
 388 432 344 452 290 452 c 0
 235 452 190 433 156 394 c 0
 122 355 105 307 105 250 c 0
 105 193 122 145 156 106 c 0
 190 67 235 48 290 48 c 0
 344 48 388 68 423 107 c 1
 464 63 l 1
 418 13 360 -12 290 -12 c 0
 219 -12 160 13 114 64 c 0
 68 115 45 177 45 250 c 0
 45 323 68 385 114 436 c 0
 160 487 219 512 290 512 c 0
EndSplineSet
Validated: 1
EndChar

StartChar: Cdotaccent
Encoding: 266 266 199
GlifName: C_dotaccent
Width: 677
Flags: HW
HStem: -12 60<281 497> 652 60<279 497> 800 80<361 417>
VStem: 50 60<230 470> 349 80<812 868>
LayerCount: 2
Fore
SplineSet
429 840 m 0
 429 829 425 820 417 812 c 0
 409 804 400 800 389 800 c 0
 378 800 368 804 360 812 c 0
 352 820 349 829 349 840 c 0
 349 851 352 861 360 869 c 0
 368 877 378 880 389 880 c 0
 400 880 409 877 417 869 c 0
 425 861 429 851 429 840 c 0
389 712 m 0
 439 712 486 703 528 683 c 0
 570 663 607 636 638 600 c 1
 595 556 l 1
 541 620 473 652 389 652 c 0
 308 652 241 623 189 564 c 0
 137 505 110 434 110 350 c 0
 110 266 137 195 189 136 c 0
 241 77 308 48 389 48 c 0
 473 48 541 80 595 144 c 1
 638 101 l 1
 607 65 570 38 528 18 c 0
 486 -2 439 -12 389 -12 c 0
 290 -12 209 23 146 93 c 0
 83 163 50 248 50 350 c 0
 50 452 83 537 146 607 c 0
 209 677 290 712 389 712 c 0
EndSplineSet
Validated: 1
EndChar

StartChar: cdotaccent
Encoding: 267 267 200
GlifName: cdotaccent
Width: 498
Flags: HW
HStem: -12 61<201 377> 452 61<201 377> 630 80<261 317>
VStem: 45 60<152 348> 249 80<642 698>
LayerCount: 2
Fore
SplineSet
329 670 m 0
 329 659 325 650 317 642 c 0
 309 634 300 630 289 630 c 0
 278 630 268 634 260 642 c 0
 252 650 249 659 249 670 c 0
 249 681 252 691 260 699 c 0
 268 707 278 710 289 710 c 0
 300 710 309 707 317 699 c 0
 325 691 329 681 329 670 c 0
290 512 m 0
 360 512 418 487 464 437 c 1
 423 393 l 1
 388 432 344 452 290 452 c 0
 235 452 190 433 156 394 c 0
 122 355 105 307 105 250 c 0
 105 193 122 145 156 106 c 0
 190 67 235 48 290 48 c 0
 344 48 388 68 423 107 c 1
 464 63 l 1
 418 13 360 -12 290 -12 c 0
 219 -12 160 13 114 64 c 0
 68 115 45 177 45 250 c 0
 45 323 68 385 114 436 c 0
 160 487 219 512 290 512 c 0
EndSplineSet
Validated: 1
EndChar

StartChar: Ccaron
Encoding: 268 268 201
GlifName: C_caron
Width: 677
Flags: HW
HStem: -12 60<281 497> 652 60<279 497> 744 48<345 431>
VStem: 50 60<230 470>
LayerCount: 2
Fore
SplineSet
227 870 m 5
 309 870 l 5
 388 792 l 5
 467 870 l 5
 549 870 l 5
 431 744 l 5
 345 744 l 5
 227 870 l 5
389 712 m 0
 439 712 486 703 528 683 c 0
 570 663 607 636 638 600 c 1
 595 556 l 1
 541 620 473 652 389 652 c 0
 308 652 241 623 189 564 c 0
 137 505 110 434 110 350 c 0
 110 266 137 195 189 136 c 0
 241 77 308 48 389 48 c 0
 473 48 541 80 595 144 c 1
 638 101 l 1
 607 65 570 38 528 18 c 0
 486 -2 439 -12 389 -12 c 0
 290 -12 209 23 146 93 c 0
 83 163 50 248 50 350 c 0
 50 452 83 537 146 607 c 0
 209 677 290 712 389 712 c 0
EndSplineSet
Validated: 1
EndChar

StartChar: ccaron
Encoding: 269 269 202
GlifName: ccaron
Width: 498
Flags: HW
HStem: -12 61<201 377> 452 61<201 377> 574 48<245 331> 680 20G<127 229 347 449>
VStem: 45 60<152 348>
LayerCount: 2
Fore
SplineSet
127 700 m 5
 208 700 l 5
 288 622 l 5
 367 700 l 5
 449 700 l 5
 331 574 l 5
 245 574 l 5
 127 700 l 5
290 512 m 0
 360 512 418 487 464 437 c 1
 423 393 l 1
 388 432 344 452 290 452 c 0
 235 452 190 433 156 394 c 0
 122 355 105 307 105 250 c 0
 105 193 122 145 156 106 c 0
 190 67 235 48 290 48 c 0
 344 48 388 68 423 107 c 1
 464 63 l 1
 418 13 360 -12 290 -12 c 0
 219 -12 160 13 114 64 c 0
 68 115 45 177 45 250 c 0
 45 323 68 385 114 436 c 0
 160 487 219 512 290 512 c 0
EndSplineSet
Validated: 1
EndChar

StartChar: Dcaron
Encoding: 270 270 203
GlifName: D_caron
Width: 682
Flags: HW
HStem: 0 60<160 394> 640 60<160 394> 744 48<264 350>
VStem: 100 60<60 640> 573 60<239 461>
LayerCount: 2
Fore
SplineSet
146 870 m 5
 228 870 l 5
 307 792 l 5
 386 870 l 5
 468 870 l 5
 350 744 l 5
 264 744 l 5
 146 870 l 5
283 640 m 2
 160 640 l 1
 160 60 l 1
 283 60 l 2
 363 60 431 88 488 145 c 0
 545 202 573 270 573 350 c 0
 573 430 545 498 488 555 c 0
 431 612 363 640 283 640 c 2
283 700 m 2
 380 700 462 666 530 598 c 0
 598 530 633 447 633 350 c 0
 633 253 598 171 530 103 c 0
 462 35 380 0 283 0 c 2
 100 0 l 1
 100 700 l 1
 283 700 l 2
EndSplineSet
Validated: 1
EndChar

StartChar: dcaron
Encoding: 271 271 204
GlifName: dcaron
Width: 602
Flags: HW
HStem: -12 61<201 377> 452 61<201 377> 679 20G<576 653>
VStem: 45 60<151 349> 468 60<147 353>
LayerCount: 2
Fore
SplineSet
529 527 m 1
 583 699 l 5
 653 699 l 5
 585 527 l 1
 529 527 l 1
290 452 m 0
 344 452 387 433 419 394 c 0
 451 355 468 308 468 250 c 0
 468 192 451 145 419 106 c 0
 387 67 344 48 290 48 c 0
 235 48 190 67 156 106 c 0
 122 145 105 193 105 250 c 0
 105 307 122 355 156 394 c 0
 190 433 235 452 290 452 c 0
290 512 m 0
 219 512 160 487 114 436 c 0
 68 385 45 324 45 250 c 0
 45 176 68 115 114 64 c 0
 160 13 219 -12 290 -12 c 0
 360 -12 413 13 452 62 c 0
 458 69 463 77 468 85 c 1
 468 0 l 1
 528 0 l 1
 528 700 l 1
 468 700 l 1
 468 415 l 1
 463 423 458 431 452 438 c 0
 413 487 360 512 290 512 c 0
EndSplineSet
Validated: 9
EndChar

StartChar: Dcroat
Encoding: 272 272 205
GlifName: D_croat
Width: 682
Flags: HW
HStem: 0 60<160 394> 319 60<50 298> 640 60<160 394>
VStem: 100 60<60 640> 573 60<239 461>
LayerCount: 2
Fore
SplineSet
283 640 m 2
 160 640 l 1
 160 60 l 1
 283 60 l 2
 363 60 431 88 488 145 c 0
 545 202 573 270 573 350 c 0
 573 430 545 498 488 555 c 0
 431 612 363 640 283 640 c 2
283 700 m 2
 380 700 462 666 530 598 c 0
 598 530 633 447 633 350 c 0
 633 253 598 171 530 103 c 0
 462 35 380 0 283 0 c 2
 100 0 l 1
 100 700 l 1
 283 700 l 2
50 319 m 1
 50 379 l 1
 298 379 l 1
 298 319 l 1
 50 319 l 1
EndSplineSet
Validated: 5
EndChar

StartChar: dcroat
Encoding: 273 273 206
GlifName: dcroat
Width: 602
Flags: HW
HStem: -12 61<201 377> 452 61<201 377>
VStem: 45 60<151 349> 468 60<147 353>
LayerCount: 2
Fore
SplineSet
290 452 m 0
 344 452 387 433 419 394 c 0
 451 355 468 308 468 250 c 0
 468 192 451 145 419 106 c 0
 387 67 344 48 290 48 c 0
 235 48 190 67 156 106 c 0
 122 145 105 193 105 250 c 0
 105 307 122 355 156 394 c 0
 190 433 235 452 290 452 c 0
290 512 m 0
 219 512 160 487 114 436 c 0
 68 385 45 324 45 250 c 0
 45 176 68 115 114 64 c 0
 160 13 219 -12 290 -12 c 0
 360 -12 413 13 452 62 c 0
 458 69 463 77 468 85 c 1
 468 0 l 1
 528 0 l 1
 528 700 l 1
 468 700 l 1
 468 415 l 1
 463 423 458 431 452 438 c 0
 413 487 360 512 290 512 c 0
600 566 m 5
 600 626 l 1
 330 626 l 1
 330 566 l 1
 600 566 l 5
EndSplineSet
Validated: 5
EndChar

StartChar: Emacron
Encoding: 274 274 207
GlifName: E_macron
Width: 592
Flags: HW
HStem: 0 60<160 503> 329 60<160 439> 640 60<160 503> 750 60<158 458>
VStem: 100 60<60 329 389 640>
LayerCount: 2
Fore
SplineSet
158 750 m 1
 158 810 l 1
 458 810 l 1
 458 750 l 1
 158 750 l 1
100 0 m 1
 100 700 l 1
 503 700 l 1
 503 640 l 1
 160 640 l 1
 160 389 l 1
 439 389 l 1
 439 329 l 1
 160 329 l 1
 160 60 l 1
 503 60 l 1
 503 0 l 1
 100 0 l 1
EndSplineSet
Validated: 1
EndChar

StartChar: emacron
Encoding: 275 275 208
GlifName: emacron
Width: 548
Flags: HW
HStem: -12 61<201 400> 220 61<107 453> 452 61<201 373> 580 60<136 436>
VStem: 45 62<148 220 280 352>
LayerCount: 2
Fore
SplineSet
136 580 m 1
 136 640 l 1
 436 640 l 1
 436 580 l 1
 136 580 l 1
514 220 m 1
 107 220 l 1
 113 170 133 129 166 97 c 0
 199 65 241 48 290 48 c 0
 360 48 414 68 453 107 c 1
 494 63 l 1
 444 13 376 -12 290 -12 c 0
 219 -12 160 13 114 64 c 0
 68 115 45 177 45 250 c 0
 45 323 68 385 114 436 c 0
 160 487 219 512 290 512 c 0
 360 512 414 488 454 438 c 0
 494 388 514 325 514 250 c 2
 514 220 l 1
290 452 m 0
 241 452 199 435 166 403 c 0
 133 371 113 330 107 280 c 1
 453 280 l 1
 448 331 432 372 404 404 c 0
 376 436 338 452 290 452 c 0
EndSplineSet
Validated: 1
EndChar

StartChar: Ebreve
Encoding: 276 276 209
GlifName: E_breve
Width: 592
Flags: HW
HStem: 0 60<160 503> 329 60<160 439> 640 60<160 503> 739 60<247 372>
VStem: 100 60<60 329 389 640> 162 60<823 870> 396 60<823 870>
LayerCount: 2
Fore
SplineSet
100 0 m 1
 100 700 l 1
 503 700 l 1
 503 640 l 1
 160 640 l 1
 160 389 l 1
 439 389 l 1
 439 329 l 1
 160 329 l 1
 160 60 l 1
 503 60 l 1
 503 0 l 1
 100 0 l 1
162 870 m 1
 222 870 l 1
 222 849 230 832 247 819 c 0
 264 806 284 799 309 799 c 0
 334 799 354 806 371 819 c 0
 388 832 396 849 396 870 c 1
 456 870 l 1
 456 834 442 803 414 777 c 0
 386 751 351 739 309 739 c 0
 267 739 233 751 205 777 c 0
 177 803 162 834 162 870 c 1
EndSplineSet
Validated: 1
EndChar

StartChar: ebreve
Encoding: 277 277 210
GlifName: ebreve
Width: 548
Flags: HW
HStem: -12 61<201 400> 220 61<107 453> 452 61<201 373> 569 60<225 350> 680 20G<140 200 374 434>
VStem: 45 62<148 220 280 352> 140 60<653 700> 374 60<653 700>
LayerCount: 2
Fore
SplineSet
514 220 m 1
 107 220 l 1
 113 170 133 129 166 97 c 0
 199 65 241 48 290 48 c 0
 360 48 414 68 453 107 c 1
 494 63 l 1
 444 13 376 -12 290 -12 c 0
 219 -12 160 13 114 64 c 0
 68 115 45 177 45 250 c 0
 45 323 68 385 114 436 c 0
 160 487 219 512 290 512 c 0
 360 512 414 488 454 438 c 0
 494 388 514 325 514 250 c 2
 514 220 l 1
290 452 m 0
 241 452 199 435 166 403 c 0
 133 371 113 330 107 280 c 1
 453 280 l 1
 448 331 432 372 404 404 c 0
 376 436 338 452 290 452 c 0
140 700 m 1
 200 700 l 1
 200 679 208 662 225 649 c 0
 242 636 262 629 287 629 c 0
 312 629 332 636 349 649 c 0
 366 662 374 679 374 700 c 1
 434 700 l 1
 434 664 420 633 392 607 c 0
 364 581 329 569 287 569 c 0
 245 569 211 581 183 607 c 0
 155 633 140 664 140 700 c 1
EndSplineSet
Validated: 1
EndChar

StartChar: Edotaccent
Encoding: 278 278 211
GlifName: E_dotaccent
Width: 592
Flags: HW
HStem: 0 60<160 503> 329 60<160 439> 640 60<160 503> 800 80<280 336>
VStem: 100 60<60 329 389 640> 268 80<812 868>
LayerCount: 2
Fore
SplineSet
348 840 m 0
 348 829 344 820 336 812 c 0
 328 804 319 800 308 800 c 0
 297 800 287 804 279 812 c 0
 271 820 268 829 268 840 c 0
 268 851 271 861 279 869 c 0
 287 877 297 880 308 880 c 0
 319 880 328 877 336 869 c 0
 344 861 348 851 348 840 c 0
100 0 m 1
 100 700 l 1
 503 700 l 1
 503 640 l 1
 160 640 l 1
 160 389 l 1
 439 389 l 1
 439 329 l 1
 160 329 l 1
 160 60 l 1
 503 60 l 1
 503 0 l 1
 100 0 l 1
EndSplineSet
Validated: 1
EndChar

StartChar: edotaccent
Encoding: 279 279 212
GlifName: edotaccent
Width: 548
Flags: HW
HStem: -12 61<201 400> 220 61<107 453> 452 61<201 373> 630 80<258 314>
VStem: 45 62<148 220 280 352> 246 80<642 698>
LayerCount: 2
Fore
SplineSet
326 670 m 0
 326 659 322 650 314 642 c 0
 306 634 297 630 286 630 c 0
 275 630 265 634 257 642 c 0
 249 650 246 659 246 670 c 0
 246 681 249 691 257 699 c 0
 265 707 275 710 286 710 c 0
 297 710 306 707 314 699 c 0
 322 691 326 681 326 670 c 0
514 220 m 1
 107 220 l 1
 113 170 133 129 166 97 c 0
 199 65 241 48 290 48 c 0
 360 48 414 68 453 107 c 1
 494 63 l 1
 444 13 376 -12 290 -12 c 0
 219 -12 160 13 114 64 c 0
 68 115 45 177 45 250 c 0
 45 323 68 385 114 436 c 0
 160 487 219 512 290 512 c 0
 360 512 414 488 454 438 c 0
 494 388 514 325 514 250 c 2
 514 220 l 1
290 452 m 0
 241 452 199 435 166 403 c 0
 133 371 113 330 107 280 c 1
 453 280 l 1
 448 331 432 372 404 404 c 0
 376 436 338 452 290 452 c 0
EndSplineSet
Validated: 1
EndChar

StartChar: Eogonek
Encoding: 280 280 213
GlifName: E_ogonek
Width: 592
Flags: HW
HStem: -212 55<406 490> 0 60<160 444 502 503> 329 60<160 439> 640 60<160 503>
VStem: 100 60<60 329 389 640> 341 55<-146 -72>
LayerCount: 2
Fore
SplineSet
522 -170 m 5
 519 -175 515 -179 511 -183 c 0
 492 -202 468 -212 441 -212 c 0
 413 -212 390 -203 370 -183 c 0
 351 -164 341 -140 341 -114 c 0
 341 -85 353 -59 377 -35 c 0
 393 -19 416 -3 444 12 c 1
 502 12 l 1
 410 -81 l 2
 401 -90 396 -100 396 -112 c 0
 396 -124 401 -135 410 -144 c 0
 419 -153 429 -157 441 -157 c 0
 453 -157 463 -153 472 -144 c 0
 474 -142 477 -140 478 -138 c 9
 522 -170 l 5
100 0 m 1
 100 700 l 1
 503 700 l 1
 503 640 l 1
 160 640 l 1
 160 389 l 1
 439 389 l 1
 439 329 l 1
 160 329 l 1
 160 60 l 1
 503 60 l 1
 503 0 l 1
 100 0 l 1
EndSplineSet
Validated: 5
EndChar

StartChar: eogonek
Encoding: 281 281 214
GlifName: eogonek
Width: 548
Flags: HW
HStem: -195 55<355 439> -12 61<201 358> 220 61<107 453> 452 61<201 373>
VStem: 45 62<148 220 280 352> 290 55<-130 -56>
LayerCount: 2
Fore
SplineSet
514 220 m 1
 107 220 l 1
 113 170 133 129 166 97 c 0
 199 65 241 48 290 48 c 0
 360 48 414 68 453 107 c 1
 494 63 l 1
 444 13 376 -12 290 -12 c 0
 219 -12 160 13 114 64 c 0
 68 115 45 177 45 250 c 0
 45 323 68 385 114 436 c 0
 160 487 219 512 290 512 c 0
 360 512 414 488 454 438 c 0
 494 388 514 325 514 250 c 2
 514 220 l 1
290 452 m 0
 241 452 199 435 166 403 c 0
 133 371 113 330 107 280 c 1
 453 280 l 1
 448 331 432 372 404 404 c 0
 376 436 338 452 290 452 c 0
472 -153 m 5
 469 -158 464 -162 460 -166 c 0
 441 -185 417 -195 390 -195 c 0
 362 -195 339 -186 319 -166 c 0
 300 -147 290 -124 290 -98 c 0
 290 -69 302 -42 326 -18 c 0
 342 -2 365 14 393 29 c 1
 451 29 l 1
 358 -63 l 2
 349 -72 345 -83 345 -95 c 0
 345 -107 349 -118 358 -127 c 0
 367 -136 378 -140 390 -140 c 0
 402 -140 412 -136 421 -127 c 0
 423 -125 425 -123 426 -121 c 9
 472 -153 l 5
EndSplineSet
Validated: 5
EndChar

StartChar: Ecaron
Encoding: 282 282 215
GlifName: E_caron
Width: 592
Flags: HW
HStem: 0 60<160 503> 329 60<160 439> 640 60<160 503> 744 48<264 350>
VStem: 100 60<60 329 389 640>
LayerCount: 2
Fore
SplineSet
146 870 m 5
 228 870 l 5
 307 792 l 5
 386 870 l 5
 468 870 l 5
 350 744 l 5
 264 744 l 5
 146 870 l 5
100 0 m 1
 100 700 l 1
 503 700 l 1
 503 640 l 1
 160 640 l 1
 160 389 l 1
 439 389 l 1
 439 329 l 1
 160 329 l 1
 160 60 l 1
 503 60 l 1
 503 0 l 1
 100 0 l 1
EndSplineSet
Validated: 1
EndChar

StartChar: ecaron
Encoding: 283 283 216
GlifName: ecaron
Width: 548
Flags: HW
HStem: -12 61<201 400> 220 61<107 453> 452 61<201 373> 574 48<242 328> 680 20G<124 226 344 446>
VStem: 45 62<148 220 280 352>
LayerCount: 2
Fore
SplineSet
124 700 m 5
 206 700 l 5
 285 622 l 5
 364 700 l 5
 446 700 l 5
 328 574 l 5
 242 574 l 5
 124 700 l 5
514 220 m 1
 107 220 l 1
 113 170 133 129 166 97 c 0
 199 65 241 48 290 48 c 0
 360 48 414 68 453 107 c 1
 494 63 l 1
 444 13 376 -12 290 -12 c 0
 219 -12 160 13 114 64 c 0
 68 115 45 177 45 250 c 0
 45 323 68 385 114 436 c 0
 160 487 219 512 290 512 c 0
 360 512 414 488 454 438 c 0
 494 388 514 325 514 250 c 2
 514 220 l 1
290 452 m 0
 241 452 199 435 166 403 c 0
 133 371 113 330 107 280 c 1
 453 280 l 1
 448 331 432 372 404 404 c 0
 376 436 338 452 290 452 c 0
EndSplineSet
Validated: 1
EndChar

StartChar: Gcircumflex
Encoding: 284 284 217
GlifName: G_circumflex
Width: 765
Flags: HW
HStem: -12 60<281 496> 320 60<476 665> 652 60<279 497>
VStem: 50 60<230 470>
CounterMasks: 1 e0
LayerCount: 2
Fore
SplineSet
229 745 m 1
 349 871 l 1
 431 871 l 1
 551 745 l 1
 469 745 l 1
 390 825 l 5
 311 745 l 1
 229 745 l 1
388 712 m 0
 438 712 486 703 528 683 c 0
 570 663 607 636 638 600 c 1
 594 556 l 1
 540 620 472 652 388 652 c 0
 307 652 240 623 188 564 c 0
 136 505 110 434 110 350 c 0
 110 266 136 195 188 136 c 0
 240 77 307 48 388 48 c 0
 472 48 540 80 594 144 c 0
 635 193 659 252 665 320 c 1
 476 320 l 1
 476 380 l 1
 726 380 l 1
 726 350 l 2
 726 252 696 168 637 100 c 0
 606 65 570 38 527 18 c 0
 484 -2 438 -12 388 -12 c 0
 289 -12 208 23 145 93 c 0
 82 163 50 248 50 350 c 0
 50 452 82 537 145 607 c 0
 208 677 289 712 388 712 c 0
EndSplineSet
Validated: 1
EndChar

StartChar: gcircumflex
Encoding: 285 285 218
GlifName: gcircumflex
Width: 589
Flags: HW
HStem: -212 55<159 365> 0 60<197 368> 452 60<199 367> 480 20G<455 515> 680 20G<246 366>
VStem: 45 60<160 353> 455 60<-57 91 157 356 421 500>
LayerCount: 2
Fore
SplineSet
145 574 m 1xce
 265 700 l 1
 347 700 l 1
 467 574 l 1
 385 574 l 1
 306 654 l 5
 227 574 l 1
 145 574 l 1xce
284 452 m 0xee
 232 452 188 433 155 395 c 0
 122 357 105 311 105 256 c 0
 105 201 122 155 155 117 c 0
 188 79 231 61 284 61 c 0
 336 61 377 79 408 117 c 0
 439 155 455 201 455 256 c 4
 455 311 439 358 408 396 c 0
 377 434 336 452 284 452 c 0xee
284 512 m 0
 352 512 404 487 442 439 c 0
 446 433 451 427 455 421 c 1
 455 500 l 1
 515 500 l 1xde
 515 46 l 2
 515 -29 493 -92 448 -140 c 0
 403 -188 345 -212 274 -212 c 0
 209 -212 148 -195 91 -162 c 1
 116 -114 l 1
 160 -143 213 -157 274 -157 c 0
 333 -157 377 -138 408 -98 c 0
 439 -58 455 -11 455 46 c 2
 455 91 l 1
 451 85 446 79 442 73 c 0
 404 25 352 0 284 0 c 0
 215 0 157 26 112 75 c 0
 67 124 45 184 45 256 c 0
 45 328 67 389 112 438 c 0
 157 487 215 512 284 512 c 0
EndSplineSet
Validated: 1
EndChar

StartChar: Gbreve
Encoding: 286 286 219
GlifName: G_breve
Width: 765
Flags: HW
HStem: -12 60<281 496> 320 60<476 665> 652 60<279 497> 769 60<324 448>
VStem: 50 60<230 470> 239 60<853 900> 473 60<853 900>
LayerCount: 2
Fore
SplineSet
239 900 m 1
 299 900 l 1
 299 879 307 862 324 849 c 0
 341 836 361 829 386 829 c 0
 411 829 431 836 448 849 c 0
 465 862 473 879 473 900 c 1
 533 900 l 1
 533 864 519 834 491 808 c 0
 463 782 428 769 386 769 c 0
 344 769 310 782 282 808 c 0
 254 834 239 864 239 900 c 1
388 712 m 0
 438 712 486 703 528 683 c 0
 570 663 607 636 638 600 c 1
 594 556 l 1
 540 620 472 652 388 652 c 0
 307 652 240 623 188 564 c 0
 136 505 110 434 110 350 c 0
 110 266 136 195 188 136 c 0
 240 77 307 48 388 48 c 0
 472 48 540 80 594 144 c 0
 635 193 659 252 665 320 c 1
 476 320 l 1
 476 380 l 1
 726 380 l 1
 726 350 l 2
 726 252 696 168 637 100 c 0
 606 65 570 38 527 18 c 0
 484 -2 438 -12 388 -12 c 0
 289 -12 208 23 145 93 c 0
 82 163 50 248 50 350 c 0
 50 452 82 537 145 607 c 0
 208 677 289 712 388 712 c 0
EndSplineSet
Validated: 1
EndChar

StartChar: gbreve
Encoding: 287 287 220
GlifName: gbreve
Width: 589
Flags: HW
HStem: -212 55<159 365> 0 60<197 368> 452 60<199 367> 480 20G<455 515> 569 60<254 379> 680 20G<170 230 404 464>
VStem: 45 60<160 353> 170 60<653 700> 404 60<653 700> 455 60<-57 91 157 356 421 500>
LayerCount: 2
Fore
SplineSet
170 700 m 1xcf80
 230 700 l 1
 230 679 238 662 255 649 c 0
 272 636 292 629 317 629 c 0
 342 629 362 636 379 649 c 0
 396 662 404 679 404 700 c 1
 464 700 l 1
 464 664 449 633 421 607 c 0
 393 581 359 569 317 569 c 0
 275 569 240 581 212 607 c 0
 184 633 170 664 170 700 c 1xcf80
284 452 m 0xef40
 232 452 188 433 155 395 c 0
 122 357 105 311 105 256 c 0
 105 201 122 155 155 117 c 0
 188 79 231 61 284 61 c 0
 336 61 377 79 408 117 c 0
 439 155 455 201 455 256 c 4
 455 311 439 358 408 396 c 0
 377 434 336 452 284 452 c 0xef40
284 512 m 0
 352 512 404 487 442 439 c 0
 446 433 451 427 455 421 c 1
 455 500 l 1
 515 500 l 1xdf40
 515 46 l 2
 515 -29 493 -92 448 -140 c 0
 403 -188 345 -212 274 -212 c 0
 209 -212 148 -195 91 -162 c 1
 116 -114 l 1
 160 -143 213 -157 274 -157 c 0
 333 -157 377 -138 408 -98 c 0
 439 -58 455 -11 455 46 c 2
 455 91 l 1
 451 85 446 79 442 73 c 0
 404 25 352 0 284 0 c 0
 215 0 157 26 112 75 c 0
 67 124 45 184 45 256 c 0
 45 328 67 389 112 438 c 0
 157 487 215 512 284 512 c 0
EndSplineSet
Validated: 1
EndChar

StartChar: Gdotaccent
Encoding: 288 288 221
GlifName: G_dotaccent
Width: 765
Flags: HW
HStem: -12 60<281 496> 320 60<476 665> 652 60<279 497> 830 80<358 414>
VStem: 50 60<230 470> 346 80<842 898>
LayerCount: 2
Fore
SplineSet
426 870 m 0
 426 859 423 849 415 841 c 0
 407 833 397 830 386 830 c 0
 375 830 365 833 357 841 c 0
 349 849 346 859 346 870 c 0
 346 881 349 890 357 898 c 0
 365 906 375 910 386 910 c 0
 397 910 407 906 415 898 c 0
 423 890 426 881 426 870 c 0
388 712 m 0
 438 712 486 703 528 683 c 0
 570 663 607 636 638 600 c 1
 594 556 l 1
 540 620 472 652 388 652 c 0
 307 652 240 623 188 564 c 0
 136 505 110 434 110 350 c 0
 110 266 136 195 188 136 c 0
 240 77 307 48 388 48 c 0
 472 48 540 80 594 144 c 0
 635 193 659 252 665 320 c 1
 476 320 l 1
 476 380 l 1
 726 380 l 1
 726 350 l 2
 726 252 696 168 637 100 c 0
 606 65 570 38 527 18 c 0
 484 -2 438 -12 388 -12 c 0
 289 -12 208 23 145 93 c 0
 82 163 50 248 50 350 c 0
 50 452 82 537 145 607 c 0
 208 677 289 712 388 712 c 0
EndSplineSet
Validated: 1
EndChar

StartChar: gdotaccent
Encoding: 289 289 222
GlifName: gdotaccent
Width: 589
Flags: HW
HStem: -212 55<159 365> 0 60<197 368> 452 60<199 367> 480 20G<455 515> 630 80<279 335>
VStem: 45 60<160 353> 267 80<642 698> 455 60<-57 91 157 356 421 500>
LayerCount: 2
Fore
SplineSet
347 670 m 0xcf
 347 659 343 650 335 642 c 0
 327 634 318 630 307 630 c 0
 296 630 286 634 278 642 c 0
 270 650 267 659 267 670 c 0
 267 681 270 691 278 699 c 0
 286 707 296 710 307 710 c 0
 318 710 327 707 335 699 c 0
 343 691 347 681 347 670 c 0xcf
284 452 m 0xef
 232 452 188 433 155 395 c 0
 122 357 105 311 105 256 c 0
 105 201 122 155 155 117 c 0
 188 79 231 61 284 61 c 0
 336 61 377 79 408 117 c 0
 439 155 455 201 455 256 c 4
 455 311 439 358 408 396 c 0
 377 434 336 452 284 452 c 0xef
284 512 m 0
 352 512 404 487 442 439 c 0
 446 433 451 427 455 421 c 1
 455 500 l 1
 515 500 l 1xdf
 515 46 l 2
 515 -29 493 -92 448 -140 c 0
 403 -188 345 -212 274 -212 c 0
 209 -212 148 -195 91 -162 c 1
 116 -114 l 1
 160 -143 213 -157 274 -157 c 0
 333 -157 377 -138 408 -98 c 0
 439 -58 455 -11 455 46 c 2
 455 91 l 1
 451 85 446 79 442 73 c 0
 404 25 352 0 284 0 c 0
 215 0 157 26 112 75 c 0
 67 124 45 184 45 256 c 0
 45 328 67 389 112 438 c 0
 157 487 215 512 284 512 c 0
EndSplineSet
Validated: 1
EndChar

StartChar: uni0122
Encoding: 290 290 223
GlifName: uni0122
Width: 765
Flags: HW
HStem: -12 60<281 496> 320 60<476 665> 652 60<279 497>
VStem: 50 60<230 470>
CounterMasks: 1 e0
LayerCount: 2
Fore
SplineSet
344 -200 m 5
 384 -64 l 1
 455 -64 l 1
 400 -200 l 5
 344 -200 l 5
388 712 m 0
 438 712 486 703 528 683 c 0
 570 663 607 636 638 600 c 1
 594 556 l 1
 540 620 472 652 388 652 c 0
 307 652 240 623 188 564 c 0
 136 505 110 434 110 350 c 0
 110 266 136 195 188 136 c 0
 240 77 307 48 388 48 c 0
 472 48 540 80 594 144 c 0
 635 193 659 252 665 320 c 1
 476 320 l 1
 476 380 l 1
 726 380 l 1
 726 350 l 2
 726 252 696 168 637 100 c 0
 606 65 570 38 527 18 c 0
 484 -2 438 -12 388 -12 c 0
 289 -12 208 23 145 93 c 0
 82 163 50 248 50 350 c 0
 50 452 82 537 145 607 c 0
 208 677 289 712 388 712 c 0
EndSplineSet
Validated: 1
EndChar

StartChar: uni0123
Encoding: 291 291 224
GlifName: uni0123
Width: 589
Flags: HW
HStem: -212 55<159 365> 0 60<197 368> 452 60<199 367> 480 20G<455 515> 693 20G<306 372>
VStem: 45 60<160 353> 455 60<-57 91 157 356 421 500>
LayerCount: 2
Fore
SplineSet
284 452 m 0xee
 232 452 188 433 155 395 c 0
 122 357 105 311 105 256 c 0
 105 201 122 155 155 117 c 0
 188 79 231 61 284 61 c 0
 336 61 377 79 408 117 c 0
 439 155 455 201 455 256 c 4
 455 311 439 358 408 396 c 0
 377 434 336 452 284 452 c 0xee
284 512 m 0
 352 512 404 487 442 439 c 0
 446 433 451 427 455 421 c 1
 455 500 l 1
 515 500 l 1xde
 515 46 l 2
 515 -29 493 -92 448 -140 c 0
 403 -188 345 -212 274 -212 c 0
 209 -212 148 -195 91 -162 c 1
 116 -114 l 1
 160 -143 213 -157 274 -157 c 0
 333 -157 377 -138 408 -98 c 0
 439 -58 455 -11 455 46 c 2
 455 91 l 1
 451 85 446 79 442 73 c 0
 404 25 352 0 284 0 c 0
 215 0 157 26 112 75 c 0
 67 124 45 184 45 256 c 0
 45 328 67 389 112 438 c 0
 157 487 215 512 284 512 c 0
372 713 m 5
 321 584 l 5
 250 584 l 5
 316 713 l 5
 372 713 l 5
EndSplineSet
Validated: 1
EndChar

StartChar: Hcircumflex
Encoding: 292 292 225
GlifName: H_circumflex
Width: 726
Flags: HW
HStem: 0 21G<100 160 567 627> 331 60<160 567> 680 20G<100 160 567 627>
VStem: 100 60<0 331 391 700> 567 60<0 331 391 700>
LayerCount: 2
Fore
SplineSet
203 744 m 1
 323 870 l 1
 405 870 l 1
 525 744 l 1
 443 744 l 1
 364 824 l 5
 285 744 l 1
 203 744 l 1
100 0 m 1
 100 700 l 1
 160 700 l 1
 160 391 l 1
 567 391 l 1
 567 700 l 1
 627 700 l 1
 627 0 l 1
 567 0 l 1
 567 331 l 1
 160 331 l 1
 160 0 l 1
 100 0 l 1
EndSplineSet
Validated: 1
EndChar

StartChar: hcircumflex
Encoding: 293 293 226
GlifName: hcircumflex
Width: 553
Flags: HW
HStem: 0 21G<75 135 434 494> 452 60<210 359> 680 20G<75 135>
VStem: 75 60<0 372 432 700> 434 60<0 370>
LayerCount: 2
Fore
SplineSet
-57 774 m 1
 63 900 l 1
 145 900 l 1
 265 774 l 1
 183 774 l 1
 104 854 l 5
 25 774 l 1
 -57 774 l 1
494 0 m 1
 434 0 l 1
 434 268 l 2
 434 325 420 369 392 402 c 0
 364 435 328 452 285 452 c 0
 242 452 206 435 178 402 c 0
 150 369 135 325 135 268 c 2
 135 0 l 5
 75 0 l 5
 75 700 l 1
 135 700 l 1
 135 432 l 1
 138 437 142 442 145 446 c 0
 180 490 227 512 285 512 c 0
 345 512 394 489 434 445 c 0
 474 401 494 341 494 268 c 2
 494 0 l 1
EndSplineSet
Validated: 1
EndChar

StartChar: Hbar
Encoding: 294 294 227
GlifName: H_bar
Width: 726
Flags: HW
HStem: 0 21G<100 160 567 627> 331 60<160 567> 500 60<5 721> 680 20G<100 160 567 627>
VStem: 100 60<0 331 391 700> 567 60<0 331 391 700>
LayerCount: 2
Fore
SplineSet
100 0 m 1
 100 700 l 1
 160 700 l 1
 160 391 l 1
 567 391 l 1
 567 700 l 1
 627 700 l 1
 627 0 l 1
 567 0 l 1
 567 331 l 1
 160 331 l 1
 160 0 l 1
 100 0 l 1
5 500 m 1
 5 560 l 1
 721 560 l 1
 721 500 l 1
 5 500 l 1
EndSplineSet
Validated: 5
EndChar

StartChar: hbar
Encoding: 295 295 228
GlifName: hbar
Width: 553
Flags: HW
HStem: 0 21G<75 135 434 494> 452 60<210 359> 569 60<0 308> 680 20G<75 135>
VStem: 75 60<0 372 432 700> 434 60<0 370>
LayerCount: 2
Fore
SplineSet
494 0 m 1
 434 0 l 1
 434 268 l 2
 434 325 420 369 392 402 c 0
 364 435 328 452 285 452 c 0
 242 452 206 435 178 402 c 0
 150 369 135 325 135 268 c 2
 135 0 l 5
 75 0 l 5
 75 700 l 1
 135 700 l 1
 135 432 l 1
 138 437 142 442 145 446 c 0
 180 490 227 512 285 512 c 0
 345 512 394 489 434 445 c 0
 474 401 494 341 494 268 c 2
 494 0 l 1
0 569 m 1
 0 629 l 1
 308 629 l 1
 308 569 l 1
 0 569 l 1
EndSplineSet
Validated: 5
EndChar

StartChar: Itilde
Encoding: 296 296 229
GlifName: I_tilde
Width: 259
Flags: HW
HStem: 0 21G<100 160> 680 20G<100 160> 742 56<155 223> 814 56<39 104>
VStem: -26 59<777 810> 100 60<0 700> 228 59<802 836>
LayerCount: 2
Fore
SplineSet
100 0 m 1
 100 700 l 1
 160 700 l 1
 160 0 l 1
 100 0 l 1
190 742 m 0
 161 742 137 754 117 778 c 0
 109 787 102 796 95 803 c 0
 88 810 81 814 73 814 c 0
 52 814 39 802 33 777 c 1
 -26 777 l 1
 -23 803 -12 824 7 842 c 0
 26 860 48 870 73 870 c 0
 98 870 121 858 142 834 c 0
 150 825 158 816 165 809 c 0
 172 802 181 798 190 798 c 0
 211 798 224 811 228 836 c 1
 287 836 l 1
 283 809 272 787 254 769 c 0
 236 751 215 742 190 742 c 0
EndSplineSet
Validated: 1
EndChar

StartChar: itilde
Encoding: 297 297 230
GlifName: itilde
Width: 219
Flags: HW
HStem: 0 21G<79 139> 480 20G<79 139> 572 56<133 201> 644 56<17 83>
VStem: -48 59<607 640> 79 60<0 500> 206 59<632 666>
LayerCount: 2
Fore
SplineSet
79 0 m 1
 79 500 l 1
 139 500 l 1
 139 0 l 1
 79 0 l 1
168 572 m 0
 139 572 115 584 95 608 c 0
 87 617 80 626 73 633 c 0
 66 640 59 644 51 644 c 0
 30 644 17 632 11 607 c 1
 -48 607 l 1
 -45 633 -34 654 -15 672 c 0
 4 690 26 700 51 700 c 0
 76 700 99 688 120 664 c 0
 128 655 136 646 143 639 c 0
 150 632 159 628 168 628 c 0
 189 628 202 641 206 666 c 1
 265 666 l 1
 261 639 250 617 232 599 c 0
 214 581 193 572 168 572 c 0
EndSplineSet
Validated: 1
EndChar

StartChar: Imacron
Encoding: 298 298 231
GlifName: I_macron
Width: 259
Flags: HW
HStem: 0 21G<100 160> 680 20G<100 160> 750 60<-20 280>
VStem: 100 60<0 700>
LayerCount: 2
Fore
SplineSet
-20 750 m 1
 -20 810 l 1
 280 810 l 1
 280 750 l 1
 -20 750 l 1
100 0 m 1
 100 700 l 1
 160 700 l 1
 160 0 l 1
 100 0 l 1
EndSplineSet
Validated: 1
EndChar

StartChar: imacron
Encoding: 299 299 232
GlifName: imacron
Width: 219
Flags: HW
HStem: 0 21G<79 139> 480 20G<79 139> 580 57<-15 235>
VStem: 79 60<0 500>
LayerCount: 2
Fore
SplineSet
-15 580 m 1
 -15 637 l 1
 235 637 l 1
 235 580 l 1
 -15 580 l 1
79 0 m 1
 79 500 l 1
 139 500 l 1
 139 0 l 1
 79 0 l 1
EndSplineSet
Validated: 1
EndChar

StartChar: Ibreve
Encoding: 300 300 233
GlifName: I_breve
Width: 259
Flags: HW
HStem: 0 21G<100 160> 680 20G<100 160> 739 60<66 191>
VStem: -18 60<823 870> 100 60<0 700> 216 60<823 870>
LayerCount: 2
Fore
SplineSet
100 0 m 1
 100 700 l 1
 160 700 l 1
 160 0 l 1
 100 0 l 1
-18 870 m 1
 42 870 l 1
 42 849 50 832 67 819 c 0
 84 806 104 799 129 799 c 0
 154 799 174 806 191 819 c 0
 208 832 216 849 216 870 c 1
 276 870 l 1
 276 834 261 803 233 777 c 0
 205 751 171 739 129 739 c 0
 87 739 52 751 24 777 c 0
 -4 803 -18 834 -18 870 c 1
EndSplineSet
Validated: 1
EndChar

StartChar: ibreve
Encoding: 301 301 234
GlifName: ibreve
Width: 219
Flags: HW
HStem: 0 21G<79 139> 480 20G<79 139> 569 60<47 172> 680 20G<-37 23 197 257>
VStem: -37 60<653 700> 79 60<0 500> 197 60<653 700>
LayerCount: 2
Fore
SplineSet
79 0 m 1
 79 500 l 1
 139 500 l 1
 139 0 l 1
 79 0 l 1
-37 700 m 1
 23 700 l 1
 23 679 31 662 48 649 c 0
 65 636 85 629 110 629 c 0
 135 629 155 636 172 649 c 0
 189 662 197 679 197 700 c 1
 257 700 l 1
 257 664 242 633 214 607 c 0
 186 581 152 569 110 569 c 0
 68 569 33 581 5 607 c 0
 -23 633 -37 664 -37 700 c 1
EndSplineSet
Validated: 1
EndChar

StartChar: Iogonek
Encoding: 302 302 235
GlifName: I_ogonek
Width: 259
Flags: HW
HStem: -212 55<63 147> 0 21G<100 160> 680 20G<100 160>
VStem: -2 55<-146 -72> 100 60<12 700>
LayerCount: 2
Fore
SplineSet
180 -170 m 5
 177 -175 172 -179 168 -183 c 0
 149 -202 125 -212 98 -212 c 0
 70 -212 47 -203 27 -183 c 0
 8 -164 -2 -140 -2 -114 c 0
 -2 -85 10 -59 34 -35 c 0
 50 -19 73 -3 101 12 c 1
 159 12 l 1
 66 -81 l 2
 57 -90 53 -100 53 -112 c 0
 53 -124 57 -135 66 -144 c 0
 75 -153 86 -157 98 -157 c 0
 110 -157 120 -153 129 -144 c 0
 131 -142 133 -140 134 -138 c 9
 180 -170 l 5
100 0 m 1
 100 700 l 1
 160 700 l 1
 160 0 l 1
 100 0 l 1
EndSplineSet
Validated: 5
EndChar

StartChar: iogonek
Encoding: 303 303 236
GlifName: iogonek
Width: 219
Flags: HW
HStem: -212 55<42 126> 0 21G<79 139> 480 20G<79 139> 630 80<82 138>
VStem: -23 55<-146 -72> 70 80<642 698> 79 60<12 500>
LayerCount: 2
Fore
SplineSet
159 -170 m 5xf8
 156 -175 151 -179 147 -183 c 0
 128 -202 104 -212 77 -212 c 0
 49 -212 26 -203 6 -183 c 0
 -13 -164 -23 -140 -23 -114 c 0
 -23 -85 -11 -59 13 -35 c 0
 29 -19 52 -3 80 12 c 1
 138 12 l 1
 45 -81 l 2
 36 -90 32 -100 32 -112 c 0
 32 -124 36 -135 45 -144 c 0
 54 -153 65 -157 77 -157 c 0
 89 -157 99 -153 108 -144 c 0
 110 -142 112 -140 113 -138 c 9
 159 -170 l 5xf8
150 670 m 0xfc
 150 659 147 650 139 642 c 0
 131 634 121 630 110 630 c 0
 99 630 90 634 82 642 c 0
 74 650 70 659 70 670 c 0
 70 681 74 691 82 699 c 0
 90 707 99 710 110 710 c 0
 121 710 131 707 139 699 c 0
 147 691 150 681 150 670 c 0xfc
79 0 m 1xfa
 79 500 l 1
 139 500 l 1
 139 0 l 1
 79 0 l 1xfa
EndSplineSet
Validated: 5
EndChar

StartChar: Idotaccent
Encoding: 304 304 237
GlifName: I_dotaccent
Width: 259
Flags: HW
HStem: 0 21G<100 160> 680 20G<100 160> 800 80<102 158>
VStem: 90 80<812 868> 100 60<0 700>
LayerCount: 2
Fore
SplineSet
170 840 m 0xf0
 170 829 167 820 159 812 c 0
 151 804 141 800 130 800 c 0
 119 800 110 804 102 812 c 0
 94 820 90 829 90 840 c 0
 90 851 94 861 102 869 c 0
 110 877 119 880 130 880 c 0
 141 880 151 877 159 869 c 0
 167 861 170 851 170 840 c 0xf0
100 0 m 1xe8
 100 700 l 1
 160 700 l 1
 160 0 l 1
 100 0 l 1xe8
EndSplineSet
Validated: 1
EndChar

StartChar: dotlessi
Encoding: 305 305 238
GlifName: dotlessi
Width: 219
Flags: HW
HStem: 0 21G<79 139> 480 20G<79 139>
VStem: 79 60<0 500>
LayerCount: 2
Fore
SplineSet
79 0 m 1
 79 500 l 1
 139 500 l 1
 139 0 l 1
 79 0 l 1
EndSplineSet
Validated: 1
EndChar

StartChar: IJ
Encoding: 306 306 239
GlifName: I_J_
Width: 763
Flags: HW
HStem: -11 60<329 464> 0 21G<100 160> 680 20G<100 160 517 577>
VStem: 100 60<0 700> 517 60<102 700>
LayerCount: 2
Fore
SplineSet
517 700 m 1xb8
 577 700 l 1
 577 169 l 2
 577 119 559 77 524 42 c 0
 489 7 447 -11 397 -11 c 0
 347 -11 305 7 270 42 c 1
 312 84 l 1
 335 61 364 49 397 49 c 0
 429 49 457 61 481 85 c 0
 505 109 517 137 517 169 c 2
 517 700 l 1xb8
100 0 m 1x78
 100 700 l 1
 160 700 l 1
 160 0 l 1
 100 0 l 1x78
EndSplineSet
Validated: 1
EndChar

StartChar: ij
Encoding: 307 307 240
GlifName: ij
Width: 479
Flags: HW
HStem: -215 60<170 247> 0 21G<79 139> 480 20G<79 139 318 378> 632 80<82 138 320 376>
VStem: 70 80<642 698> 79 60<0 500> 308 80<644 700> 318 60<-84 500>
LayerCount: 2
Fore
SplineSet
318 500 m 5xf1
 378 500 l 5
 378 -7 l 6
 378 -64 358 -113 317 -154 c 4
 276 -195 227 -215 170 -215 c 5
 170 -155 l 5
 211 -155 245 -140 274 -111 c 4
 303 -82 318 -48 318 -7 c 6
 318 500 l 5xf1
388 672 m 4xf2
 388 661 384 652 376 644 c 4
 368 636 359 632 348 632 c 4
 337 632 327 636 319 644 c 4
 311 652 308 661 308 672 c 4
 308 683 311 693 319 701 c 4
 327 709 337 712 348 712 c 4
 359 712 368 709 376 701 c 4
 384 693 388 683 388 672 c 4xf2
150 670 m 0xf8
 150 659 147 650 139 642 c 0
 131 634 121 630 110 630 c 0
 99 630 90 634 82 642 c 0
 74 650 70 659 70 670 c 0
 70 681 74 691 82 699 c 0
 90 707 99 710 110 710 c 0
 121 710 131 707 139 699 c 0
 147 691 150 681 150 670 c 0xf8
79 0 m 1xf4
 79 500 l 1
 139 500 l 1
 139 0 l 1
 79 0 l 1xf4
EndSplineSet
Validated: 1
EndChar

StartChar: Jcircumflex
Encoding: 308 308 241
GlifName: J_circumflex
Width: 402
Flags: HW
HStem: -11 60<65 200> 680 20G<253 313>
VStem: 253 60<102 700>
LayerCount: 2
Fore
SplineSet
118 744 m 1
 238 870 l 1
 320 870 l 1
 440 744 l 1
 358 744 l 1
 279 824 l 5
 200 744 l 1
 118 744 l 1
253 700 m 1
 313 700 l 1
 313 169 l 2
 313 119 295 77 260 42 c 0
 225 7 183 -11 133 -11 c 0
 83 -11 41 7 6 42 c 1
 48 84 l 1
 71 61 100 49 133 49 c 0
 165 49 193 61 217 85 c 0
 241 109 253 137 253 169 c 2
 253 700 l 1
EndSplineSet
Validated: 1
EndChar

StartChar: jcircumflex
Encoding: 309 309 242
GlifName: jcircumflex
Width: 237
Flags: HW
HStem: -215 60<-50 27> 480 20G<98 158> 680 20G<59 179>
VStem: 98 60<-84 500>
LayerCount: 2
Fore
SplineSet
-42 574 m 1
 78 700 l 1
 160 700 l 1
 280 574 l 1
 198 574 l 1
 119 654 l 5
 40 574 l 1
 -42 574 l 1
98 500 m 1
 158 500 l 1
 158 -7 l 2
 158 -64 138 -113 97 -154 c 0
 56 -195 7 -215 -50 -215 c 1
 -50 -155 l 1
 -9 -155 26 -140 55 -111 c 0
 84 -82 98 -48 98 -7 c 2
 98 500 l 1
EndSplineSet
Validated: 1
EndChar

StartChar: uni0136
Encoding: 310 310 243
GlifName: uni0136
Width: 587
Flags: HW
HStem: 0 21G<100 160 489 583> 680 20G<100 160 472 573>
VStem: 100 60<0 271 359 700>
LayerCount: 2
Fore
SplineSet
223 -200 m 5
 263 -64 l 1
 334 -64 l 1
 279 -200 l 5
 223 -200 l 5
100 0 m 1
 100 700 l 1
 160 700 l 1
 160 359 l 1
 491 700 l 1
 573 700 l 1
 267 383 l 1
 583 0 l 1
 505 0 l 1
 226 339 l 1
 160 271 l 1
 160 0 l 1
 100 0 l 1
EndSplineSet
Validated: 1
EndChar

StartChar: uni0137
Encoding: 311 311 244
GlifName: uni0137
Width: 464
Flags: HW
HStem: 0 21G<75 135 378 465> 480 20G<346 447> 680 20G<75 135>
VStem: 75 60<0 175 261 700>
LayerCount: 2
Fore
SplineSet
168 -200 m 5
 208 -64 l 1
 279 -64 l 1
 224 -200 l 5
 168 -200 l 5
75 0 m 1
 75 700 l 1
 135 700 l 1
 135 261 l 1
 365 500 l 1
 447 500 l 1
 258 303 l 1
 465 0 l 1
 392 0 l 1
 216 259 l 1
 135 175 l 1
 135 0 l 1
 75 0 l 1
EndSplineSet
Validated: 1
EndChar

StartChar: Lacute
Encoding: 313 313 245
GlifName: L_acute
Width: 512
Flags: HW
HStem: 0 60<160 503> 680 20G<100 160>
VStem: 100 60<60 700>
LayerCount: 2
Fore
SplineSet
94 744 m 1
 203 870 l 1
 292 870 l 1
 170 744 l 1
 94 744 l 1
100 0 m 1
 100 700 l 1
 160 700 l 1
 160 60 l 1
 503 60 l 1
 503 0 l 1
 100 0 l 1
EndSplineSet
Validated: 1
EndChar

StartChar: lacute
Encoding: 314 314 246
GlifName: lacute
Width: 209
Flags: HW
HStem: 0 21G<75 135> 680 20G<75 135>
VStem: 75 60<0 700>
LayerCount: 2
Fore
SplineSet
67 744 m 1
 176 870 l 1
 265 870 l 1
 143 744 l 1
 67 744 l 1
75 700 m 5
 135 700 l 1
 135 0 l 1
 75 0 l 1
 75 700 l 5
EndSplineSet
Validated: 1
EndChar

StartChar: uni013B
Encoding: 315 315 247
GlifName: uni013B_
Width: 512
Flags: HW
HStem: 0 60<160 503> 680 20G<100 160>
VStem: 100 60<60 700>
LayerCount: 2
Fore
SplineSet
213 -200 m 5
 253 -64 l 1
 324 -64 l 1
 269 -200 l 5
 213 -200 l 5
100 0 m 1
 100 700 l 1
 160 700 l 1
 160 60 l 1
 503 60 l 1
 503 0 l 1
 100 0 l 1
EndSplineSet
Validated: 1
EndChar

StartChar: uni013C
Encoding: 316 316 248
GlifName: uni013C_
Width: 209
Flags: HW
HStem: 0 21G<75 135> 680 20G<75 135>
VStem: 75 60<0 700>
LayerCount: 2
Fore
SplineSet
34 -200 m 5
 74 -64 l 1
 145 -64 l 1
 90 -200 l 5
 34 -200 l 5
75 700 m 5
 135 700 l 1
 135 0 l 1
 75 0 l 1
 75 700 l 5
EndSplineSet
Validated: 1
EndChar

StartChar: Lcaron
Encoding: 317 317 249
GlifName: L_caron
Width: 512
Flags: HW
HStem: 0 60<160 503> 680 20G<100 160>
VStem: 100 60<60 700>
LayerCount: 2
Fore
SplineSet
227 586 m 1
 280 758 l 5
 351 758 l 5
 283 586 l 1
 227 586 l 1
100 0 m 1
 100 700 l 1
 160 700 l 1
 160 60 l 1
 503 60 l 1
 503 0 l 1
 100 0 l 1
EndSplineSet
Validated: 1
EndChar

StartChar: lcaron
Encoding: 318 318 250
GlifName: lcaron
Width: 209
Flags: HW
HStem: 0 21G<75 135> 679 20G<75 135 197 274>
VStem: 75 60<0 700>
LayerCount: 2
Fore
SplineSet
150 527 m 1
 203 699 l 5
 274 699 l 5
 206 527 l 1
 150 527 l 1
75 700 m 5
 135 700 l 1
 135 0 l 1
 75 0 l 1
 75 700 l 5
EndSplineSet
Validated: 1
EndChar

StartChar: Ldot
Encoding: 319 319 251
GlifName: L_dot
Width: 512
Flags: HW
HStem: 0 60<160 503> 330 80<321 377> 680 20G<100 160>
VStem: 100 60<60 700> 309 80<342 398>
LayerCount: 2
Fore
SplineSet
100 0 m 1
 100 700 l 1
 160 700 l 1
 160 60 l 1
 503 60 l 1
 503 0 l 1
 100 0 l 1
389 370 m 0
 389 359 385 349 377 341 c 0
 369 333 360 330 349 330 c 0
 338 330 328 333 320 341 c 0
 312 349 309 359 309 370 c 0
 309 381 312 390 320 398 c 0
 328 406 338 410 349 410 c 0
 360 410 369 406 377 398 c 0
 385 390 389 381 389 370 c 0
EndSplineSet
Validated: 1
EndChar

StartChar: ldot
Encoding: 320 320 252
GlifName: ldot
Width: 285
Flags: HW
HStem: 0 21G<75 135> 330 80<181 237> 680 20G<75 135>
VStem: 75 60<0 700> 169 80<342 398>
LayerCount: 2
Fore
SplineSet
75 700 m 5
 135 700 l 1
 135 0 l 1
 75 0 l 1
 75 700 l 5
249 370 m 0
 249 359 245 349 237 341 c 0
 229 333 220 330 209 330 c 0
 198 330 188 333 180 341 c 0
 172 349 169 359 169 370 c 0
 169 381 172 390 180 398 c 0
 188 406 198 410 209 410 c 0
 220 410 229 406 237 398 c 0
 245 390 249 381 249 370 c 0
EndSplineSet
Validated: 1
EndChar

StartChar: Lslash
Encoding: 321 321 253
GlifName: L_slash
Width: 512
Flags: HW
HStem: 0 60<160 503> 680 20G<100 160>
VStem: 100 60<60 700>
LayerCount: 2
Fore
SplineSet
100 0 m 1
 100 700 l 1
 160 700 l 1
 160 60 l 1
 503 60 l 1
 503 0 l 1
 100 0 l 1
4 265 m 1
 4 331 l 1
 282 455 l 1
 282 389 l 1
 4 265 l 1
EndSplineSet
Validated: 5
EndChar

StartChar: lslash
Encoding: 322 322 254
GlifName: lslash
Width: 279
Flags: HW
HStem: 0 21G<109 169> 680 20G<109 169>
VStem: 109 60<0 700>
LayerCount: 2
Fore
SplineSet
20 272 m 1
 20 339 l 1
 260 454 l 1
 260 388 l 1
 20 272 l 1
109 0 m 1
 109 700 l 1
 169 700 l 1
 169 0 l 1
 109 0 l 1
EndSplineSet
Validated: 5
EndChar

StartChar: Nacute
Encoding: 323 323 255
GlifName: N_acute
Width: 733
Flags: HW
HStem: 0 21G<100 160 560 634> 680 20G<100 174 574 634>
VStem: 100 60<0 594> 574 60<106 700>
LayerCount: 2
Fore
SplineSet
328 744 m 1
 437 870 l 1
 526 870 l 1
 404 744 l 1
 328 744 l 1
100 700 m 1
 160 700 l 1
 574 106 l 1
 574 700 l 1
 634 700 l 1
 634 0 l 1
 574 0 l 1
 160 594 l 1
 160 0 l 1
 100 0 l 1
 100 700 l 1
EndSplineSet
Validated: 1
EndChar

StartChar: nacute
Encoding: 324 324 256
GlifName: nacute
Width: 553
Flags: HW
HStem: 0 21G<75 135 434 494> 452 60<210 359> 480 20G<75 135> 680 20G<322 428>
VStem: 75 60<0 372 432 500> 434 60<0 370>
LayerCount: 2
Fore
SplineSet
230 574 m 1x9c
 339 700 l 1
 428 700 l 1
 306 574 l 1
 230 574 l 1x9c
494 0 m 1
 434 0 l 1
 434 268 l 2
 434 325 420 369 392 402 c 0
 364 435 328 452 285 452 c 0xdc
 242 452 206 435 178 402 c 0
 150 369 135 325 135 268 c 2
 135 0 l 5
 75 0 l 5
 75 500 l 1
 135 500 l 1xbc
 135 432 l 1
 138 437 142 442 145 446 c 0
 180 490 227 512 285 512 c 0xdc
 345 512 394 489 434 445 c 0
 474 401 494 341 494 268 c 2
 494 0 l 1
EndSplineSet
Validated: 1
EndChar

StartChar: uni0145
Encoding: 325 325 257
GlifName: uni0145
Width: 733
Flags: HW
HStem: 0 21G<100 160 560 634> 680 20G<100 174 574 634>
VStem: 100 60<0 594> 574 60<106 700>
LayerCount: 2
Fore
SplineSet
315 -200 m 5
 355 -64 l 1
 426 -64 l 1
 371 -200 l 5
 315 -200 l 5
100 700 m 1
 160 700 l 1
 574 106 l 1
 574 700 l 1
 634 700 l 1
 634 0 l 1
 574 0 l 1
 160 594 l 1
 160 0 l 1
 100 0 l 1
 100 700 l 1
EndSplineSet
Validated: 1
EndChar

StartChar: uni0146
Encoding: 326 326 258
GlifName: uni0146
Width: 553
Flags: HW
HStem: 0 21G<75 135 434 494> 452 60<210 359> 480 20G<75 135>
VStem: 75 60<0 372 432 500> 434 60<0 370>
LayerCount: 2
Fore
SplineSet
206 -200 m 5x98
 246 -64 l 1
 317 -64 l 1
 262 -200 l 5
 206 -200 l 5x98
494 0 m 1
 434 0 l 1
 434 268 l 2
 434 325 420 369 392 402 c 0
 364 435 328 452 285 452 c 0xd8
 242 452 206 435 178 402 c 0
 150 369 135 325 135 268 c 2
 135 0 l 5
 75 0 l 5
 75 500 l 1
 135 500 l 1xb8
 135 432 l 1
 138 437 142 442 145 446 c 0
 180 490 227 512 285 512 c 0xd8
 345 512 394 489 434 445 c 0
 474 401 494 341 494 268 c 2
 494 0 l 1
EndSplineSet
Validated: 1
EndChar

StartChar: Ncaron
Encoding: 327 327 259
GlifName: N_caron
Width: 733
Flags: HW
HStem: 0 21G<100 160 560 634> 680 20G<100 174 574 634> 744 48<336 422>
VStem: 100 60<0 594> 574 60<106 700>
LayerCount: 2
Fore
SplineSet
218 870 m 5
 300 870 l 5
 379 792 l 5
 458 870 l 5
 540 870 l 5
 422 744 l 5
 336 744 l 5
 218 870 l 5
100 700 m 1
 160 700 l 1
 574 106 l 1
 574 700 l 1
 634 700 l 1
 634 0 l 1
 574 0 l 1
 160 594 l 1
 160 0 l 1
 100 0 l 1
 100 700 l 1
EndSplineSet
Validated: 1
EndChar

StartChar: ncaron
Encoding: 328 328 260
GlifName: ncaron
Width: 553
Flags: HW
HStem: 0 21G<75 135 434 494> 452 60<210 359> 480 20G<75 135> 574 48<233 319> 680 20G<115 217 335 437>
VStem: 75 60<0 372 432 500> 434 60<0 370>
LayerCount: 2
Fore
SplineSet
115 700 m 5x9e
 197 700 l 5
 276 622 l 5
 355 700 l 5
 437 700 l 5
 319 574 l 5
 233 574 l 5
 115 700 l 5x9e
494 0 m 1
 434 0 l 1
 434 268 l 2
 434 325 420 369 392 402 c 0
 364 435 328 452 285 452 c 0xde
 242 452 206 435 178 402 c 0
 150 369 135 325 135 268 c 2
 135 0 l 5
 75 0 l 5
 75 500 l 1
 135 500 l 1xbe
 135 432 l 1
 138 437 142 442 145 446 c 0
 180 490 227 512 285 512 c 0xde
 345 512 394 489 434 445 c 0
 474 401 494 341 494 268 c 2
 494 0 l 1
EndSplineSet
Validated: 1
EndChar

StartChar: Eng
Encoding: 330 330 261
GlifName: E_ng
Width: 733
Flags: HW
HStem: -212 60<422 519> -20 20G<574 634> 0 21G<100 160 560 634> 680 20G<100 174 574 634>
VStem: 100 60<0 594> 574 60<-97 0 106 700>
LayerCount: 2
Fore
SplineSet
100 700 m 1xbc
 160 700 l 1
 574 106 l 1
 574 700 l 1
 634 700 l 1
 634 0 l 1
 574 0 l 1xdc
 160 594 l 1
 160 0 l 1
 100 0 l 1
 100 700 l 1xbc
574 0 m 5
 634 0 l 5
 634 -25 l 6
 634 -76 616 -120 579 -157 c 4
 542 -194 498 -212 447 -212 c 6
 422 -212 l 5
 422 -152 l 5
 447 -152 l 6
 482 -152 512 -140 537 -115 c 4
 562 -90 574 -60 574 -25 c 6
 574 0 l 5
EndSplineSet
Validated: 5
EndChar

StartChar: eng
Encoding: 331 331 262
GlifName: eng
Width: 553
Flags: HW
HStem: -212 60<282 378> -20 20G<434 494> 0 21G<75 135 434 494> 452 60<210 359> 480 20G<75 135>
VStem: 75 60<0 372 432 500> 434 60<-97 370>
LayerCount: 2
Fore
SplineSet
494 0 m 1xd6
 434 0 l 1
 434 268 l 2
 434 325 420 369 392 402 c 0
 364 435 328 452 285 452 c 0xd6
 242 452 206 435 178 402 c 0
 150 369 135 325 135 268 c 2
 135 0 l 5
 75 0 l 5
 75 500 l 1
 135 500 l 1xae
 135 432 l 1
 138 437 142 442 145 446 c 0
 180 490 227 512 285 512 c 0
 345 512 394 489 434 445 c 0
 474 401 494 341 494 268 c 2
 494 0 l 1xd6
434 0 m 5
 494 0 l 5
 494 -25 l 6
 494 -76 476 -120 439 -157 c 4
 402 -194 358 -212 307 -212 c 6
 282 -212 l 5
 282 -152 l 5
 307 -152 l 6
 342 -152 372 -140 397 -115 c 4
 422 -90 434 -60 434 -25 c 6
 434 0 l 5
EndSplineSet
Validated: 5
EndChar

StartChar: Omacron
Encoding: 332 332 263
GlifName: O_macron
Width: 775
Flags: HW
HStem: -12 60<281 497> 652 60<279 496> 750 60<238 538>
VStem: 50 60<230 470> 666 60<230 470>
LayerCount: 2
Fore
SplineSet
388 652 m 0
 307 652 240 623 188 564 c 0
 136 505 110 434 110 350 c 0
 110 266 136 195 188 136 c 0
 240 77 307 48 388 48 c 0
 469 48 535 77 587 136 c 0
 639 195 666 266 666 350 c 0
 666 434 639 505 587 564 c 0
 535 623 469 652 388 652 c 0
388 712 m 0
 487 712 568 677 631 607 c 0
 694 537 726 452 726 350 c 0
 726 248 694 163 631 93 c 0
 568 23 487 -12 388 -12 c 0
 289 -12 208 23 145 93 c 0
 82 163 50 248 50 350 c 0
 50 452 82 537 145 607 c 0
 208 677 289 712 388 712 c 0
238 750 m 1
 238 810 l 1
 538 810 l 1
 538 750 l 1
 238 750 l 1
EndSplineSet
Validated: 1
EndChar

StartChar: omacron
Encoding: 333 333 264
GlifName: omacron
Width: 578
Flags: HW
HStem: -12 61<201 378> 452 61<201 378> 580 60<145 445>
VStem: 45 60<152 348> 474 60<152 348>
LayerCount: 2
Fore
SplineSet
145 580 m 1
 145 640 l 1
 445 640 l 1
 445 580 l 1
 145 580 l 1
290 452 m 0
 235 452 190 433 156 394 c 0
 122 355 105 307 105 250 c 0
 105 193 122 145 156 106 c 0
 190 67 235 48 290 48 c 0
 345 48 389 67 423 106 c 0
 457 145 474 193 474 250 c 0
 474 307 457 355 423 394 c 0
 389 433 345 452 290 452 c 0
290 512 m 0
 361 512 419 487 465 436 c 0
 511 385 534 323 534 250 c 0
 534 177 511 115 465 64 c 0
 419 13 361 -12 290 -12 c 0
 219 -12 160 13 114 64 c 0
 68 115 45 177 45 250 c 0
 45 323 68 385 114 436 c 0
 160 487 219 512 290 512 c 0
EndSplineSet
Validated: 1
EndChar

StartChar: Obreve
Encoding: 334 334 265
GlifName: O_breve
Width: 775
Flags: HW
HStem: -12 60<281 497> 652 60<279 496> 739 60<329 454>
VStem: 50 60<230 470> 244 60<823 870> 478 60<823 870> 666 60<230 470>
LayerCount: 2
Fore
SplineSet
388 652 m 0
 307 652 240 623 188 564 c 0
 136 505 110 434 110 350 c 0
 110 266 136 195 188 136 c 0
 240 77 307 48 388 48 c 0
 469 48 535 77 587 136 c 0
 639 195 666 266 666 350 c 0
 666 434 639 505 587 564 c 0
 535 623 469 652 388 652 c 0
388 712 m 0
 487 712 568 677 631 607 c 0
 694 537 726 452 726 350 c 0
 726 248 694 163 631 93 c 0
 568 23 487 -12 388 -12 c 0
 289 -12 208 23 145 93 c 0
 82 163 50 248 50 350 c 0
 50 452 82 537 145 607 c 0
 208 677 289 712 388 712 c 0
244 870 m 1
 304 870 l 1
 304 849 312 832 329 819 c 0
 346 806 366 799 391 799 c 0
 416 799 436 806 453 819 c 0
 470 832 478 849 478 870 c 1
 538 870 l 1
 538 834 524 803 496 777 c 0
 468 751 433 739 391 739 c 0
 349 739 315 751 287 777 c 0
 259 803 244 834 244 870 c 1
EndSplineSet
Validated: 1
EndChar

StartChar: obreve
Encoding: 335 335 266
GlifName: obreve
Width: 578
Flags: HW
HStem: -12 61<201 378> 452 61<201 378> 569 60<230 355> 680 20G<146 206 380 440>
VStem: 45 60<152 348> 146 60<653 700> 380 60<653 700> 474 60<152 348>
LayerCount: 2
Fore
SplineSet
290 452 m 0
 235 452 190 433 156 394 c 0
 122 355 105 307 105 250 c 0
 105 193 122 145 156 106 c 0
 190 67 235 48 290 48 c 0
 345 48 389 67 423 106 c 0
 457 145 474 193 474 250 c 0
 474 307 457 355 423 394 c 0
 389 433 345 452 290 452 c 0
290 512 m 0
 361 512 419 487 465 436 c 0
 511 385 534 323 534 250 c 0
 534 177 511 115 465 64 c 0
 419 13 361 -12 290 -12 c 0
 219 -12 160 13 114 64 c 0
 68 115 45 177 45 250 c 0
 45 323 68 385 114 436 c 0
 160 487 219 512 290 512 c 0
146 700 m 1
 206 700 l 1
 206 679 214 662 231 649 c 0
 248 636 268 629 293 629 c 0
 318 629 338 636 355 649 c 0
 372 662 380 679 380 700 c 1
 440 700 l 1
 440 664 425 633 397 607 c 0
 369 581 335 569 293 569 c 0
 251 569 216 581 188 607 c 0
 160 633 146 664 146 700 c 1
EndSplineSet
Validated: 1
EndChar

StartChar: Ohungarumlaut
Encoding: 336 336 267
GlifName: O_hungarumlaut
Width: 775
Flags: HW
HStem: -12 60<281 497> 652 60<279 496>
VStem: 50 60<230 470> 666 60<230 470>
LayerCount: 2
Fore
SplineSet
428 744 m 1
 521 870 l 1
 610 870 l 1
 508 744 l 1
 428 744 l 1
264 744 m 1
 357 870 l 1
 446 870 l 1
 344 744 l 1
 264 744 l 1
388 652 m 0
 307 652 240 623 188 564 c 0
 136 505 110 434 110 350 c 0
 110 266 136 195 188 136 c 0
 240 77 307 48 388 48 c 0
 469 48 535 77 587 136 c 0
 639 195 666 266 666 350 c 0
 666 434 639 505 587 564 c 0
 535 623 469 652 388 652 c 0
388 712 m 0
 487 712 568 677 631 607 c 0
 694 537 726 452 726 350 c 0
 726 248 694 163 631 93 c 0
 568 23 487 -12 388 -12 c 0
 289 -12 208 23 145 93 c 0
 82 163 50 248 50 350 c 0
 50 452 82 537 145 607 c 0
 208 677 289 712 388 712 c 0
EndSplineSet
Validated: 1
EndChar

StartChar: ohungarumlaut
Encoding: 337 337 268
GlifName: ohungarumlaut
Width: 578
Flags: HW
HStem: -12 61<201 378> 452 61<201 378> 680 20G<247 351 411 515>
VStem: 45 60<152 348> 474 60<152 348>
LayerCount: 2
Fore
SplineSet
333 574 m 1
 426 700 l 1
 515 700 l 1
 413 574 l 1
 333 574 l 1
169 574 m 1
 262 700 l 1
 351 700 l 1
 249 574 l 1
 169 574 l 1
290 452 m 0
 235 452 190 433 156 394 c 0
 122 355 105 307 105 250 c 0
 105 193 122 145 156 106 c 0
 190 67 235 48 290 48 c 0
 345 48 389 67 423 106 c 0
 457 145 474 193 474 250 c 0
 474 307 457 355 423 394 c 0
 389 433 345 452 290 452 c 0
290 512 m 0
 361 512 419 487 465 436 c 0
 511 385 534 323 534 250 c 0
 534 177 511 115 465 64 c 0
 419 13 361 -12 290 -12 c 0
 219 -12 160 13 114 64 c 0
 68 115 45 177 45 250 c 0
 45 323 68 385 114 436 c 0
 160 487 219 512 290 512 c 0
EndSplineSet
Validated: 1
EndChar

StartChar: OE
Encoding: 338 338 269
GlifName: O_E_
Width: 1158
Flags: HW
HStem: -12 60<281 497> 0 60<726 1069> 329 60<726 1005> 640 60<726 1069> 652 60<279 496>
VStem: 50 60<230 470> 666 60<60 640>
LayerCount: 2
Fore
SplineSet
388 652 m 0xae
 307 652 240 623 188 564 c 0
 136 505 110 434 110 350 c 0
 110 266 136 195 188 136 c 0
 240 77 307 48 388 48 c 0
 469 48 535 77 587 136 c 0
 639 195 666 266 666 350 c 0
 666 434 639 505 587 564 c 0
 535 623 469 652 388 652 c 0xae
388 712 m 0
 487 712 568 677 631 607 c 0
 694 537 726 452 726 350 c 0
 726 248 694 163 631 93 c 0
 568 23 487 -12 388 -12 c 0
 289 -12 208 23 145 93 c 0
 82 163 50 248 50 350 c 0
 50 452 82 537 145 607 c 0
 208 677 289 712 388 712 c 0
666 0 m 1x76
 666 700 l 1
 1069 700 l 1
 1069 640 l 1
 726 640 l 1
 726 389 l 1
 1005 389 l 1
 1005 329 l 1
 726 329 l 1
 726 60 l 1
 1069 60 l 1
 1069 0 l 1
 666 0 l 1x76
EndSplineSet
Validated: 5
EndChar

StartChar: oe
Encoding: 339 339 270
GlifName: oe
Width: 977
Flags: HW
HStem: -12 61<201 378 630 829> 220 61<536 882> 452 61<201 378 630 802>
VStem: 45 60<152 348> 474 60<177 323>
CounterMasks: 1 e0
LayerCount: 2
Fore
SplineSet
943 220 m 1
 536 220 l 1
 542 170 562 129 595 97 c 0
 628 65 669 48 718 48 c 0
 788 48 843 68 882 107 c 1
 923 63 l 1
 873 13 804 -12 718 -12 c 0
 647 -12 589 13 543 64 c 0
 497 115 474 177 474 250 c 0
 474 323 497 385 543 436 c 0
 589 487 647 512 718 512 c 0
 788 512 843 488 883 438 c 0
 923 388 943 325 943 250 c 2
 943 220 l 1
718 452 m 0
 669 452 628 435 595 403 c 0
 562 371 542 330 536 280 c 1
 882 280 l 1
 877 331 861 372 833 404 c 0
 805 436 766 452 718 452 c 0
290 452 m 0
 235 452 190 433 156 394 c 0
 122 355 105 307 105 250 c 0
 105 193 122 145 156 106 c 0
 190 67 235 48 290 48 c 0
 345 48 389 67 423 106 c 0
 457 145 474 193 474 250 c 0
 474 307 457 355 423 394 c 0
 389 433 345 452 290 452 c 0
290 512 m 0
 361 512 419 487 465 436 c 0
 511 385 534 323 534 250 c 0
 534 177 511 115 465 64 c 0
 419 13 361 -12 290 -12 c 0
 219 -12 160 13 114 64 c 0
 68 115 45 177 45 250 c 0
 45 323 68 385 114 436 c 0
 160 487 219 512 290 512 c 0
EndSplineSet
Validated: 5
EndChar

StartChar: Racute
Encoding: 340 340 271
GlifName: R_acute
Width: 587
Flags: HW
HStem: 0 21G<100 160 462 538> 300 60<160 332> 640 60<160 412>
VStem: 100 60<0 300 360 640> 478 60<426 574>
LayerCount: 2
Fore
SplineSet
244 744 m 1
 353 870 l 1
 442 870 l 1
 320 744 l 1
 244 744 l 1
160 640 m 1
 160 360 l 1
 338 360 l 2
 376 360 409 373 437 401 c 0
 465 429 478 462 478 500 c 0
 478 538 465 571 437 599 c 0
 409 627 376 640 338 640 c 2
 160 640 l 1
100 700 m 1
 338 700 l 2
 393 700 440 681 479 642 c 0
 518 603 538 555 538 500 c 0
 538 456 525 415 498 380 c 0
 471 345 436 321 394 309 c 1
 538 0 l 1
 472 0 l 1
 332 300 l 1
 160 300 l 1
 160 0 l 1
 100 0 l 1
 100 700 l 1
EndSplineSet
Validated: 1
EndChar

StartChar: racute
Encoding: 341 341 272
GlifName: racute
Width: 321
Flags: HW
HStem: 0 21G<75 135> 452 60<227 312> 480 20G<75 135> 680 20G<205 311>
VStem: 75 60<0 360 424 500>
LayerCount: 2
Fore
SplineSet
113 574 m 1x98
 222 700 l 1
 311 700 l 1
 189 574 l 1
 113 574 l 1x98
75 500 m 1xb8
 135 500 l 1xb8
 135 424 l 1
 140 430 145 437 151 443 c 0
 169 462 189 477 210 488 c 0
 240 504 274 512 312 512 c 1
 312 452 l 1xd8
 263 452 222 435 187 400 c 0
 152 365 135 324 135 275 c 2
 135 0 l 1
 75 0 l 1
 75 500 l 1xb8
EndSplineSet
Validated: 1
EndChar

StartChar: uni0156
Encoding: 342 342 273
GlifName: uni0156
Width: 587
Flags: HW
HStem: 0 21G<100 160 462 538> 300 60<160 332> 640 60<160 412>
VStem: 100 60<0 300 360 640> 478 60<426 574>
LayerCount: 2
Fore
SplineSet
236 -200 m 5
 276 -64 l 1
 347 -64 l 1
 292 -200 l 5
 236 -200 l 5
160 640 m 1
 160 360 l 1
 338 360 l 2
 376 360 409 373 437 401 c 0
 465 429 478 462 478 500 c 0
 478 538 465 571 437 599 c 0
 409 627 376 640 338 640 c 2
 160 640 l 1
100 700 m 1
 338 700 l 2
 393 700 440 681 479 642 c 0
 518 603 538 555 538 500 c 0
 538 456 525 415 498 380 c 0
 471 345 436 321 394 309 c 1
 538 0 l 1
 472 0 l 1
 332 300 l 1
 160 300 l 1
 160 0 l 1
 100 0 l 1
 100 700 l 1
EndSplineSet
Validated: 1
EndChar

StartChar: uni0157
Encoding: 343 343 274
GlifName: uni0157
Width: 321
Flags: HW
HStem: 0 21G<75 135> 452 60<227 312> 480 20G<75 135>
VStem: 75 60<0 360 424 500>
LayerCount: 2
Fore
SplineSet
34 -200 m 5x90
 74 -64 l 1
 145 -64 l 1
 90 -200 l 5
 34 -200 l 5x90
75 500 m 1xb0
 135 500 l 1xb0
 135 424 l 1
 140 430 145 437 151 443 c 0
 169 462 189 477 210 488 c 0
 240 504 274 512 312 512 c 1
 312 452 l 1xd0
 263 452 222 435 187 400 c 0
 152 365 135 324 135 275 c 2
 135 0 l 1
 75 0 l 1
 75 500 l 1xb0
EndSplineSet
Validated: 1
EndChar

StartChar: Rcaron
Encoding: 344 344 275
GlifName: R_caron
Width: 587
Flags: HW
HStem: 0 21G<100 160 462 538> 300 60<160 332> 640 60<160 412> 744 48<242 328>
VStem: 100 60<0 300 360 640> 478 60<426 574>
LayerCount: 2
Fore
SplineSet
124 870 m 5
 206 870 l 5
 285 792 l 5
 364 870 l 5
 446 870 l 5
 328 744 l 5
 242 744 l 5
 124 870 l 5
160 640 m 1
 160 360 l 1
 338 360 l 2
 376 360 409 373 437 401 c 0
 465 429 478 462 478 500 c 0
 478 538 465 571 437 599 c 0
 409 627 376 640 338 640 c 2
 160 640 l 1
100 700 m 1
 338 700 l 2
 393 700 440 681 479 642 c 0
 518 603 538 555 538 500 c 0
 538 456 525 415 498 380 c 0
 471 345 436 321 394 309 c 1
 538 0 l 1
 472 0 l 1
 332 300 l 1
 160 300 l 1
 160 0 l 1
 100 0 l 1
 100 700 l 1
EndSplineSet
Validated: 1
EndChar

StartChar: rcaron
Encoding: 345 345 276
GlifName: rcaron
Width: 321
Flags: HW
HStem: 0 21G<75 135> 452 60<227 312> 480 20G<75 135> 574 48<141 227> 680 20G<23 125 243 345>
VStem: 75 60<0 360 424 500>
LayerCount: 2
Fore
SplineSet
23 700 m 5x9c
 104 700 l 5
 184 622 l 5
 264 700 l 5
 345 700 l 5
 227 574 l 5
 141 574 l 5
 23 700 l 5x9c
75 500 m 1xbc
 135 500 l 1xbc
 135 424 l 1
 140 430 145 437 151 443 c 0
 169 462 189 477 210 488 c 0
 240 504 274 512 312 512 c 1
 312 452 l 1xdc
 263 452 222 435 187 400 c 0
 152 365 135 324 135 275 c 2
 135 0 l 1
 75 0 l 1
 75 500 l 1xbc
EndSplineSet
Validated: 1
EndChar

StartChar: Sacute
Encoding: 346 346 277
GlifName: S_acute
Width: 538
Flags: HW
HStem: -12 60<178 348> 652 60<178 349>
VStem: 62 60<467 599> 424 60<122 271>
LayerCount: 2
Fore
SplineSet
223 744 m 1
 332 870 l 1
 421 870 l 1
 299 744 l 1
 223 744 l 1
263 712 m 0
 310 712 350 701 383 680 c 0
 416 659 440 630 453 593 c 1
 396 572 l 1
 387 597 372 617 349 631 c 0
 326 645 298 652 263 652 c 0
 221 652 187 641 161 618 c 0
 135 595 122 566 122 531 c 0
 122 503 131 478 150 459 c 0
 173 435 211 419 263 410 c 0
 327 399 380 375 422 338 c 0
 464 301 484 255 484 199 c 0
 484 140 462 90 420 49 c 0
 378 8 325 -12 263 -12 c 0
 214 -12 171 1 134 26 c 0
 97 51 70 85 55 127 c 1
 112 147 l 1
 123 117 141 93 168 75 c 0
 195 57 227 48 263 48 c 0
 309 48 347 63 378 92 c 0
 409 121 424 157 424 199 c 0
 424 239 408 272 378 298 c 0
 348 324 310 342 263 350 c 0
 203 361 155 381 118 410 c 0
 81 439 62 480 62 531 c 0
 62 582 81 625 119 660 c 0
 157 695 204 712 263 712 c 0
EndSplineSet
Validated: 1
EndChar

StartChar: sacute
Encoding: 347 347 278
GlifName: sacute
Width: 429
Flags: HW
HStem: -12 60<134 284> 452 60<150 284> 680 20G<256 362>
VStem: 65 60<333 427> 325 60<87 194>
LayerCount: 2
Fore
SplineSet
164 574 m 1
 273 700 l 1
 362 700 l 1
 240 574 l 1
 164 574 l 1
361 422 m 1
 304 402 l 1
 299 417 288 429 272 438 c 0
 256 447 237 452 215 452 c 0
 188 452 165 445 149 430 c 0
 133 415 125 397 125 376 c 0
 125 352 141 332 173 316 c 0
 188 309 206 303 227 297 c 0
 281 282 321 262 347 236 c 0
 372 211 385 180 385 144 c 0
 385 101 368 64 334 34 c 0
 300 4 259 -12 209 -12 c 0
 170 -12 137 -3 109 16 c 0
 81 35 60 60 45 91 c 1
 101 111 l 1
 121 69 156 48 209 48 c 0
 242 48 270 57 292 76 c 0
 314 95 325 117 325 144 c 0
 325 172 309 195 276 214 c 0
 259 224 237 232 211 239 c 0
 169 250 134 268 106 290 c 0
 78 312 65 341 65 376 c 0
 65 414 79 447 107 473 c 0
 135 499 171 512 215 512 c 0
 250 512 281 504 307 488 c 0
 333 472 351 449 361 422 c 1
EndSplineSet
Validated: 1
EndChar

StartChar: Scircumflex
Encoding: 348 348 279
GlifName: S_circumflex
Width: 538
Flags: HW
HStem: -12 60<178 348> 652 60<178 349>
VStem: 62 60<467 599> 424 60<122 271>
LayerCount: 2
Fore
SplineSet
101 744 m 1
 221 870 l 1
 303 870 l 1
 423 744 l 1
 341 744 l 1
 262 824 l 5
 183 744 l 1
 101 744 l 1
263 712 m 0
 310 712 350 701 383 680 c 0
 416 659 440 630 453 593 c 1
 396 572 l 1
 387 597 372 617 349 631 c 0
 326 645 298 652 263 652 c 0
 221 652 187 641 161 618 c 0
 135 595 122 566 122 531 c 0
 122 503 131 478 150 459 c 0
 173 435 211 419 263 410 c 0
 327 399 380 375 422 338 c 0
 464 301 484 255 484 199 c 0
 484 140 462 90 420 49 c 0
 378 8 325 -12 263 -12 c 0
 214 -12 171 1 134 26 c 0
 97 51 70 85 55 127 c 1
 112 147 l 1
 123 117 141 93 168 75 c 0
 195 57 227 48 263 48 c 0
 309 48 347 63 378 92 c 0
 409 121 424 157 424 199 c 0
 424 239 408 272 378 298 c 0
 348 324 310 342 263 350 c 0
 203 361 155 381 118 410 c 0
 81 439 62 480 62 531 c 0
 62 582 81 625 119 660 c 0
 157 695 204 712 263 712 c 0
EndSplineSet
Validated: 1
EndChar

StartChar: scircumflex
Encoding: 349 349 280
GlifName: scircumflex
Width: 429
Flags: HW
HStem: -12 60<134 284> 452 60<150 284> 680 20G<155 275>
VStem: 65 60<333 427> 325 60<87 194>
LayerCount: 2
Fore
SplineSet
54 574 m 1
 174 700 l 1
 256 700 l 1
 376 574 l 1
 294 574 l 1
 215 654 l 5
 136 574 l 1
 54 574 l 1
361 422 m 1
 304 402 l 1
 299 417 288 429 272 438 c 0
 256 447 237 452 215 452 c 0
 188 452 165 445 149 430 c 0
 133 415 125 397 125 376 c 0
 125 352 141 332 173 316 c 0
 188 309 206 303 227 297 c 0
 281 282 321 262 347 236 c 0
 372 211 385 180 385 144 c 0
 385 101 368 64 334 34 c 0
 300 4 259 -12 209 -12 c 0
 170 -12 137 -3 109 16 c 0
 81 35 60 60 45 91 c 1
 101 111 l 1
 121 69 156 48 209 48 c 0
 242 48 270 57 292 76 c 0
 314 95 325 117 325 144 c 0
 325 172 309 195 276 214 c 0
 259 224 237 232 211 239 c 0
 169 250 134 268 106 290 c 0
 78 312 65 341 65 376 c 0
 65 414 79 447 107 473 c 0
 135 499 171 512 215 512 c 0
 250 512 281 504 307 488 c 0
 333 472 351 449 361 422 c 1
EndSplineSet
Validated: 1
EndChar

StartChar: Scedilla
Encoding: 350 350 281
GlifName: S_cedilla
Width: 538
Flags: HW
HStem: -210 57<188 304> -12 60<178 297> 652 60<178 349>
VStem: 62 60<467 599> 332 57<-125 -15> 424 60<122 271>
LayerCount: 2
Fore
SplineSet
344 33 m 1
 374 5 389 -29 389 -70 c 0
 389 -109 375 -142 348 -169 c 0
 321 -196 288 -210 249 -210 c 0
 217 -210 189 -201 164 -181 c 1
 188 -152 201 -137 201 -137 c 5
 215 -147 231 -153 249 -153 c 0
 271 -153 292 -144 308 -128 c 0
 324 -112 332 -92 332 -70 c 0
 332 -54 327 -39 319 -26 c 0
 311 -13 301 -3 287 4 c 1
 344 33 l 1
263 712 m 0
 310 712 350 701 383 680 c 0
 416 659 440 630 453 593 c 1
 396 572 l 1
 387 597 372 617 349 631 c 0
 326 645 298 652 263 652 c 0
 221 652 187 641 161 618 c 0
 135 595 122 566 122 531 c 0
 122 503 131 478 150 459 c 0
 173 435 211 419 263 410 c 0
 327 399 380 375 422 338 c 0
 464 301 484 255 484 199 c 0
 484 140 462 90 420 49 c 0
 378 8 325 -12 263 -12 c 0
 214 -12 171 1 134 26 c 0
 97 51 70 85 55 127 c 1
 112 147 l 1
 123 117 141 93 168 75 c 0
 195 57 227 48 263 48 c 0
 309 48 347 63 378 92 c 0
 409 121 424 157 424 199 c 0
 424 239 408 272 378 298 c 0
 348 324 310 342 263 350 c 0
 203 361 155 381 118 410 c 0
 81 439 62 480 62 531 c 0
 62 582 81 625 119 660 c 0
 157 695 204 712 263 712 c 0
EndSplineSet
Validated: 5
EndChar

StartChar: scedilla
Encoding: 351 351 282
GlifName: scedilla
Width: 429
Flags: HW
HStem: -210 57<129 245> -12 60<134 238> 452 60<150 284>
VStem: 65 60<333 427> 273 57<-125 -15> 325 60<87 194>
LayerCount: 2
Fore
SplineSet
285 33 m 1xf8
 315 5 330 -29 330 -70 c 0
 330 -109 316 -142 289 -169 c 0
 262 -196 229 -210 190 -210 c 0
 158 -210 130 -201 105 -181 c 1
 129 -152 142 -137 142 -137 c 5
 156 -147 172 -153 190 -153 c 0
 212 -153 233 -144 249 -128 c 0
 265 -112 273 -92 273 -70 c 0
 273 -54 269 -39 261 -26 c 0
 253 -13 242 -3 228 4 c 1
 285 33 l 1xf8
361 422 m 1
 304 402 l 1
 299 417 288 429 272 438 c 0
 256 447 237 452 215 452 c 0
 188 452 165 445 149 430 c 0
 133 415 125 397 125 376 c 0
 125 352 141 332 173 316 c 0
 188 309 206 303 227 297 c 0
 281 282 321 262 347 236 c 0
 372 211 385 180 385 144 c 0
 385 101 368 64 334 34 c 0
 300 4 259 -12 209 -12 c 0
 170 -12 137 -3 109 16 c 0
 81 35 60 60 45 91 c 1
 101 111 l 1
 121 69 156 48 209 48 c 0
 242 48 270 57 292 76 c 0
 314 95 325 117 325 144 c 0xf4
 325 172 309 195 276 214 c 0
 259 224 237 232 211 239 c 0
 169 250 134 268 106 290 c 0
 78 312 65 341 65 376 c 0
 65 414 79 447 107 473 c 0
 135 499 171 512 215 512 c 0
 250 512 281 504 307 488 c 0
 333 472 351 449 361 422 c 1
EndSplineSet
Validated: 5
EndChar

StartChar: Scaron
Encoding: 352 352 283
GlifName: S_caron
Width: 538
Flags: HW
HStem: -12 60<178 348> 652 60<178 349> 744 48<225 311>
VStem: 62 60<467 599> 424 60<122 271>
LayerCount: 2
Fore
SplineSet
107 870 m 5
 188 870 l 5
 268 792 l 5
 347 870 l 5
 429 870 l 5
 311 744 l 5
 225 744 l 5
 107 870 l 5
263 712 m 0
 310 712 350 701 383 680 c 0
 416 659 440 630 453 593 c 1
 396 572 l 1
 387 597 372 617 349 631 c 0
 326 645 298 652 263 652 c 0
 221 652 187 641 161 618 c 0
 135 595 122 566 122 531 c 0
 122 503 131 478 150 459 c 0
 173 435 211 419 263 410 c 0
 327 399 380 375 422 338 c 0
 464 301 484 255 484 199 c 0
 484 140 462 90 420 49 c 0
 378 8 325 -12 263 -12 c 0
 214 -12 171 1 134 26 c 0
 97 51 70 85 55 127 c 1
 112 147 l 1
 123 117 141 93 168 75 c 0
 195 57 227 48 263 48 c 0
 309 48 347 63 378 92 c 0
 409 121 424 157 424 199 c 0
 424 239 408 272 378 298 c 0
 348 324 310 342 263 350 c 0
 203 361 155 381 118 410 c 0
 81 439 62 480 62 531 c 0
 62 582 81 625 119 660 c 0
 157 695 204 712 263 712 c 0
EndSplineSet
Validated: 1
EndChar

StartChar: scaron
Encoding: 353 353 284
GlifName: scaron
Width: 429
Flags: HW
HStem: -12 60<134 284> 452 60<150 284> 574 48<172 258> 680 20G<54 156 274 376>
VStem: 65 60<333 427> 325 60<87 194>
LayerCount: 2
Fore
SplineSet
54 700 m 5
 136 700 l 5
 215 622 l 5
 294 700 l 5
 376 700 l 5
 258 574 l 5
 172 574 l 5
 54 700 l 5
361 422 m 1
 304 402 l 1
 299 417 288 429 272 438 c 0
 256 447 237 452 215 452 c 0
 188 452 165 445 149 430 c 0
 133 415 125 397 125 376 c 0
 125 352 141 332 173 316 c 0
 188 309 206 303 227 297 c 0
 281 282 321 262 347 236 c 0
 372 211 385 180 385 144 c 0
 385 101 368 64 334 34 c 0
 300 4 259 -12 209 -12 c 0
 170 -12 137 -3 109 16 c 0
 81 35 60 60 45 91 c 1
 101 111 l 1
 121 69 156 48 209 48 c 0
 242 48 270 57 292 76 c 0
 314 95 325 117 325 144 c 0
 325 172 309 195 276 214 c 0
 259 224 237 232 211 239 c 0
 169 250 134 268 106 290 c 0
 78 312 65 341 65 376 c 0
 65 414 79 447 107 473 c 0
 135 499 171 512 215 512 c 0
 250 512 281 504 307 488 c 0
 333 472 351 449 361 422 c 1
EndSplineSet
Validated: 1
EndChar

StartChar: uni0162
Encoding: 354 354 285
GlifName: uni0162
Width: 539
Flags: HW
HStem: -202 57<144 260> 0 21G<240 300> 640 60<10 240 300 530>
VStem: 240 60<41 640> 288 57<-117 -6>
LayerCount: 2
Fore
SplineSet
10 700 m 1xf0
 530 700 l 1
 530 640 l 1
 300 640 l 1
 300 0 l 1
 240 0 l 1
 240 640 l 1
 10 640 l 1
 10 700 l 1xf0
300 41 m 1
 330 13 345 -21 345 -62 c 0
 345 -101 331 -134 304 -161 c 0
 277 -188 244 -202 205 -202 c 0
 173 -202 145 -193 120 -173 c 1
 144 -144 157 -129 157 -129 c 5
 171 -139 187 -145 205 -145 c 0
 227 -145 248 -137 264 -121 c 0
 280 -105 288 -84 288 -62 c 0xe8
 288 -46 283 -32 275 -19 c 0
 267 -6 257 5 243 12 c 1
 300 41 l 1
EndSplineSet
Validated: 5
EndChar

StartChar: uni0163
Encoding: 355 355 286
GlifName: uni0163
Width: 358
Flags: HW
HStem: -200 57<172 289> 0 21G<281 328> 441 59<20 109 169 329>
VStem: 109 60<125 441 500 656> 316 57<-115 -4>
LayerCount: 2
Fore
SplineSet
109 656 m 1
 169 656 l 1
 169 500 l 1
 329 500 l 1
 329 441 l 1
 169 441 l 1
 169 199 l 2
 169 160 182 128 209 101 c 0
 236 74 269 60 308 60 c 2
 328 60 l 1
 328 0 l 1
 308 0 l 2
 253 0 206 20 167 59 c 0
 128 98 109 144 109 199 c 2
 109 441 l 1
 20 441 l 1
 20 500 l 1
 109 500 l 1
 109 656 l 1
328 43 m 1
 358 15 373 -19 373 -60 c 0
 373 -99 359 -132 332 -159 c 0
 305 -186 272 -200 233 -200 c 0
 201 -200 173 -191 148 -171 c 1
 172 -142 185 -127 185 -127 c 5
 199 -137 215 -143 233 -143 c 0
 255 -143 276 -135 292 -119 c 0
 308 -103 316 -82 316 -60 c 0
 316 -44 312 -30 304 -17 c 0
 296 -4 285 7 271 14 c 1
 328 43 l 1
EndSplineSet
Validated: 5
EndChar

StartChar: Tcaron
Encoding: 356 356 287
GlifName: T_caron
Width: 539
Flags: HW
HStem: 0 21G<240 300> 640 60<10 240 300 530> 744 48<226 312>
VStem: 240 60<0 640>
LayerCount: 2
Fore
SplineSet
108 870 m 5
 189 870 l 5
 269 792 l 5
 349 870 l 5
 430 870 l 5
 312 744 l 5
 226 744 l 5
 108 870 l 5
10 700 m 1
 530 700 l 1
 530 640 l 1
 300 640 l 1
 300 0 l 1
 240 0 l 1
 240 640 l 1
 10 640 l 1
 10 700 l 1
EndSplineSet
Validated: 1
EndChar

StartChar: tcaron
Encoding: 357 357 288
GlifName: tcaron
Width: 376
Flags: HW
HStem: 0 60<234 328> 441 59<20 109 169 329>
VStem: 109 60<125 441 500 656>
LayerCount: 2
Fore
SplineSet
109 656 m 1
 169 656 l 1
 169 500 l 1
 329 500 l 1
 329 441 l 1
 169 441 l 1
 169 199 l 2
 169 160 182 128 209 101 c 0
 236 74 269 60 308 60 c 2
 328 60 l 1
 328 0 l 1
 308 0 l 2
 253 0 206 20 167 59 c 0
 128 98 109 144 109 199 c 2
 109 441 l 1
 20 441 l 1
 20 500 l 1
 109 500 l 1
 109 656 l 1
222 553 m 1
 275 725 l 5
 346 725 l 5
 278 553 l 1
 222 553 l 1
EndSplineSet
Validated: 1
EndChar

StartChar: Tbar
Encoding: 358 358 289
GlifName: T_bar
Width: 539
Flags: HW
HStem: 0 21G<240 300> 309 60<118 426> 640 60<10 240 300 530>
VStem: 240 60<0 640>
LayerCount: 2
Fore
SplineSet
10 700 m 1
 530 700 l 1
 530 640 l 1
 300 640 l 1
 300 0 l 1
 240 0 l 1
 240 640 l 1
 10 640 l 1
 10 700 l 1
118 309 m 5
 118 369 l 5
 426 369 l 5
 426 309 l 5
 118 309 l 5
EndSplineSet
Validated: 5
EndChar

StartChar: tbar
Encoding: 359 359 290
GlifName: tbar
Width: 358
Flags: HW
HStem: 0 60<234 328> 271 59<24 324> 441 59<20 109 169 329>
VStem: 109 60<125 441 500 656>
LayerCount: 2
Fore
SplineSet
109 656 m 1
 169 656 l 1
 169 500 l 1
 329 500 l 1
 329 441 l 1
 169 441 l 1
 169 199 l 2
 169 160 182 128 209 101 c 0
 236 74 269 60 308 60 c 2
 328 60 l 1
 328 0 l 1
 308 0 l 2
 253 0 206 20 167 59 c 0
 128 98 109 144 109 199 c 2
 109 441 l 1
 20 441 l 1
 20 500 l 1
 109 500 l 1
 109 656 l 1
24 271 m 5
 24 330 l 5
 324 330 l 5
 324 271 l 5
 24 271 l 5
EndSplineSet
Validated: 5
EndChar

StartChar: Utilde
Encoding: 360 360 291
GlifName: U_tilde
Width: 708
Flags: HW
HStem: -12 60<265 444> 680 20G<90 150 559 619> 742 56<373 441> 814 56<256 322>
VStem: 90 60<170 700> 192 59<777 810> 446 59<802 836> 559 60<170 700>
LayerCount: 2
Fore
SplineSet
90 700 m 1
 150 700 l 1
 150 283 l 2
 150 213 169 156 209 113 c 0
 249 70 296 48 354 48 c 0
 412 48 460 70 500 113 c 0
 540 156 559 213 559 283 c 2
 559 700 l 1
 619 700 l 1
 619 283 l 2
 619 195 593 123 543 69 c 0
 493 15 430 -12 354 -12 c 0
 278 -12 216 15 166 69 c 0
 116 123 90 195 90 283 c 2
 90 700 l 1
408 742 m 0
 379 742 354 754 334 778 c 0
 326 787 320 796 313 803 c 0
 306 810 299 814 291 814 c 0
 270 814 257 802 251 777 c 1
 192 777 l 1
 195 803 206 824 225 842 c 0
 244 860 266 870 291 870 c 0
 316 870 339 858 360 834 c 0
 368 825 376 816 383 809 c 0
 390 802 399 798 408 798 c 0
 429 798 442 811 446 836 c 1
 505 836 l 1
 501 809 491 787 473 769 c 0
 455 751 433 742 408 742 c 0
EndSplineSet
Validated: 1
EndChar

StartChar: utilde
Encoding: 361 361 292
GlifName: utilde
Width: 538
Flags: HW
HStem: -12 60<194 345> 480 20G<60 120 419 479> 572 56<293 361> 644 56<177 242>
VStem: 60 60<130 500> 112 59<607 640> 366 59<632 666> 419 60<130 500>
LayerCount: 2
Fore
SplineSet
60 500 m 1xf9
 120 500 l 1
 120 232 l 2
 120 175 135 131 163 98 c 0
 191 65 227 48 270 48 c 0
 313 48 348 65 376 98 c 0
 404 131 419 175 419 232 c 2
 419 500 l 1
 479 500 l 1
 479 232 l 2
 479 159 459 99 419 55 c 0
 379 11 330 -12 270 -12 c 0
 210 -12 160 11 120 55 c 0
 80 99 60 159 60 232 c 2
 60 500 l 1xf9
328 572 m 0
 299 572 274 584 254 608 c 0
 246 617 240 626 233 633 c 0
 226 640 219 644 211 644 c 0
 190 644 177 632 171 607 c 1
 112 607 l 1
 115 633 126 654 145 672 c 0
 164 690 186 700 211 700 c 0
 236 700 259 688 280 664 c 0
 288 655 296 646 303 639 c 0
 310 632 319 628 328 628 c 0
 349 628 362 641 366 666 c 1
 425 666 l 1xf6
 421 639 411 617 393 599 c 0
 375 581 353 572 328 572 c 0
EndSplineSet
Validated: 1
EndChar

